{
.appVersion = "1181";
DisplayStrings = (
"ã/ecaron xs/oneeighth \012/Lslash/lslash Øø/upArrow/notequal \012\012t",
"35ß/Germandbls/germandbls.sc \012\01253R/Germandbls/three.osf/r.sc/germandbls.sc/b.sc \012\012NNCANN\012OO/Placeholder AOO\012ii/Placeholder Aii\012",
"/slashshortcomb.case/Lslash/slashshortcomb.sc/lslash.sc/slashshortcomb/lslash \012OOAOO\012ØØAØØ\012/a.sc/a.sc/oslash.sc/a.sc/a.sc \012/a.sc/a.sc/o.sc/a.sc/a.sc \012\012Øø/oslash.sc",
"/oslash.sc",
"\012/iacute_j.loclNLD/f_i/f_j/f_l/fi/fl/I_J.loclNLD/i_j.loclNLD \012\012/f_j ord nn/f_j nnoo/f_j oo\012fjord nnfjnnoofjoo\012\012nnijnnooijoo\012/f_j  /i_j.loclNLD  /f_i \012fj ij fi",
"/lj olj",
"aD/DZ/DZcaron/LJ/Lj/NJ/Nj/backslash DZ.....LJ...NJNj\012\012/Iacute_J.loclNLD/dz/dzcaron/lj/iacute_j.loclNLD/f_i/f_j/f_l/fi \012/fl/I_J.loclNLD/i_j.loclNLD/dz.sc/dzcaron.sc/iacute_j.loclNLD.sc/i_j.loclNLD.sc/nj.sc \012\012",

glyphs = (
{
glyphname = A;
layers = (
{
anchors = (
{
name = bottom;
position = "{722, 0}";
},
{
name = ogonek;
position = "{1394, 0}";
},
{
name = top;
position = "{722, 1520}";
}
);
background = {
anchors = (
{
name = bottom;
position = "{716, 0}";
},
{
name = ogonek;
position = "{1388, 0}";
},
{
name = top;
position = "{716, 1520}";
}
);
paths = (
{
closed = 1;
nodes = (
"210 0 LINE",
"210 728 LINE",
"1218 728 LINE",
"1218 0 LINE",
"1286 0 LINE",
"1286 1480 LINE",
"1218 1480 LINE",
"1218 794 LINE",
"210 794 LINE",
"210 1480 LINE",
"142 1480 LINE",
"142 0 LINE"
);
}
);
};
color = -1;
layerId = "E28BEEB5-BD92-4E7A-B4EA-FC5E5BBBF580";
paths = (
{
closed = 1;
nodes = (
"122 0 LINE",
"732 1440 LINE",
"708 1440 LINE",
"1318 0 LINE",
"1394 0 LINE",
"764 1480 LINE",
"678 1480 LINE",
"48 0 LINE"
);
},
{
closed = 1;
nodes = (
"1120 528 LINE",
"1100 594 LINE",
"342 594 LINE",
"322 528 LINE"
);
}
);
width = 1442;
},
{
anchors = (
{
name = bottom;
position = "{880, 0}";
},
{
name = ogonek;
position = "{1744, 0}";
},
{
name = top;
position = "{878, 1520}";
}
);
background = {
paths = (
{
closed = 1;
nodes = (
"474 0 LINE",
"896 1284 LINE",
"856 1284 LINE",
"1278 0 LINE",
"1742 0 LINE",
"1222 1480 LINE",
"534 1480 LINE",
"14 0 LINE"
);
},
{
closed = 1;
nodes = (
"1254 338 LINE",
"1146 682 LINE",
"608 682 LINE",
"498 338 LINE"
);
}
);
};
color = -1;
layerId = "1E90A949-97C4-49F5-AA9A-AF35B6FD63CF";
paths = (
{
closed = 1;
nodes = (
"476 0 LINE",
"898 1284 LINE",
"858 1284 LINE",
"1280 0 LINE",
"1744 0 LINE",
"1224 1480 LINE",
"536 1480 LINE",
"16 0 LINE"
);
},
{
closed = 1;
nodes = (
"1256 334 LINE",
"1148 684 LINE",
"610 684 LINE",
"500 334 LINE"
);
}
);
width = 1760;
}
);
leftKerningGroup = A;
note = "\012    520\012  ";
rightKerningGroup = A;
unicode = 0041;
userData = {
com.typemytype.robofont.layerData = {
};
};
},
{
glyphname = Aringacute;
layers = (
{
background = {
components = (
{
name = A;
},
{
alignment = -1;
name = ringcomb_acutecomb.case;
transform = "{1, 0, 0, 1, 59, -90}";
}
);
};
color = -1;
components = (
{
name = A;
},
{
alignment = -1;
name = ringcomb_acutecomb.case;
transform = "{1, 0, 0, 1, 124, -180}";
}
);
layerId = "E28BEEB5-BD92-4E7A-B4EA-FC5E5BBBF580";
width = 1442;
},
{
background = {
paths = (
{
closed = 1;
nodes = (
"-10 0 LINE",
"446 0 LINE",
"534 284 LINE",
"1114 284 LINE",
"1204 0 LINE",
"1660 0 LINE",
"1660 24 LINE",
"1212 1350 LINE",
"1252 1398 OFFCURVE",
"1276 1456 OFFCURVE",
"1276 1520 CURVE SMOOTH",
"1276 1642 OFFCURVE",
"1196 1738 OFFCURVE",
"1066 1790 CURVE",
"1244 2060 LINE",
"774 2060 LINE",
"696 1818 LINE",
"508 1782 OFFCURVE",
"392 1672 OFFCURVE",
"392 1520 CURVE SMOOTH",
"392 1462 OFFCURVE",
"408 1410 OFFCURVE",
"440 1366 CURVE",
"-10 24 LINE"
);
},
{
closed = 1;
nodes = (
"828 1408 CURVE SMOOTH",
"728 1408 OFFCURVE",
"660 1452 OFFCURVE",
"660 1520 CURVE SMOOTH",
"660 1588 OFFCURVE",
"726 1632 OFFCURVE",
"828 1632 CURVE SMOOTH",
"936 1632 OFFCURVE",
"1008 1588 OFFCURVE",
"1008 1520 CURVE SMOOTH",
"1008 1454 OFFCURVE",
"936 1408 OFFCURVE"
);
},
{
closed = 1;
nodes = (
"650 656 LINE",
"702 820 LINE",
"804 1166 LINE",
"844 1166 LINE",
"946 824 LINE",
"998 656 LINE"
);
}
);
};
color = -1;
components = (
{
name = A;
},
{
name = ringcomb_acutecomb.case;
transform = "{1, 0, 0, 1, 278, 0}";
}
);
layerId = "1E90A949-97C4-49F5-AA9A-AF35B6FD63CF";
width = 1760;
}
);
leftKerningGroup = A;
rightKerningGroup = A;
unicode = 01FA;
},
{
glyphname = AE;
layers = (
{
anchors = (
{
name = bottom;
position = "{1050, 0}";
},
{
name = top;
position = "{930, 1520}";
}
);
background = {
anchors = (
{
name = bottom;
position = "{1044, 0}";
},
{
name = top;
position = "{924, 1520}";
}
);
paths = (
{
closed = 1;
nodes = (
"116 0 LINE",
"724 1414 LINE",
"910 1414 LINE",
"914 1480 LINE",
"682 1480 LINE",
"42 0 LINE"
);
},
{
closed = 1;
nodes = (
"1008 528 LINE",
"1008 594 LINE",
"346 594 LINE",
"326 528 LINE"
);
},
{
closed = 1;
nodes = (
"1850 0 LINE",
"1850 66 LINE",
"1076 66 LINE",
"960 1414 LINE",
"1840 1414 LINE",
"1840 1480 LINE",
"888 1480 LINE",
"1012 0 LINE"
);
},
{
closed = 1;
nodes = (
"1740 728 LINE",
"1740 794 LINE",
"1000 794 LINE",
"1000 728 LINE"
);
}
);
};
color = -1;
layerId = "E28BEEB5-BD92-4E7A-B4EA-FC5E5BBBF580";
paths = (
{
closed = 1;
nodes = (
"122 0 LINE",
"730 1414 LINE",
"916 1414 LINE",
"920 1480 LINE",
"688 1480 LINE",
"48 0 LINE"
);
},
{
closed = 1;
nodes = (
"1014 528 LINE",
"1014 594 LINE",
"352 594 LINE",
"332 528 LINE"
);
},
{
closed = 1;
nodes = (
"1856 0 LINE",
"1856 66 LINE",
"1082 66 LINE",
"966 1414 LINE",
"1846 1414 LINE",
"1846 1480 LINE",
"894 1480 LINE",
"1018 0 LINE"
);
},
{
closed = 1;
nodes = (
"1746 728 LINE",
"1746 794 LINE",
"1006 794 LINE",
"1006 728 LINE"
);
}
);
width = 1964;
},
{
anchors = (
{
name = bottom;
position = "{1236, 0}";
},
{
name = top;
position = "{1236, 1520}";
}
);
background = {
paths = (
{
closed = 1;
nodes = (
"474 0 LINE",
"842 1120 LINE",
"1200 1120 LINE",
"1200 1480 LINE",
"534 1480 LINE",
"14 0 LINE"
);
},
{
closed = 1;
nodes = (
"1192 334 LINE",
"1192 684 LINE",
"608 684 LINE",
"498 334 LINE"
);
},
{
closed = 1;
nodes = (
"2294 0 LINE",
"2294 354 LINE",
"1560 354 LINE",
"1482 1126 LINE",
"2284 1126 LINE",
"2284 1480 LINE",
"986 1480 LINE",
"1114 0 LINE"
);
},
{
closed = 1;
nodes = (
"2178 580 LINE",
"2178 930 LINE",
"1240 930 LINE",
"1240 580 LINE"
);
}
);
};
color = -1;
layerId = "1E90A949-97C4-49F5-AA9A-AF35B6FD63CF";
paths = (
{
closed = 1;
nodes = (
"476 0 LINE",
"846 1130 LINE",
"1202 1130 LINE",
"1202 1480 LINE",
"536 1480 LINE",
"16 0 LINE"
);
},
{
closed = 1;
nodes = (
"1194 334 LINE",
"1194 684 LINE",
"610 684 LINE",
"500 334 LINE"
);
},
{
closed = 1;
nodes = (
"2296 0 LINE",
"2296 350 LINE",
"1562 350 LINE",
"1484 1130 LINE",
"2286 1130 LINE",
"2286 1480 LINE",
"988 1480 LINE",
"1116 0 LINE"
);
},
{
closed = 1;
nodes = (
"2180 580 LINE",
"2180 930 LINE",
"1242 930 LINE",
"1242 580 LINE"
);
}
);
width = 2382;
}
);
leftKerningGroup = A;
rightKerningGroup = E;
unicode = 00C6;
},
{
glyphname = B;
layers = (
{
anchors = (
{
name = bottom;
position = "{684, 0}";
},
{
name = top;
position = "{684, 1480}";
}
);
background = {
paths = (
{
closed = 1;
nodes = (
"278 0 LINE",
"278 532 LINE",
"378 522 OFFCURVE",
"454 518 OFFCURVE",
"550 518 CURVE SMOOTH",
"1012 518 OFFCURVE",
"1202 696 OFFCURVE",
"1202 1010 CURVE SMOOTH",
"1202 1346 OFFCURVE",
"988 1494 OFFCURVE",
"604 1494 CURVE SMOOTH",
"462 1494 OFFCURVE",
"350 1482 OFFCURVE",
"210 1454 CURVE",
"210 0 LINE"
);
},
{
closed = 1;
nodes = (
"446 584 OFFCURVE",
"364 590 OFFCURVE",
"278 602 CURVE",
"278 1400 LINE",
"374 1418 OFFCURVE",
"476 1428 OFFCURVE",
"604 1428 CURVE SMOOTH",
"952 1428 OFFCURVE",
"1130 1300 OFFCURVE",
"1130 1008 CURVE SMOOTH",
"1130 730 OFFCURVE",
"970 584 OFFCURVE",
"550 584 CURVE SMOOTH"
);
}
);
};
color = -1;
layerId = "E28BEEB5-BD92-4E7A-B4EA-FC5E5BBBF580";
paths = (
{
closed = 1;
nodes = (
"1072 -10 OFFCURVE",
"1250 132 OFFCURVE",
"1250 400 CURVE SMOOTH",
"1250 598 OFFCURVE",
"1142 744 OFFCURVE",
"872 770 CURVE",
"866 754 LINE",
"1110 786 OFFCURVE",
"1206 920 OFFCURVE",
"1206 1106 CURVE SMOOTH",
"1206 1364 OFFCURVE",
"1038 1494 OFFCURVE",
"638 1494 CURVE SMOOTH",
"468 1494 OFFCURVE",
"356 1482 OFFCURVE",
"216 1454 CURVE",
"216 16 LINE",
"370 -4 OFFCURVE",
"468 -10 OFFCURVE",
"602 -10 CURVE SMOOTH"
);
},
{
closed = 1;
nodes = (
"474 56 OFFCURVE",
"382 62 OFFCURVE",
"284 78 CURVE",
"284 1400 LINE",
"380 1418 OFFCURVE",
"482 1428 OFFCURVE",
"640 1428 CURVE SMOOTH",
"994 1428 OFFCURVE",
"1138 1336 OFFCURVE",
"1138 1106 CURVE SMOOTH",
"1138 886 OFFCURVE",
"992 794 OFFCURVE",
"700 794 CURVE SMOOTH",
"268 794 LINE",
"268 728 LINE",
"714 728 LINE SMOOTH",
"1028 728 OFFCURVE",
"1180 630 OFFCURVE",
"1180 404 CURVE SMOOTH",
"1180 174 OFFCURVE",
"1048 56 OFFCURVE",
"604 56 CURVE SMOOTH"
);
}
);
width = 1342;
},
{
anchors = (
{
name = bottom;
position = "{794, 0}";
},
{
name = top;
position = "{794, 1480}";
}
);
background = {
paths = (
{
closed = 1;
nodes = (
"1268 -20 OFFCURVE",
"1466 156 OFFCURVE",
"1466 430 CURVE SMOOTH",
"1466 636 OFFCURVE",
"1338 742 OFFCURVE",
"1178 768 CURVE",
"1178 756 LINE",
"1320 788 OFFCURVE",
"1428 910 OFFCURVE",
"1428 1070 CURVE SMOOTH",
"1428 1344 OFFCURVE",
"1222 1500 OFFCURVE",
"706 1500 CURVE SMOOTH",
"524 1500 OFFCURVE",
"286 1470 OFFCURVE",
"128 1432 CURVE",
"128 12 LINE",
"266 -6 OFFCURVE",
"486 -20 OFFCURVE",
"620 -20 CURVE SMOOTH"
);
},
{
closed = 1;
nodes = (
"702 304 OFFCURVE",
"654 304 OFFCURVE",
"594 310 CURVE",
"594 1158 LINE",
"642 1168 OFFCURVE",
"704 1176 OFFCURVE",
"760 1176 CURVE SMOOTH",
"928 1176 OFFCURVE",
"982 1132 OFFCURVE",
"982 1048 CURVE SMOOTH",
"982 968 OFFCURVE",
"930 920 OFFCURVE",
"778 920 CURVE SMOOTH",
"542 920 LINE",
"542 590 LINE",
"818 590 LINE SMOOTH",
"984 590 OFFCURVE",
"1034 544 OFFCURVE",
"1034 446 CURVE SMOOTH",
"1034 356 OFFCURVE",
"976 304 OFFCURVE",
"752 304 CURVE SMOOTH"
);
}
);
};
color = -1;
layerId = "1E90A949-97C4-49F5-AA9A-AF35B6FD63CF";
paths = (
{
closed = 1;
nodes = (
"1270 -20 OFFCURVE",
"1468 156 OFFCURVE",
"1468 430 CURVE SMOOTH",
"1468 636 OFFCURVE",
"1340 742 OFFCURVE",
"1180 768 CURVE",
"1180 756 LINE",
"1322 788 OFFCURVE",
"1430 910 OFFCURVE",
"1430 1070 CURVE SMOOTH",
"1430 1344 OFFCURVE",
"1224 1500 OFFCURVE",
"708 1500 CURVE SMOOTH",
"526 1500 OFFCURVE",
"288 1470 OFFCURVE",
"130 1432 CURVE",
"130 12 LINE",
"268 -6 OFFCURVE",
"488 -20 OFFCURVE",
"622 -20 CURVE SMOOTH"
);
},
{
closed = 1;
nodes = (
"704 300 OFFCURVE",
"656 300 OFFCURVE",
"594 306 CURVE",
"594 1162 LINE",
"644 1172 OFFCURVE",
"706 1180 OFFCURVE",
"762 1180 CURVE SMOOTH",
"934 1180 OFFCURVE",
"988 1136 OFFCURVE",
"988 1050 CURVE SMOOTH",
"988 966 OFFCURVE",
"936 918 OFFCURVE",
"780 918 CURVE SMOOTH",
"542 918 LINE",
"542 592 LINE",
"820 592 LINE SMOOTH",
"990 592 OFFCURVE",
"1040 546 OFFCURVE",
"1040 444 CURVE SMOOTH",
"1040 352 OFFCURVE",
"982 300 OFFCURVE",
"754 300 CURVE SMOOTH"
);
}
);
width = 1522;
}
);
leftKerningGroup = H;
rightKerningGroup = B;
unicode = 0042;
userData = {
com.typemytype.robofont.layerData = {
};
};
},
{
glyphname = C;
layers = (
{
anchors = (
{
name = bottom;
position = "{780, 0}";
},
{
name = top;
position = "{760, 1520}";
}
);
background = {
paths = (
{
closed = 1;
nodes = (
"964 -18 OFFCURVE",
"1088 2 OFFCURVE",
"1212 48 CURVE",
"1212 116 LINE",
"1064 64 OFFCURVE",
"952 48 OFFCURVE",
"820 48 CURVE SMOOTH",
"454 48 OFFCURVE",
"204 218 OFFCURVE",
"204 742 CURVE SMOOTH",
"204 1238 OFFCURVE",
"442 1432 OFFCURVE",
"834 1432 CURVE SMOOTH",
"964 1432 OFFCURVE",
"1092 1412 OFFCURVE",
"1212 1376 CURVE",
"1212 1444 LINE",
"1090 1480 OFFCURVE",
"978 1498 OFFCURVE",
"836 1498 CURVE SMOOTH",
"404 1498 OFFCURVE",
"132 1264 OFFCURVE",
"132 738 CURVE SMOOTH",
"132 182 OFFCURVE",
"418 -18 OFFCURVE",
"818 -18 CURVE SMOOTH"
);
}
);
};
color = -1;
layerId = "E28BEEB5-BD92-4E7A-B4EA-FC5E5BBBF580";
paths = (
{
closed = 1;
nodes = (
"970 -18 OFFCURVE",
"1094 2 OFFCURVE",
"1218 48 CURVE",
"1218 116 LINE",
"1070 64 OFFCURVE",
"958 48 OFFCURVE",
"826 48 CURVE SMOOTH",
"460 48 OFFCURVE",
"210 218 OFFCURVE",
"210 742 CURVE SMOOTH",
"210 1238 OFFCURVE",
"448 1432 OFFCURVE",
"840 1432 CURVE SMOOTH",
"970 1432 OFFCURVE",
"1098 1412 OFFCURVE",
"1218 1376 CURVE",
"1218 1444 LINE",
"1096 1480 OFFCURVE",
"984 1498 OFFCURVE",
"842 1498 CURVE SMOOTH",
"416 1498 OFFCURVE",
"138 1272 OFFCURVE",
"138 738 CURVE SMOOTH",
"138 176 OFFCURVE",
"430 -18 OFFCURVE",
"824 -18 CURVE SMOOTH"
);
}
);
width = 1272;
},
{
anchors = (
{
name = bottom;
position = "{880, 0}";
},
{
name = top;
position = "{880, 1520}";
}
);
background = {
paths = (
{
closed = 1;
nodes = (
"1174 -20 OFFCURVE",
"1306 -4 OFFCURVE",
"1414 20 CURVE",
"1414 396 LINE",
"1316 376 OFFCURVE",
"1200 360 OFFCURVE",
"1076 360 CURVE SMOOTH",
"722 360 OFFCURVE",
"578 496 OFFCURVE",
"578 740 CURVE SMOOTH",
"578 984 OFFCURVE",
"722 1120 OFFCURVE",
"1096 1120 CURVE SMOOTH",
"1212 1120 OFFCURVE",
"1316 1110 OFFCURVE",
"1414 1092 CURVE",
"1414 1468 LINE",
"1300 1490 OFFCURVE",
"1182 1500 OFFCURVE",
"1056 1500 CURVE SMOOTH",
"412 1500 OFFCURVE",
"82 1202 OFFCURVE",
"82 736 CURVE SMOOTH",
"82 242 OFFCURVE",
"406 -20 OFFCURVE",
"1046 -20 CURVE SMOOTH"
);
}
);
};
color = -1;
layerId = "1E90A949-97C4-49F5-AA9A-AF35B6FD63CF";
paths = (
{
closed = 1;
nodes = (
"1176 -20 OFFCURVE",
"1308 -4 OFFCURVE",
"1416 20 CURVE",
"1416 396 LINE",
"1318 376 OFFCURVE",
"1202 360 OFFCURVE",
"1078 360 CURVE SMOOTH",
"728 360 OFFCURVE",
"582 496 OFFCURVE",
"582 740 CURVE SMOOTH",
"582 984 OFFCURVE",
"728 1120 OFFCURVE",
"1098 1120 CURVE SMOOTH",
"1214 1120 OFFCURVE",
"1318 1110 OFFCURVE",
"1416 1092 CURVE",
"1416 1468 LINE",
"1302 1490 OFFCURVE",
"1184 1500 OFFCURVE",
"1058 1500 CURVE SMOOTH",
"414 1500 OFFCURVE",
"84 1202 OFFCURVE",
"84 736 CURVE SMOOTH",
"84 242 OFFCURVE",
"408 -20 OFFCURVE",
"1048 -20 CURVE SMOOTH"
);
}
);
width = 1488;
}
);
leftKerningGroup = O;
rightKerningGroup = C;
unicode = 0043;
userData = {
com.typemytype.robofont.layerData = {
};
};
},
{
glyphname = D;
layers = (
{
anchors = (
{
name = bottom;
position = "{706, 0}";
},
{
name = center;
position = "{764, 740}";
},
{
name = stroke;
position = "{216, 762}";
},
{
name = top;
position = "{706, 1520}";
}
);
background = {
paths = (
{
closed = 1;
nodes = (
"1118 -10 OFFCURVE",
"1386 238 OFFCURVE",
"1386 740 CURVE SMOOTH",
"1386 1242 OFFCURVE",
"1118 1494 OFFCURVE",
"610 1494 CURVE SMOOTH",
"488 1494 OFFCURVE",
"350 1482 OFFCURVE",
"210 1454 CURVE",
"210 16 LINE",
"364 -4 OFFCURVE",
"462 -10 OFFCURVE",
"596 -10 CURVE SMOOTH"
);
},
{
closed = 1;
nodes = (
"458 56 OFFCURVE",
"364 64 OFFCURVE",
"278 78 CURVE",
"278 1398 LINE",
"396 1418 OFFCURVE",
"500 1428 OFFCURVE",
"604 1428 CURVE SMOOTH",
"1074 1428 OFFCURVE",
"1314 1208 OFFCURVE",
"1314 740 CURVE SMOOTH",
"1314 272 OFFCURVE",
"1074 56 OFFCURVE",
"598 56 CURVE SMOOTH"
);
}
);
};
color = -1;
layerId = "E28BEEB5-BD92-4E7A-B4EA-FC5E5BBBF580";
paths = (
{
closed = 1;
nodes = (
"1124 -10 OFFCURVE",
"1392 238 OFFCURVE",
"1392 740 CURVE SMOOTH",
"1392 1242 OFFCURVE",
"1124 1494 OFFCURVE",
"616 1494 CURVE SMOOTH",
"494 1494 OFFCURVE",
"350 1482 OFFCURVE",
"216 1454 CURVE",
"216 16 LINE",
"370 -4 OFFCURVE",
"468 -10 OFFCURVE",
"602 -10 CURVE SMOOTH"
);
},
{
closed = 1;
nodes = (
"464 56 OFFCURVE",
"370 64 OFFCURVE",
"284 78 CURVE",
"284 1400 LINE",
"402 1418 OFFCURVE",
"506 1428 OFFCURVE",
"610 1428 CURVE SMOOTH",
"1080 1428 OFFCURVE",
"1320 1208 OFFCURVE",
"1320 740 CURVE SMOOTH",
"1320 272 OFFCURVE",
"1080 56 OFFCURVE",
"604 56 CURVE SMOOTH"
);
}
);
width = 1530;
},
{
anchors = (
{
name = bottom;
position = "{794, 0}";
},
{
name = center;
position = "{886, 740}";
},
{
name = stroke;
position = "{130, 762}";
},
{
name = top;
position = "{774, 1520}";
}
);
background = {
paths = (
{
closed = 1;
nodes = (
"1360 -14 OFFCURVE",
"1714 198 OFFCURVE",
"1714 740 CURVE SMOOTH",
"1714 1258 OFFCURVE",
"1378 1494 OFFCURVE",
"738 1494 CURVE SMOOTH",
"538 1494 OFFCURVE",
"290 1470 OFFCURVE",
"128 1432 CURVE",
"128 14 LINE",
"288 -6 OFFCURVE",
"492 -14 OFFCURVE",
"630 -14 CURVE SMOOTH"
);
},
{
closed = 1;
nodes = (
"702 356 OFFCURVE",
"652 356 OFFCURVE",
"604 360 CURVE",
"604 1112 LINE",
"648 1120 OFFCURVE",
"714 1126 OFFCURVE",
"760 1126 CURVE SMOOTH",
"1080 1126 OFFCURVE",
"1234 1010 OFFCURVE",
"1234 744 CURVE SMOOTH",
"1234 470 OFFCURVE",
"1090 356 OFFCURVE",
"760 356 CURVE SMOOTH"
);
}
);
};
color = -1;
layerId = "1E90A949-97C4-49F5-AA9A-AF35B6FD63CF";
paths = (
{
closed = 1;
nodes = (
"1362 -14 OFFCURVE",
"1716 198 OFFCURVE",
"1716 740 CURVE SMOOTH",
"1716 1258 OFFCURVE",
"1380 1494 OFFCURVE",
"740 1494 CURVE SMOOTH",
"540 1494 OFFCURVE",
"292 1470 OFFCURVE",
"130 1432 CURVE",
"130 14 LINE",
"290 -6 OFFCURVE",
"494 -14 OFFCURVE",
"632 -14 CURVE SMOOTH"
);
},
{
closed = 1;
nodes = (
"704 356 OFFCURVE",
"654 356 OFFCURVE",
"606 360 CURVE",
"606 1112 LINE",
"650 1120 OFFCURVE",
"716 1126 OFFCURVE",
"762 1126 CURVE SMOOTH",
"1082 1126 OFFCURVE",
"1232 1010 OFFCURVE",
"1232 744 CURVE SMOOTH",
"1232 470 OFFCURVE",
"1092 356 OFFCURVE",
"762 356 CURVE SMOOTH"
);
}
);
width = 1800;
}
);
leftKerningGroup = H;
rightKerningGroup = O;
unicode = 0044;
userData = {
com.typemytype.robofont.layerData = {
};
};
},
{
glyphname = Eth;
layers = (
{
background = {
components = (
{
name = D;
},
{
name = strokeshortcomb.h;
transform = "{1, 0, 0, 1, -192, -158}";
}
);
};
color = -1;
components = (
{
alignment = 1;
name = D;
},
{
name = strokeshortcomb.D;
transform = "{1, 0, 0, 1, -224, -318}";
}
);
layerId = "E28BEEB5-BD92-4E7A-B4EA-FC5E5BBBF580";
width = 1530;
},
{
background = {
components = (
{
name = D;
transform = "{1, 0, 0, 1, 10, 0}";
}
);
paths = (
{
closed = 1;
nodes = (
"-26 576 LINE",
"816 576 LINE",
"816 924 LINE",
"-26 924 LINE"
);
}
);
};
color = -1;
components = (
{
alignment = 1;
name = D;
},
{
name = strokeshortcomb.D;
transform = "{1, 0, 0, 1, -198, -338}";
}
);
layerId = "1E90A949-97C4-49F5-AA9A-AF35B6FD63CF";
width = 1800;
}
);
leftKerningGroup = H;
rightKerningGroup = O;
unicode = 00D0;
},
{
glyphname = Dcroat;
layers = (
{
background = {
components = (
{
name = Eth;
}
);
};
color = -1;
components = (
{
name = Eth;
}
);
layerId = "E28BEEB5-BD92-4E7A-B4EA-FC5E5BBBF580";
width = 1530;
},
{
background = {
components = (
{
name = D;
transform = "{1, 0, 0, 1, 28, 0}";
}
);
paths = (
{
closed = 1;
nodes = (
"10 576 LINE",
"852 576 LINE",
"852 924 LINE",
"10 924 LINE"
);
}
);
};
color = -1;
components = (
{
name = Eth;
}
);
layerId = "1E90A949-97C4-49F5-AA9A-AF35B6FD63CF";
width = 1800;
}
);
leftKerningGroup = H;
rightKerningGroup = O;
unicode = 0110;
},
{
glyphname = E;
layers = (
{
anchors = (
{
name = bottom;
position = "{716, 0}";
},
{
name = ogonek;
position = "{1176, 0}";
},
{
name = top;
position = "{712, 1520}";
},
{
name = topleft;
position = "{46, 1480}";
}
);
background = {
anchors = (
{
name = bottom;
position = "{690, 0}";
},
{
name = ogonek;
position = "{1090, 0}";
},
{
name = top;
position = "{686, 1520}";
},
{
name = topleft;
position = "{40, 1480}";
}
);
paths = (
{
closed = 1;
nodes = (
"278 0 LINE",
"278 728 LINE",
"1286 728 LINE",
"1286 0 LINE",
"1354 0 LINE",
"1354 1480 LINE",
"1286 1480 LINE",
"1286 794 LINE",
"278 794 LINE",
"278 1480 LINE",
"210 1480 LINE",
"210 0 LINE"
);
}
);
};
color = -1;
layerId = "E28BEEB5-BD92-4E7A-B4EA-FC5E5BBBF580";
paths = (
{
closed = 1;
nodes = (
"1176 0 LINE",
"1176 66 LINE",
"284 66 LINE",
"284 1414 LINE",
"1166 1414 LINE",
"1166 1480 LINE",
"216 1480 LINE",
"216 0 LINE"
);
},
{
closed = 1;
nodes = (
"1066 728 LINE",
"1066 794 LINE",
"256 794 LINE",
"256 728 LINE"
);
}
);
width = 1284;
},
{
anchors = (
{
name = bottom;
position = "{788, 0}";
},
{
name = ogonek;
position = "{1412, 0}";
},
{
name = top;
position = "{788, 1520}";
},
{
name = topleft;
position = "{40, 1480}";
}
);
background = {
paths = (
{
closed = 1;
nodes = (
"1410 0 LINE",
"1410 354 LINE",
"598 354 LINE",
"598 1126 LINE",
"1400 1126 LINE",
"1400 1480 LINE",
"128 1480 LINE",
"128 0 LINE"
);
},
{
closed = 1;
nodes = (
"1294 580 LINE",
"1294 930 LINE",
"356 930 LINE",
"356 580 LINE"
);
}
);
};
color = -1;
layerId = "1E90A949-97C4-49F5-AA9A-AF35B6FD63CF";
paths = (
{
closed = 1;
nodes = (
"1412 0 LINE",
"1412 350 LINE",
"600 350 LINE",
"600 1130 LINE",
"1402 1130 LINE",
"1402 1480 LINE",
"130 1480 LINE",
"130 0 LINE"
);
},
{
closed = 1;
nodes = (
"1296 580 LINE",
"1296 930 LINE",
"358 930 LINE",
"358 580 LINE"
);
}
);
width = 1498;
}
);
leftKerningGroup = H;
rightKerningGroup = E;
unicode = 0045;
userData = {
com.typemytype.robofont.layerData = {
};
};
},
{
glyphname = F;
layers = (
{
background = {
anchors = (
{
name = bottom;
position = "{606, 0}";
},
{
name = top;
position = "{606, 1480}";
}
);
paths = (
{
closed = 1;
nodes = (
"278 0 LINE",
"278 1414 LINE",
"1150 1414 LINE",
"1150 1480 LINE",
"210 1480 LINE",
"210 0 LINE"
);
},
{
closed = 1;
nodes = (
"1050 728 LINE",
"1050 794 LINE",
"270 794 LINE",
"270 728 LINE"
);
}
);
};
color = -1;
layerId = "E28BEEB5-BD92-4E7A-B4EA-FC5E5BBBF580";
paths = (
{
closed = 1;
nodes = (
"284 0 LINE",
"284 1414 LINE",
"1156 1414 LINE",
"1156 1480 LINE",
"216 1480 LINE",
"216 0 LINE"
);
},
{
closed = 1;
nodes = (
"1056 728 LINE",
"1056 794 LINE",
"276 794 LINE",
"276 728 LINE"
);
}
);
width = 1238;
},
{
background = {
paths = (
{
closed = 1;
nodes = (
"604 0 LINE",
"604 1112 LINE",
"1400 1112 LINE",
"1400 1480 LINE",
"128 1480 LINE",
"128 0 LINE"
);
},
{
closed = 1;
nodes = (
"1288 522 LINE",
"1288 890 LINE",
"388 890 LINE",
"388 522 LINE"
);
}
);
};
color = -1;
layerId = "1E90A949-97C4-49F5-AA9A-AF35B6FD63CF";
paths = (
{
closed = 1;
nodes = (
"606 0 LINE",
"606 1120 LINE",
"1402 1120 LINE",
"1402 1480 LINE",
"130 1480 LINE",
"130 0 LINE"
);
},
{
closed = 1;
nodes = (
"1290 526 LINE",
"1290 886 LINE",
"390 886 LINE",
"390 526 LINE"
);
}
);
width = 1474;
}
);
leftKerningGroup = H;
rightKerningGroup = F;
unicode = 0046;
userData = {
com.typemytype.robofont.layerData = {
};
};
},
{
glyphname = G;
layers = (
{
anchors = (
{
name = bottom;
position = "{800, 0}";
},
{
name = top;
position = "{800, 1520}";
}
);
background = {
paths = (
{
closed = 1;
nodes = (
"1040 -10 OFFCURVE",
"1138 -4 OFFCURVE",
"1288 20 CURVE",
"1288 718 LINE",
"1220 718 LINE",
"1220 80 LINE",
"1138 64 OFFCURVE",
"1044 56 OFFCURVE",
"916 56 CURVE SMOOTH",
"450 56 OFFCURVE",
"206 278 OFFCURVE",
"204 742 CURVE SMOOTH",
"202 1238 OFFCURVE",
"490 1432 OFFCURVE",
"868 1432 CURVE SMOOTH",
"976 1432 OFFCURVE",
"1090 1420 OFFCURVE",
"1248 1376 CURVE",
"1248 1444 LINE",
"1110 1480 OFFCURVE",
"996 1498 OFFCURVE",
"864 1498 CURVE SMOOTH",
"452 1498 OFFCURVE",
"130 1274 OFFCURVE",
"132 738 CURVE SMOOTH",
"134 238 OFFCURVE",
"406 -10 OFFCURVE",
"916 -10 CURVE SMOOTH"
);
}
);
};
color = -1;
layerId = "E28BEEB5-BD92-4E7A-B4EA-FC5E5BBBF580";
paths = (
{
closed = 1;
nodes = (
"1046 -10 OFFCURVE",
"1144 -4 OFFCURVE",
"1294 20 CURVE",
"1294 720 LINE",
"1226 720 LINE",
"1226 50 LINE",
"1248 84 LINE",
"1158 66 OFFCURVE",
"1058 56 OFFCURVE",
"922 56 CURVE SMOOTH",
"456 56 OFFCURVE",
"210 278 OFFCURVE",
"210 742 CURVE SMOOTH",
"210 1238 OFFCURVE",
"496 1432 OFFCURVE",
"874 1432 CURVE SMOOTH",
"982 1432 OFFCURVE",
"1096 1420 OFFCURVE",
"1254 1376 CURVE",
"1254 1444 LINE",
"1116 1480 OFFCURVE",
"1002 1498 OFFCURVE",
"870 1498 CURVE SMOOTH",
"458 1498 OFFCURVE",
"138 1274 OFFCURVE",
"138 738 CURVE SMOOTH",
"138 238 OFFCURVE",
"412 -10 OFFCURVE",
"922 -10 CURVE SMOOTH"
);
}
);
width = 1496;
},
{
anchors = (
{
name = bottom;
position = "{940, 0}";
},
{
name = top;
position = "{940, 1520}";
}
);
background = {
paths = (
{
closed = 1;
nodes = (
"1246 -20 OFFCURVE",
"1392 -4 OFFCURVE",
"1538 20 CURVE",
"1538 720 LINE",
"1096 720 LINE",
"1096 154 LINE",
"1354 376 LINE",
"1268 364 OFFCURVE",
"1158 356 OFFCURVE",
"1066 356 CURVE SMOOTH",
"720 356 OFFCURVE",
"574 496 OFFCURVE",
"574 724 CURVE SMOOTH",
"574 982 OFFCURVE",
"726 1118 OFFCURVE",
"1154 1120 CURVE SMOOTH",
"1268 1120 OFFCURVE",
"1382 1110 OFFCURVE",
"1480 1092 CURVE",
"1480 1468 LINE",
"1364 1490 OFFCURVE",
"1228 1500 OFFCURVE",
"1118 1500 CURVE SMOOTH",
"416 1500 OFFCURVE",
"82 1202 OFFCURVE",
"82 732 CURVE SMOOTH",
"82 242 OFFCURVE",
"406 -20 OFFCURVE",
"1094 -20 CURVE SMOOTH"
);
}
);
};
color = -1;
layerId = "1E90A949-97C4-49F5-AA9A-AF35B6FD63CF";
paths = (
{
closed = 1;
nodes = (
"1248 -20 OFFCURVE",
"1394 -4 OFFCURVE",
"1540 20 CURVE",
"1540 720 LINE",
"1098 720 LINE",
"1098 154 LINE",
"1356 376 LINE",
"1270 364 OFFCURVE",
"1160 356 OFFCURVE",
"1068 356 CURVE SMOOTH",
"724 356 OFFCURVE",
"578 496 OFFCURVE",
"578 724 CURVE SMOOTH",
"578 982 OFFCURVE",
"730 1120 OFFCURVE",
"1156 1120 CURVE SMOOTH",
"1270 1120 OFFCURVE",
"1384 1110 OFFCURVE",
"1482 1092 CURVE",
"1482 1468 LINE",
"1366 1490 OFFCURVE",
"1230 1500 OFFCURVE",
"1120 1500 CURVE SMOOTH",
"418 1500 OFFCURVE",
"84 1202 OFFCURVE",
"84 732 CURVE SMOOTH",
"84 242 OFFCURVE",
"408 -20 OFFCURVE",
"1096 -20 CURVE SMOOTH"
);
}
);
width = 1678;
}
);
leftKerningGroup = O;
rightKerningGroup = G;
unicode = 0047;
userData = {
com.typemytype.robofont.layerData = {
};
};
},
{
glyphname = H;
layers = (
{
anchors = (
{
name = bottom;
position = "{788, 0}";
},
{
name = center;
position = "{788, 1140}";
},
{
name = top;
position = "{788, 1520}";
},
{
name = topleft;
position = "{46, 1480}";
}
);
background = {
paths = (
{
closed = 1;
nodes = (
"1118 -10 OFFCURVE",
"1386 238 OFFCURVE",
"1386 740 CURVE SMOOTH",
"1386 1242 OFFCURVE",
"1118 1494 OFFCURVE",
"610 1494 CURVE SMOOTH",
"488 1494 OFFCURVE",
"350 1482 OFFCURVE",
"210 1454 CURVE",
"210 16 LINE",
"364 -4 OFFCURVE",
"462 -10 OFFCURVE",
"596 -10 CURVE SMOOTH"
);
},
{
closed = 1;
nodes = (
"458 56 OFFCURVE",
"364 64 OFFCURVE",
"278 78 CURVE",
"278 1398 LINE",
"396 1418 OFFCURVE",
"500 1428 OFFCURVE",
"604 1428 CURVE SMOOTH",
"1074 1428 OFFCURVE",
"1314 1208 OFFCURVE",
"1314 740 CURVE SMOOTH",
"1314 272 OFFCURVE",
"1074 56 OFFCURVE",
"598 56 CURVE SMOOTH"
);
}
);
};
color = -1;
layerId = "E28BEEB5-BD92-4E7A-B4EA-FC5E5BBBF580";
paths = (
{
closed = 1;
nodes = (
"284 0 LINE",
"284 728 LINE",
"1292 728 LINE",
"1292 0 LINE",
"1360 0 LINE",
"1360 1480 LINE",
"1292 1480 LINE",
"1292 794 LINE",
"284 794 LINE",
"284 1480 LINE",
"216 1480 LINE",
"216 0 LINE"
);
}
);
width = 1576;
},
{
anchors = (
{
name = bottom;
position = "{898, 0}";
},
{
name = center;
position = "{898, 1222}";
},
{
name = top;
position = "{898, 1520}";
},
{
name = topleft;
position = "{44, 1480}";
}
);
background = {
anchors = (
{
name = bottom;
position = "{892, -220}";
},
{
name = topUC;
position = "{892, 1770}";
}
);
paths = (
{
closed = 1;
nodes = (
"1360 -14 OFFCURVE",
"1712 198 OFFCURVE",
"1712 740 CURVE SMOOTH",
"1712 1258 OFFCURVE",
"1378 1494 OFFCURVE",
"734 1494 CURVE SMOOTH",
"564 1494 OFFCURVE",
"310 1470 OFFCURVE",
"128 1432 CURVE",
"128 14 LINE",
"288 -6 OFFCURVE",
"492 -14 OFFCURVE",
"630 -14 CURVE SMOOTH"
);
},
{
closed = 1;
nodes = (
"702 358 OFFCURVE",
"652 358 OFFCURVE",
"604 362 CURVE",
"604 1112 LINE",
"648 1118 OFFCURVE",
"714 1124 OFFCURVE",
"760 1124 CURVE SMOOTH",
"1080 1124 OFFCURVE",
"1234 1008 OFFCURVE",
"1234 744 CURVE SMOOTH",
"1234 472 OFFCURVE",
"1090 358 OFFCURVE",
"760 358 CURVE SMOOTH"
);
}
);
};
color = -1;
layerId = "1E90A949-97C4-49F5-AA9A-AF35B6FD63CF";
paths = (
{
closed = 1;
nodes = (
"606 0 LINE",
"606 554 LINE",
"1188 554 LINE",
"1188 0 LINE",
"1664 0 LINE",
"1664 1480 LINE",
"1188 1480 LINE",
"1188 956 LINE",
"606 956 LINE",
"606 1480 LINE",
"130 1480 LINE",
"130 0 LINE"
);
}
);
width = 1794;
}
);
leftKerningGroup = H;
rightKerningGroup = H;
unicode = 0048;
userData = {
com.typemytype.robofont.layerData = {
};
};
},
{
glyphname = Hbar;
layers = (
{
background = {
components = (
{
name = H;
},
{
name = strokelongcomb.case;
transform = "{1, 0, 0, 1, -20, 30}";
}
);
};
color = -1;
components = (
{
name = H;
},
{
name = strokelongcomb.case;
transform = "{1, 0, 0, 1, 0, 60}";
}
);
layerId = "E28BEEB5-BD92-4E7A-B4EA-FC5E5BBBF580";
width = 1576;
},
{
background = {
components = (
{
name = H;
transform = "{1, 0, 0, 1, 7, 0}";
}
);
paths = (
{
closed = 1;
nodes = (
"16 1068 LINE",
"1814 1068 LINE",
"1814 1274 LINE",
"16 1274 LINE"
);
}
);
};
color = -1;
components = (
{
name = H;
},
{
name = strokelongcomb.case;
transform = "{1, 0, 0, 1, 0, 50}";
}
);
layerId = "1E90A949-97C4-49F5-AA9A-AF35B6FD63CF";
width = 1794;
}
);
leftKerningGroup = H;
rightKerningGroup = H;
unicode = 0126;
},
{
glyphname = I;
layers = (
{
anchors = (
{
name = bottom;
position = "{250, 0}";
},
{
name = ogonek;
position = "{284, 0}";
},
{
name = top;
position = "{250, 1520}";
}
);
background = {
anchors = (
{
name = bottom;
position = "{244, 0}";
},
{
name = ogonek;
position = "{278, 0}";
},
{
name = top;
position = "{244, 1520}";
}
);
paths = (
{
closed = 1;
nodes = (
"278 0 LINE",
"278 1480 LINE",
"210 1480 LINE",
"210 0 LINE"
);
}
);
};
color = -1;
layerId = "E28BEEB5-BD92-4E7A-B4EA-FC5E5BBBF580";
paths = (
{
closed = 1;
nodes = (
"284 0 LINE",
"284 1480 LINE",
"216 1480 LINE",
"216 0 LINE"
);
}
);
width = 500;
},
{
anchors = (
{
name = bottom;
position = "{366, 0}";
},
{
name = ogonek;
position = "{606, 0}";
},
{
name = top;
position = "{368, 1520}";
}
);
background = {
anchors = (
{
name = bottom;
position = "{364, -220}";
},
{
name = ogonek;
position = "{364, 108}";
},
{
name = topUC;
position = "{374, 1770}";
}
);
paths = (
{
closed = 1;
nodes = (
"128 0 LINE",
"598 0 LINE",
"598 1480 LINE",
"128 1480 LINE"
);
}
);
};
color = -1;
layerId = "1E90A949-97C4-49F5-AA9A-AF35B6FD63CF";
paths = (
{
closed = 1;
nodes = (
"606 0 LINE",
"606 1480 LINE",
"130 1480 LINE",
"130 0 LINE"
);
}
);
width = 736;
}
);
leftKerningGroup = H;
rightKerningGroup = H;
unicode = 0049;
userData = {
com.typemytype.robofont.layerData = {
};
};
},
{
glyphname = J;
layers = (
{
anchors = (
{
name = bottom;
position = "{348, 0}";
},
{
name = top;
position = "{250, 1520}";
}
);
background = {
anchors = (
{
name = bottom;
position = "{342, 0}";
},
{
name = top;
position = "{244, 1520}";
}
);
paths = (
{
closed = 1;
nodes = (
"206 -148 OFFCURVE",
"264 22 OFFCURVE",
"278 250 CURVE",
"278 1480 LINE",
"210 1480 LINE",
"210 286 LINE SMOOTH",
"210 56 OFFCURVE",
"144 -128 OFFCURVE",
"-2 -304 CURVE",
"46 -340 LINE"
);
}
);
};
color = -1;
layerId = "E28BEEB5-BD92-4E7A-B4EA-FC5E5BBBF580";
paths = (
{
closed = 1;
nodes = (
"212 -148 OFFCURVE",
"270 22 OFFCURVE",
"284 250 CURVE",
"284 1480 LINE",
"216 1480 LINE",
"216 286 LINE SMOOTH",
"216 56 OFFCURVE",
"150 -128 OFFCURVE",
"4 -304 CURVE",
"52 -340 LINE"
);
}
);
width = 500;
},
{
anchors = (
{
name = bottom;
position = "{606, 0}";
},
{
name = top;
position = "{370, 1520}";
}
);
background = {
paths = (
{
closed = 1;
nodes = (
"522 -124 OFFCURVE",
"604 84 OFFCURVE",
"604 368 CURVE SMOOTH",
"604 1480 LINE",
"134 1480 LINE",
"134 404 LINE SMOOTH",
"134 128 OFFCURVE",
"98 -42 OFFCURVE",
"-16 -312 CURVE",
"282 -440 LINE"
);
}
);
};
color = -1;
layerId = "1E90A949-97C4-49F5-AA9A-AF35B6FD63CF";
paths = (
{
closed = 1;
nodes = (
"524 -140 OFFCURVE",
"606 68 OFFCURVE",
"606 318 CURVE SMOOTH",
"606 1480 LINE",
"134 1480 LINE",
"134 302 LINE SMOOTH",
"134 96 OFFCURVE",
"98 -30 OFFCURVE",
"-12 -162 CURVE",
"280 -358 LINE"
);
}
);
width = 736;
}
);
leftKerningGroup = H;
rightKerningGroup = H;
unicode = 004A;
userData = {
com.typemytype.robofont.layerData = {
};
};
},
{
glyphname = K;
layers = (
{
anchors = (
{
name = bottom;
position = "{676, 0}";
},
{
name = top;
position = "{676, 1480}";
}
);
background = {
paths = (
{
closed = 1;
nodes = (
"278 0 LINE",
"278 728 LINE",
"1286 728 LINE",
"1286 0 LINE",
"1354 0 LINE",
"1354 1480 LINE",
"1286 1480 LINE",
"1286 794 LINE",
"278 794 LINE",
"278 1480 LINE",
"210 1480 LINE",
"210 0 LINE"
);
}
);
};
color = -1;
layerId = "E28BEEB5-BD92-4E7A-B4EA-FC5E5BBBF580";
paths = (
{
closed = 1;
nodes = (
"1308 0 LINE",
"650 774 LINE",
"650 750 LINE",
"1266 1480 LINE",
"1180 1480 LINE",
"574 758 LINE",
"1220 0 LINE"
);
},
{
closed = 1;
nodes = (
"284 0 LINE",
"284 1480 LINE",
"216 1480 LINE",
"216 0 LINE"
);
},
{
closed = 1;
nodes = (
"620 728 LINE",
"620 794 LINE",
"268 794 LINE",
"268 728 LINE"
);
}
);
width = 1326;
},
{
anchors = (
{
name = bottom;
position = "{816, 0}";
},
{
name = top;
position = "{810, 1480}";
}
);
background = {
anchors = (
{
name = bottom;
position = "{814, -220}";
}
);
paths = (
{
closed = 1;
nodes = (
"604 0 LINE",
"604 554 LINE",
"1186 554 LINE",
"1186 0 LINE",
"1662 0 LINE",
"1662 1480 LINE",
"1186 1480 LINE",
"1186 956 LINE",
"604 956 LINE",
"604 1480 LINE",
"128 1480 LINE",
"128 0 LINE"
);
}
);
};
color = -1;
layerId = "1E90A949-97C4-49F5-AA9A-AF35B6FD63CF";
paths = (
{
closed = 1;
nodes = (
"1598 0 LINE",
"1038 812 LINE",
"1026 702 LINE",
"1548 1480 LINE",
"1050 1480 LINE",
"562 754 LINE",
"1082 0 LINE"
);
},
{
closed = 1;
nodes = (
"606 0 LINE",
"606 1480 LINE",
"130 1480 LINE",
"130 0 LINE"
);
},
{
closed = 1;
nodes = (
"752 554 LINE",
"752 956 LINE",
"542 956 LINE",
"542 554 LINE"
);
}
);
width = 1546;
}
);
leftKerningGroup = H;
rightKerningGroup = K;
unicode = 004B;
userData = {
com.typemytype.robofont.layerData = {
};
};
},
{
glyphname = L;
layers = (
{
anchors = (
{
name = bottom;
position = "{680, 0}";
},
{
name = caronalt;
position = "{754, 1616}";
},
{
name = periodcentered;
position = "{814, 774}";
},
{
name = slash;
position = "{250, 774}";
},
{
name = top;
position = "{250, 1520}";
}
);
background = {
anchors = (
{
name = bottom;
position = "{674, 0}";
},
{
name = caronalt;
position = "{728, 1480}";
},
{
name = periodcentered;
position = "{808, 774}";
},
{
name = slash;
position = "{244, 774}";
},
{
name = top;
position = "{244, 1520}";
}
);
paths = (
{
closed = 1;
nodes = (
"1170 0 LINE",
"1170 66 LINE",
"278 66 LINE",
"278 1414 LINE",
"1160 1414 LINE",
"1160 1480 LINE",
"210 1480 LINE",
"210 0 LINE"
);
},
{
closed = 1;
nodes = (
"1060 728 LINE",
"1060 794 LINE",
"250 794 LINE",
"250 728 LINE"
);
}
);
};
color = -1;
layerId = "E28BEEB5-BD92-4E7A-B4EA-FC5E5BBBF580";
paths = (
{
closed = 1;
nodes = (
"1142 0 LINE",
"1142 66 LINE",
"284 66 LINE",
"284 1480 LINE",
"216 1480 LINE",
"216 0 LINE"
);
}
);
width = 1164;
},
{
anchors = (
{
name = bottom;
position = "{740, 0}";
},
{
name = caronalt;
position = "{916, 1616}";
},
{
name = periodcentered;
position = "{1038, 930}";
},
{
name = slash;
position = "{368, 854}";
},
{
name = top;
position = "{368, 1520}";
}
);
background = {
paths = (
{
closed = 1;
nodes = (
"1370 0 LINE",
"1370 368 LINE",
"604 368 LINE",
"604 1480 LINE",
"128 1480 LINE",
"128 0 LINE"
);
}
);
};
color = -1;
layerId = "1E90A949-97C4-49F5-AA9A-AF35B6FD63CF";
paths = (
{
closed = 1;
nodes = (
"1350 0 LINE",
"1350 368 LINE",
"606 368 LINE",
"606 1480 LINE",
"130 1480 LINE",
"130 0 LINE"
);
}
);
width = 1362;
}
);
leftKerningGroup = H;
rightKerningGroup = L;
unicode = 004C;
userData = {
com.typemytype.robofont.layerData = {
};
};
},
{
glyphname = Lslash;
layers = (
{
background = {
components = (
{
name = L;
},
{
name = slashshortcomb.case;
transform = "{1, 0, 0, 1, -75, 0}";
}
);
};
color = -1;
components = (
{
name = L;
},
{
name = slashshortcomb.case;
transform = "{1, 0, 0, 1, -150, 0}";
}
);
layerId = "E28BEEB5-BD92-4E7A-B4EA-FC5E5BBBF580";
width = 1164;
},
{
background = {
components = (
{
name = L;
transform = "{1, 0, 0, 1, 18, 0}";
}
);
paths = (
{
closed = 1;
nodes = (
"22 452 LINE",
"898 824 LINE",
"898 1152 LINE",
"22 780 LINE"
);
}
);
};
color = -1;
components = (
{
name = L;
},
{
name = slashshortcomb.case;
transform = "{1, 0, 0, 1, -32, 80}";
}
);
layerId = "1E90A949-97C4-49F5-AA9A-AF35B6FD63CF";
width = 1362;
}
);
leftKerningGroup = H;
rightKerningGroup = L;
unicode = 0141;
},
{
glyphname = M;
layers = (
{
anchors = (
{
name = bottom;
position = "{934, 0}";
},
{
name = top;
position = "{934, 1480}";
}
);
background = {
anchors = (
{
name = bottom;
position = "{928, 0}";
},
{
name = top;
position = "{928, 1480}";
}
);
paths = (
{
closed = 1;
nodes = (
"280 0 LINE",
"280 1424 LINE",
"240 1424 LINE",
"890 200 LINE",
"966 200 LINE",
"1614 1424 LINE",
"1576 1424 LINE",
"1576 0 LINE",
"1642 0 LINE",
"1642 1480 LINE",
"1568 1480 LINE",
"914 232 LINE",
"946 232 LINE",
"288 1480 LINE",
"214 1480 LINE",
"214 0 LINE"
);
}
);
};
color = -1;
layerId = "E28BEEB5-BD92-4E7A-B4EA-FC5E5BBBF580";
paths = (
{
closed = 1;
nodes = (
"286 0 LINE",
"286 1424 LINE",
"246 1424 LINE",
"896 200 LINE",
"972 200 LINE",
"1620 1424 LINE",
"1582 1424 LINE",
"1582 0 LINE",
"1648 0 LINE",
"1648 1480 LINE",
"1574 1480 LINE",
"920 232 LINE",
"952 232 LINE",
"294 1480 LINE",
"220 1480 LINE",
"220 0 LINE"
);
}
);
width = 1868;
},
{
anchors = (
{
name = bottom;
position = "{1120, 0}";
},
{
name = top;
position = "{1120, 1480}";
}
);
background = {
paths = (
{
closed = 1;
nodes = (
"580 0 LINE",
"580 1086 LINE",
"462 1086 LINE",
"890 220 LINE",
"1282 220 LINE",
"1686 1086 LINE",
"1592 1086 LINE",
"1592 0 LINE",
"2040 0 LINE",
"2040 1480 LINE",
"1462 1480 LINE",
"1066 628 LINE",
"1120 628 LINE",
"710 1480 LINE",
"132 1480 LINE",
"132 0 LINE"
);
}
);
};
color = -1;
layerId = "1E90A949-97C4-49F5-AA9A-AF35B6FD63CF";
paths = (
{
closed = 1;
nodes = (
"578 0 LINE",
"578 1098 LINE",
"464 1098 LINE",
"892 220 LINE",
"1284 220 LINE",
"1688 1098 LINE",
"1598 1098 LINE",
"1598 0 LINE",
"2042 0 LINE",
"2042 1480 LINE",
"1464 1480 LINE",
"1068 614 LINE",
"1122 614 LINE",
"712 1480 LINE",
"134 1480 LINE",
"134 0 LINE"
);
}
);
width = 2176;
}
);
leftKerningGroup = H;
rightKerningGroup = H;
unicode = 004D;
userData = {
com.typemytype.robofont.layerData = {
};
};
},
{
glyphname = N;
layers = (
{
anchors = (
{
name = bottom;
position = "{804, 0}";
},
{
name = top;
position = "{804, 1520}";
}
);
background = {
anchors = (
{
name = bottom;
position = "{798, 0}";
},
{
name = top;
position = "{798, 1520}";
}
);
paths = (
{
closed = 1;
nodes = (
"276 0 LINE",
"276 1420 LINE",
"244 1420 LINE",
"1310 0 LINE",
"1384 0 LINE",
"1384 1480 LINE",
"1318 1480 LINE",
"1318 60 LINE",
"1350 60 LINE",
"284 1480 LINE",
"210 1480 LINE",
"210 0 LINE"
);
}
);
};
color = -1;
layerId = "E28BEEB5-BD92-4E7A-B4EA-FC5E5BBBF580";
paths = (
{
closed = 1;
nodes = (
"282 0 LINE",
"282 1420 LINE",
"252 1420 LINE",
"1316 0 LINE",
"1390 0 LINE",
"1390 1480 LINE",
"1324 1480 LINE",
"1324 60 LINE",
"1354 60 LINE",
"290 1480 LINE",
"216 1480 LINE",
"216 0 LINE"
);
}
);
width = 1606;
},
{
anchors = (
{
name = bottom;
position = "{902, 0}";
},
{
name = top;
position = "{902, 1520}";
}
);
background = {
paths = (
{
closed = 1;
nodes = (
"576 0 LINE",
"576 918 LINE",
"502 918 LINE",
"1196 0 LINE",
"1672 0 LINE",
"1672 1480 LINE",
"1224 1480 LINE",
"1224 562 LINE",
"1298 562 LINE",
"604 1480 LINE",
"128 1480 LINE",
"128 0 LINE"
);
}
);
};
color = -1;
layerId = "1E90A949-97C4-49F5-AA9A-AF35B6FD63CF";
paths = (
{
closed = 1;
nodes = (
"578 0 LINE",
"578 934 LINE",
"504 934 LINE",
"1198 0 LINE",
"1674 0 LINE",
"1674 1480 LINE",
"1226 1480 LINE",
"1226 546 LINE",
"1300 546 LINE",
"606 1480 LINE",
"130 1480 LINE",
"130 0 LINE"
);
}
);
width = 1804;
}
);
leftKerningGroup = H;
rightKerningGroup = H;
unicode = 004E;
userData = {
com.typemytype.robofont.layerData = {
};
};
},
{
glyphname = Eng;
layers = (
{
background = {
paths = (
{
closed = 1;
nodes = (
"1312 -268 OFFCURVE",
"1384 -78 OFFCURVE",
"1384 170 CURVE SMOOTH",
"1384 1080 LINE",
"1316 1080 LINE",
"1316 166 LINE SMOOTH",
"1316 -64 OFFCURVE",
"1250 -248 OFFCURVE",
"1104 -424 CURVE",
"1152 -460 LINE"
);
}
);
};
color = -1;
layerId = "E28BEEB5-BD92-4E7A-B4EA-FC5E5BBBF580";
paths = (
{
closed = 1;
nodes = (
"1364 50 LINE",
"290 1480 LINE",
"216 1480 LINE",
"216 0 LINE",
"282 0 LINE",
"282 1420 LINE",
"250 1420 LINE",
"1324 -10 LINE"
);
},
{
closed = 1;
nodes = (
"1318 -268 OFFCURVE",
"1390 -78 OFFCURVE",
"1390 170 CURVE SMOOTH",
"1390 1480 LINE",
"1324 1480 LINE",
"1324 166 LINE SMOOTH",
"1324 -64 OFFCURVE",
"1256 -248 OFFCURVE",
"1110 -424 CURVE",
"1158 -460 LINE"
);
}
);
width = 1606;
},
{
background = {
paths = (
{
closed = 1;
nodes = (
"1370 466 LINE",
"604 1480 LINE",
"128 1480 LINE",
"128 0 LINE",
"576 0 LINE",
"576 918 LINE",
"502 918 LINE",
"1276 -104 LINE"
);
},
{
closed = 1;
nodes = (
"1590 -258 OFFCURVE",
"1672 -54 OFFCURVE",
"1672 236 CURVE SMOOTH",
"1672 1480 LINE",
"1224 1480 LINE",
"1224 180 LINE SMOOTH",
"1224 -26 OFFCURVE",
"1172 -152 OFFCURVE",
"1062 -284 CURVE",
"1350 -476 LINE"
);
}
);
};
color = -1;
layerId = "1E90A949-97C4-49F5-AA9A-AF35B6FD63CF";
paths = (
{
closed = 1;
nodes = (
"1372 450 LINE",
"606 1480 LINE",
"130 1480 LINE",
"130 0 LINE",
"578 0 LINE",
"578 934 LINE",
"504 934 LINE",
"1278 -104 LINE"
);
},
{
closed = 1;
nodes = (
"1592 -258 OFFCURVE",
"1674 -54 OFFCURVE",
"1674 236 CURVE SMOOTH",
"1674 1480 LINE",
"1226 1480 LINE",
"1226 180 LINE SMOOTH",
"1226 -26 OFFCURVE",
"1174 -152 OFFCURVE",
"1064 -284 CURVE",
"1352 -476 LINE"
);
}
);
width = 1804;
}
);
leftKerningGroup = H;
rightKerningGroup = H;
unicode = 014A;
},
{
glyphname = O;
layers = (
{
anchors = (
{
name = bottom;
position = "{786, 0}";
},
{
name = center;
position = "{786, 740}";
},
{
name = ogonek;
position = "{966, 0}";
},
{
name = top;
position = "{786, 1520}";
},
{
name = topleft;
position = "{50, 1480}";
},
{
name = topright;
position = "{964, 1480}";
}
);
background = {
anchors = (
{
name = bottom;
position = "{780, 0}";
},
{
name = center;
position = "{780, 740}";
},
{
name = ogonek;
position = "{960, 0}";
},
{
name = top;
position = "{780, 1520}";
},
{
name = topleft;
position = "{44, 1480}";
},
{
name = topright;
position = "{958, 1480}";
}
);
paths = (
{
closed = 1;
nodes = (
"398 1498 OFFCURVE",
"132 1284 OFFCURVE",
"132 740 CURVE SMOOTH",
"132 196 OFFCURVE",
"404 -18 OFFCURVE",
"780 -18 CURVE SMOOTH",
"1156 -18 OFFCURVE",
"1428 208 OFFCURVE",
"1428 740 CURVE SMOOTH",
"1428 1272 OFFCURVE",
"1162 1498 OFFCURVE",
"780 1498 CURVE SMOOTH"
);
},
{
closed = 1;
nodes = (
"1120 1430 OFFCURVE",
"1356 1238 OFFCURVE",
"1356 736 CURVE SMOOTH",
"1356 242 OFFCURVE",
"1120 50 OFFCURVE",
"780 50 CURVE SMOOTH",
"440 50 OFFCURVE",
"204 242 OFFCURVE",
"204 744 CURVE SMOOTH",
"204 1238 OFFCURVE",
"440 1430 OFFCURVE",
"780 1430 CURVE SMOOTH"
);
}
);
};
color = -1;
layerId = "E28BEEB5-BD92-4E7A-B4EA-FC5E5BBBF580";
paths = (
{
closed = 1;
nodes = (
"1162 -18 OFFCURVE",
"1434 208 OFFCURVE",
"1434 740 CURVE SMOOTH",
"1434 1272 OFFCURVE",
"1168 1498 OFFCURVE",
"786 1498 CURVE SMOOTH",
"410 1498 OFFCURVE",
"138 1272 OFFCURVE",
"138 740 CURVE SMOOTH",
"138 208 OFFCURVE",
"404 -18 OFFCURVE",
"786 -18 CURVE SMOOTH"
);
},
{
closed = 1;
nodes = (
"446 50 OFFCURVE",
"210 242 OFFCURVE",
"210 744 CURVE SMOOTH",
"210 1238 OFFCURVE",
"446 1430 OFFCURVE",
"786 1430 CURVE SMOOTH",
"1126 1430 OFFCURVE",
"1362 1238 OFFCURVE",
"1362 736 CURVE SMOOTH",
"1362 242 OFFCURVE",
"1126 50 OFFCURVE",
"786 50 CURVE SMOOTH"
);
}
);
width = 1572;
},
{
anchors = (
{
name = bottom;
position = "{946, 0}";
},
{
name = center;
position = "{946, 740}";
},
{
name = ogonek;
position = "{1104, 0}";
},
{
name = top;
position = "{946, 1520}";
},
{
name = topleft;
position = "{60, 1480}";
},
{
name = topright;
position = "{1176, 1480}";
}
);
background = {
paths = (
{
closed = 1;
nodes = (
"1478 -20 OFFCURVE",
"1806 274 OFFCURVE",
"1806 740 CURVE SMOOTH",
"1806 1206 OFFCURVE",
"1480 1500 OFFCURVE",
"944 1500 CURVE SMOOTH",
"408 1500 OFFCURVE",
"82 1210 OFFCURVE",
"82 740 CURVE SMOOTH",
"82 270 OFFCURVE",
"410 -20 OFFCURVE",
"944 -20 CURVE SMOOTH"
);
},
{
closed = 1;
nodes = (
"694 348 OFFCURVE",
"562 480 OFFCURVE",
"562 748 CURVE SMOOTH",
"562 1000 OFFCURVE",
"700 1132 OFFCURVE",
"944 1132 CURVE SMOOTH",
"1188 1132 OFFCURVE",
"1326 994 OFFCURVE",
"1326 732 CURVE SMOOTH",
"1326 486 OFFCURVE",
"1194 348 OFFCURVE",
"944 348 CURVE SMOOTH"
);
}
);
};
color = -1;
layerId = "1E90A949-97C4-49F5-AA9A-AF35B6FD63CF";
paths = (
{
closed = 1;
nodes = (
"1480 -20 OFFCURVE",
"1808 274 OFFCURVE",
"1808 740 CURVE SMOOTH",
"1808 1206 OFFCURVE",
"1482 1500 OFFCURVE",
"946 1500 CURVE SMOOTH",
"410 1500 OFFCURVE",
"84 1210 OFFCURVE",
"84 740 CURVE SMOOTH",
"84 270 OFFCURVE",
"412 -20 OFFCURVE",
"946 -20 CURVE SMOOTH"
);
},
{
closed = 1;
nodes = (
"700 348 OFFCURVE",
"568 480 OFFCURVE",
"568 748 CURVE SMOOTH",
"568 1000 OFFCURVE",
"706 1132 OFFCURVE",
"946 1132 CURVE SMOOTH",
"1186 1132 OFFCURVE",
"1324 994 OFFCURVE",
"1324 732 CURVE SMOOTH",
"1324 486 OFFCURVE",
"1192 348 OFFCURVE",
"946 348 CURVE SMOOTH"
);
}
);
width = 1892;
}
);
leftKerningGroup = O;
rightKerningGroup = O;
unicode = 004F;
userData = {
com.typemytype.robofont.layerData = {
};
};
},
{
glyphname = Ohorn;
layers = (
{
anchors = (
{
name = bottom;
position = "{786, 0}";
},
{
name = top;
position = "{786, 1520}";
}
);
background = {
paths = (
{
closed = 1;
nodes = (
"1162 -18 OFFCURVE",
"1428 196 OFFCURVE",
"1428 740 CURVE SMOOTH",
"1428 1284 OFFCURVE",
"1156 1498 OFFCURVE",
"780 1498 CURVE SMOOTH",
"404 1498 OFFCURVE",
"132 1272 OFFCURVE",
"132 740 CURVE SMOOTH",
"132 208 OFFCURVE",
"398 -18 OFFCURVE",
"780 -18 CURVE SMOOTH"
);
},
{
closed = 1;
nodes = (
"440 50 OFFCURVE",
"204 242 OFFCURVE",
"204 744 CURVE SMOOTH",
"204 1238 OFFCURVE",
"440 1430 OFFCURVE",
"780 1430 CURVE SMOOTH",
"1120 1430 OFFCURVE",
"1356 1238 OFFCURVE",
"1356 736 CURVE SMOOTH",
"1356 242 OFFCURVE",
"1120 50 OFFCURVE",
"780 50 CURVE SMOOTH"
);
},
{
closed = 1;
nodes = (
"1138 1412 LINE SMOOTH",
"1328 1412 OFFCURVE",
"1428 1502 OFFCURVE",
"1428 1648 CURVE SMOOTH",
"1428 1708 OFFCURVE",
"1420 1746 OFFCURVE",
"1402 1792 CURVE",
"1336 1792 LINE",
"1352 1746 OFFCURVE",
"1362 1706 OFFCURVE",
"1362 1650 CURVE SMOOTH",
"1362 1534 OFFCURVE",
"1284 1480 OFFCURVE",
"1142 1480 CURVE SMOOTH",
"958 1480 LINE",
"1018 1412 LINE"
);
}
);
};
color = -1;
layerId = "E28BEEB5-BD92-4E7A-B4EA-FC5E5BBBF580";
paths = (
{
closed = 1;
nodes = (
"1168 -18 OFFCURVE",
"1434 196 OFFCURVE",
"1434 740 CURVE SMOOTH",
"1434 1100 OFFCURVE",
"1314 1316 OFFCURVE",
"1126 1420 CURVE",
"1130 1404 LINE",
"1332 1404 OFFCURVE",
"1434 1492 OFFCURVE",
"1434 1632 CURVE SMOOTH",
"1434 1692 OFFCURVE",
"1426 1730 OFFCURVE",
"1408 1776 CURVE",
"1342 1776 LINE",
"1358 1730 OFFCURVE",
"1368 1690 OFFCURVE",
"1368 1634 CURVE SMOOTH",
"1368 1526 OFFCURVE",
"1290 1472 OFFCURVE",
"1148 1472 CURVE SMOOTH",
"992 1472 OFFCURVE",
"906 1498 OFFCURVE",
"786 1498 CURVE SMOOTH",
"410 1498 OFFCURVE",
"138 1272 OFFCURVE",
"138 740 CURVE SMOOTH",
"138 208 OFFCURVE",
"404 -18 OFFCURVE",
"786 -18 CURVE SMOOTH"
);
},
{
closed = 1;
nodes = (
"446 50 OFFCURVE",
"210 242 OFFCURVE",
"210 744 CURVE SMOOTH",
"210 1238 OFFCURVE",
"446 1430 OFFCURVE",
"786 1430 CURVE SMOOTH",
"1126 1430 OFFCURVE",
"1362 1238 OFFCURVE",
"1362 736 CURVE SMOOTH",
"1362 242 OFFCURVE",
"1126 50 OFFCURVE",
"786 50 CURVE SMOOTH"
);
}
);
width = 1572;
},
{
anchors = (
{
name = bottom;
position = "{946, 0}";
},
{
name = top;
position = "{946, 1520}";
}
);
background = {
paths = (
{
closed = 1;
nodes = (
"1478 -20 OFFCURVE",
"1806 274 OFFCURVE",
"1806 740 CURVE SMOOTH",
"1806 1024 OFFCURVE",
"1686 1246 OFFCURVE",
"1468 1370 CURVE",
"1468 1282 LINE",
"1684 1282 OFFCURVE",
"1822 1394 OFFCURVE",
"1822 1624 CURVE SMOOTH",
"1822 1666 OFFCURVE",
"1820 1712 OFFCURVE",
"1804 1776 CURVE",
"1514 1776 LINE",
"1524 1710 OFFCURVE",
"1526 1672 OFFCURVE",
"1526 1636 CURVE SMOOTH",
"1526 1518 OFFCURVE",
"1456 1480 OFFCURVE",
"1308 1480 CURVE SMOOTH",
"1212 1480 OFFCURVE",
"1060 1500 OFFCURVE",
"944 1500 CURVE SMOOTH",
"408 1500 OFFCURVE",
"82 1210 OFFCURVE",
"82 740 CURVE SMOOTH",
"82 270 OFFCURVE",
"410 -20 OFFCURVE",
"944 -20 CURVE SMOOTH"
);
},
{
closed = 1;
nodes = (
"694 348 OFFCURVE",
"562 480 OFFCURVE",
"562 748 CURVE SMOOTH",
"562 1000 OFFCURVE",
"700 1132 OFFCURVE",
"944 1132 CURVE SMOOTH",
"1188 1132 OFFCURVE",
"1326 994 OFFCURVE",
"1326 732 CURVE SMOOTH",
"1326 486 OFFCURVE",
"1194 348 OFFCURVE",
"944 348 CURVE SMOOTH"
);
}
);
};
color = -1;
layerId = "1E90A949-97C4-49F5-AA9A-AF35B6FD63CF";
paths = (
{
closed = 1;
nodes = (
"1480 -20 OFFCURVE",
"1808 274 OFFCURVE",
"1808 740 CURVE SMOOTH",
"1808 1024 OFFCURVE",
"1688 1246 OFFCURVE",
"1470 1370 CURVE",
"1470 1282 LINE",
"1686 1282 OFFCURVE",
"1824 1394 OFFCURVE",
"1824 1624 CURVE SMOOTH",
"1824 1666 OFFCURVE",
"1822 1712 OFFCURVE",
"1806 1776 CURVE",
"1516 1776 LINE",
"1526 1710 OFFCURVE",
"1528 1672 OFFCURVE",
"1528 1636 CURVE SMOOTH",
"1528 1518 OFFCURVE",
"1458 1480 OFFCURVE",
"1310 1480 CURVE SMOOTH",
"1214 1480 OFFCURVE",
"1062 1500 OFFCURVE",
"946 1500 CURVE SMOOTH",
"410 1500 OFFCURVE",
"84 1210 OFFCURVE",
"84 740 CURVE SMOOTH",
"84 270 OFFCURVE",
"412 -20 OFFCURVE",
"946 -20 CURVE SMOOTH"
);
},
{
closed = 1;
nodes = (
"700 348 OFFCURVE",
"568 480 OFFCURVE",
"568 748 CURVE SMOOTH",
"568 1000 OFFCURVE",
"706 1132 OFFCURVE",
"946 1132 CURVE SMOOTH",
"1186 1132 OFFCURVE",
"1324 994 OFFCURVE",
"1324 732 CURVE SMOOTH",
"1324 486 OFFCURVE",
"1192 348 OFFCURVE",
"946 348 CURVE SMOOTH"
);
}
);
width = 1892;
}
);
leftKerningGroup = O;
rightKerningGroup = O;
unicode = 01A0;
},
{
glyphname = Ohorntilde;
layers = (
{
background = {
components = (
{
name = Ohorn;
},
{
name = tildecomb.case;
transform = "{1, 0, 0, 1, 88, 0}";
}
);
};
color = -1;
layerId = "E28BEEB5-BD92-4E7A-B4EA-FC5E5BBBF580";
paths = (
{
closed = 1;
nodes = (
"1168 -18 OFFCURVE",
"1434 196 OFFCURVE",
"1434 740 CURVE SMOOTH",
"1434 1100 OFFCURVE",
"1314 1316 OFFCURVE",
"1126 1420 CURVE",
"1130 1404 LINE",
"1332 1404 OFFCURVE",
"1434 1492 OFFCURVE",
"1434 1632 CURVE SMOOTH",
"1434 1692 OFFCURVE",
"1426 1730 OFFCURVE",
"1408 1776 CURVE",
"1342 1776 LINE",
"1358 1730 OFFCURVE",
"1368 1690 OFFCURVE",
"1368 1634 CURVE SMOOTH",
"1368 1526 OFFCURVE",
"1290 1472 OFFCURVE",
"1148 1472 CURVE SMOOTH",
"992 1472 OFFCURVE",
"906 1498 OFFCURVE",
"786 1498 CURVE SMOOTH",
"410 1498 OFFCURVE",
"138 1272 OFFCURVE",
"138 740 CURVE SMOOTH",
"138 208 OFFCURVE",
"404 -18 OFFCURVE",
"786 -18 CURVE SMOOTH"
);
},
{
closed = 1;
nodes = (
"446 50 OFFCURVE",
"210 242 OFFCURVE",
"210 744 CURVE SMOOTH",
"210 1238 OFFCURVE",
"446 1430 OFFCURVE",
"786 1430 CURVE SMOOTH",
"1126 1430 OFFCURVE",
"1362 1238 OFFCURVE",
"1362 736 CURVE SMOOTH",
"1362 242 OFFCURVE",
"1126 50 OFFCURVE",
"786 50 CURVE SMOOTH"
);
},
{
closed = 1;
nodes = (
"1026 1698 OFFCURVE",
"1082 1718 OFFCURVE",
"1122 1758 CURVE",
"1122 1826 LINE",
"1074 1778 OFFCURVE",
"1022 1756 OFFCURVE",
"946 1756 CURVE SMOOTH",
"844 1756 OFFCURVE",
"750 1830 OFFCURVE",
"626 1830 CURVE SMOOTH",
"546 1830 OFFCURVE",
"490 1810 OFFCURVE",
"450 1770 CURVE",
"450 1702 LINE",
"498 1750 OFFCURVE",
"550 1772 OFFCURVE",
"626 1772 CURVE SMOOTH",
"728 1772 OFFCURVE",
"822 1698 OFFCURVE",
"946 1698 CURVE SMOOTH"
);
}
);
width = 1572;
},
{
color = -1;
layerId = "1E90A949-97C4-49F5-AA9A-AF35B6FD63CF";
paths = (
{
closed = 1;
nodes = (
"1480 -20 OFFCURVE",
"1808 274 OFFCURVE",
"1808 740 CURVE SMOOTH",
"1808 1024 OFFCURVE",
"1688 1246 OFFCURVE",
"1470 1370 CURVE",
"1470 1282 LINE",
"1686 1282 OFFCURVE",
"1824 1394 OFFCURVE",
"1824 1624 CURVE SMOOTH",
"1824 1666 OFFCURVE",
"1822 1712 OFFCURVE",
"1806 1776 CURVE",
"1516 1776 LINE",
"1526 1710 OFFCURVE",
"1528 1672 OFFCURVE",
"1528 1636 CURVE SMOOTH",
"1528 1518 OFFCURVE",
"1458 1480 OFFCURVE",
"1310 1480 CURVE SMOOTH",
"1214 1480 OFFCURVE",
"1062 1500 OFFCURVE",
"946 1500 CURVE SMOOTH",
"410 1500 OFFCURVE",
"84 1210 OFFCURVE",
"84 740 CURVE SMOOTH",
"84 270 OFFCURVE",
"412 -20 OFFCURVE",
"946 -20 CURVE SMOOTH"
);
},
{
closed = 1;
nodes = (
"700 348 OFFCURVE",
"568 480 OFFCURVE",
"568 748 CURVE SMOOTH",
"568 1000 OFFCURVE",
"706 1132 OFFCURVE",
"946 1132 CURVE SMOOTH",
"1186 1132 OFFCURVE",
"1324 994 OFFCURVE",
"1324 732 CURVE SMOOTH",
"1324 486 OFFCURVE",
"1192 348 OFFCURVE",
"946 348 CURVE SMOOTH"
);
},
{
closed = 1;
nodes = (
"1252 1586 OFFCURVE",
"1324 1608 OFFCURVE",
"1390 1660 CURVE",
"1390 1892 LINE",
"1314 1848 OFFCURVE",
"1250 1828 OFFCURVE",
"1156 1828 CURVE SMOOTH",
"1012 1828 OFFCURVE",
"908 1902 OFFCURVE",
"748 1902 CURVE SMOOTH",
"640 1902 OFFCURVE",
"568 1878 OFFCURVE",
"502 1826 CURVE",
"502 1594 LINE",
"578 1638 OFFCURVE",
"642 1658 OFFCURVE",
"736 1658 CURVE SMOOTH",
"880 1658 OFFCURVE",
"984 1586 OFFCURVE",
"1144 1586 CURVE SMOOTH"
);
}
);
width = 1892;
}
);
leftKerningGroup = O;
rightKerningGroup = O;
unicode = 1EE0;
},
{
glyphname = Oogonek;
layers = (
{
background = {
paths = (
{
closed = 1;
nodes = (
"1162 -18 OFFCURVE",
"1428 196 OFFCURVE",
"1428 740 CURVE SMOOTH",
"1428 1284 OFFCURVE",
"1156 1498 OFFCURVE",
"780 1498 CURVE SMOOTH",
"404 1498 OFFCURVE",
"132 1272 OFFCURVE",
"132 740 CURVE SMOOTH",
"132 208 OFFCURVE",
"398 -18 OFFCURVE",
"780 -18 CURVE SMOOTH"
);
},
{
closed = 1;
nodes = (
"440 50 OFFCURVE",
"204 242 OFFCURVE",
"204 744 CURVE SMOOTH",
"204 1238 OFFCURVE",
"440 1430 OFFCURVE",
"780 1430 CURVE SMOOTH",
"1120 1430 OFFCURVE",
"1356 1238 OFFCURVE",
"1356 736 CURVE SMOOTH",
"1356 242 OFFCURVE",
"1120 50 OFFCURVE",
"780 50 CURVE SMOOTH"
);
},
{
closed = 1;
nodes = (
"972 -400 OFFCURVE",
"1036 -386 OFFCURVE",
"1098 -360 CURVE",
"1098 -306 LINE",
"1020 -334 OFFCURVE",
"968 -348 OFFCURVE",
"906 -348 CURVE SMOOTH",
"802 -348 OFFCURVE",
"746 -304 OFFCURVE",
"746 -228 CURVE SMOOTH",
"746 -148 OFFCURVE",
"790 -80 OFFCURVE",
"960 0 CURVE",
"936 48 LINE",
"748 -40 OFFCURVE",
"690 -128 OFFCURVE",
"690 -230 CURVE SMOOTH",
"690 -336 OFFCURVE",
"768 -400 OFFCURVE",
"910 -400 CURVE SMOOTH"
);
}
);
};
color = -1;
layerId = "E28BEEB5-BD92-4E7A-B4EA-FC5E5BBBF580";
paths = (
{
closed = 1;
nodes = (
"978 -400 OFFCURVE",
"1042 -386 OFFCURVE",
"1104 -360 CURVE",
"1104 -306 LINE",
"1026 -334 OFFCURVE",
"974 -348 OFFCURVE",
"912 -348 CURVE SMOOTH",
"808 -348 OFFCURVE",
"752 -304 OFFCURVE",
"752 -228 CURVE SMOOTH",
"752 -142 OFFCURVE",
"804 -58 OFFCURVE",
"1036 20 CURVE SMOOTH",
"1262 96 OFFCURVE",
"1434 308 OFFCURVE",
"1434 740 CURVE SMOOTH",
"1434 1284 OFFCURVE",
"1162 1498 OFFCURVE",
"786 1498 CURVE SMOOTH",
"410 1498 OFFCURVE",
"138 1272 OFFCURVE",
"138 740 CURVE SMOOTH",
"138 208 OFFCURVE",
"402 -18 OFFCURVE",
"794 -18 CURVE SMOOTH",
"864 -18 LINE",
"864 -2 LINE",
"736 -66 OFFCURVE",
"694 -142 OFFCURVE",
"694 -230 CURVE SMOOTH",
"694 -336 OFFCURVE",
"774 -400 OFFCURVE",
"916 -400 CURVE SMOOTH"
);
},
{
closed = 1;
nodes = (
"446 50 OFFCURVE",
"210 242 OFFCURVE",
"210 744 CURVE SMOOTH",
"210 1238 OFFCURVE",
"446 1430 OFFCURVE",
"786 1430 CURVE SMOOTH",
"1126 1430 OFFCURVE",
"1362 1238 OFFCURVE",
"1362 736 CURVE SMOOTH",
"1362 242 OFFCURVE",
"1126 50 OFFCURVE",
"786 50 CURVE SMOOTH"
);
}
);
width = 1572;
},
{
background = {
paths = (
{
closed = 1;
nodes = (
"1078 -460 OFFCURVE",
"1140 -448 OFFCURVE",
"1198 -430 CURVE",
"1198 -270 LINE",
"1142 -288 OFFCURVE",
"1098 -294 OFFCURVE",
"1066 -294 CURVE SMOOTH",
"962 -294 OFFCURVE",
"918 -256 OFFCURVE",
"918 -196 CURVE SMOOTH",
"918 -124 OFFCURVE",
"976 -44 OFFCURVE",
"1206 6 CURVE SMOOTH",
"1530 76 OFFCURVE",
"1806 308 OFFCURVE",
"1806 740 CURVE SMOOTH",
"1806 1206 OFFCURVE",
"1480 1500 OFFCURVE",
"944 1500 CURVE SMOOTH",
"408 1500 OFFCURVE",
"82 1210 OFFCURVE",
"82 740 CURVE SMOOTH",
"82 278 OFFCURVE",
"398 -10 OFFCURVE",
"914 -20 CURVE SMOOTH",
"954 -20 LINE",
"976 60 LINE",
"744 -2 OFFCURVE",
"662 -110 OFFCURVE",
"662 -234 CURVE SMOOTH",
"662 -370 OFFCURVE",
"768 -460 OFFCURVE",
"994 -460 CURVE SMOOTH"
);
},
{
closed = 1;
nodes = (
"694 348 OFFCURVE",
"562 480 OFFCURVE",
"562 748 CURVE SMOOTH",
"562 1000 OFFCURVE",
"700 1132 OFFCURVE",
"944 1132 CURVE SMOOTH",
"1188 1132 OFFCURVE",
"1326 994 OFFCURVE",
"1326 732 CURVE SMOOTH",
"1326 486 OFFCURVE",
"1194 348 OFFCURVE",
"944 348 CURVE SMOOTH"
);
}
);
};
color = -1;
layerId = "1E90A949-97C4-49F5-AA9A-AF35B6FD63CF";
paths = (
{
closed = 1;
nodes = (
"1080 -460 OFFCURVE",
"1142 -448 OFFCURVE",
"1200 -430 CURVE",
"1200 -270 LINE",
"1144 -288 OFFCURVE",
"1100 -294 OFFCURVE",
"1068 -294 CURVE SMOOTH",
"964 -294 OFFCURVE",
"920 -256 OFFCURVE",
"920 -196 CURVE SMOOTH",
"920 -124 OFFCURVE",
"978 -44 OFFCURVE",
"1208 6 CURVE SMOOTH",
"1532 76 OFFCURVE",
"1808 308 OFFCURVE",
"1808 740 CURVE SMOOTH",
"1808 1206 OFFCURVE",
"1482 1500 OFFCURVE",
"946 1500 CURVE SMOOTH",
"410 1500 OFFCURVE",
"84 1210 OFFCURVE",
"84 740 CURVE SMOOTH",
"84 278 OFFCURVE",
"400 -10 OFFCURVE",
"916 -20 CURVE SMOOTH",
"956 -20 LINE",
"978 60 LINE",
"746 -2 OFFCURVE",
"664 -110 OFFCURVE",
"664 -234 CURVE SMOOTH",
"664 -370 OFFCURVE",
"770 -460 OFFCURVE",
"996 -460 CURVE SMOOTH"
);
},
{
closed = 1;
nodes = (
"700 348 OFFCURVE",
"568 480 OFFCURVE",
"568 748 CURVE SMOOTH",
"568 1000 OFFCURVE",
"706 1132 OFFCURVE",
"946 1132 CURVE SMOOTH",
"1186 1132 OFFCURVE",
"1324 994 OFFCURVE",
"1324 732 CURVE SMOOTH",
"1324 486 OFFCURVE",
"1192 348 OFFCURVE",
"946 348 CURVE SMOOTH"
);
}
);
width = 1892;
}
);
leftKerningGroup = O;
rightKerningGroup = O;
unicode = 01EA;
},
{
glyphname = Oslash;
layers = (
{
anchors = (
{
name = bottom;
position = "{780, 0}";
},
{
name = top;
position = "{776, 1520}";
}
);
background = {
anchors = (
{
name = bottom;
position = "{776, 0}";
},
{
name = top;
position = "{776, 1520}";
}
);
components = (
{
name = O;
},
{
name = slashcomb.case;
transform = "{1, 0, 0, 1, -10, 0}";
}
);
};
color = -1;
components = (
{
name = O;
},
{
name = slashcomb.case;
transform = "{1, 0, 0, 1, -14, 0}";
}
);
layerId = "E28BEEB5-BD92-4E7A-B4EA-FC5E5BBBF580";
width = 1572;
},
{
anchors = (
{
name = bottom;
position = "{942, 0}";
},
{
name = top;
position = "{942, 1520}";
}
);
background = {
anchors = (
{
name = topUC;
position = "{868, 1770}";
}
);
paths = (
{
closed = 1;
nodes = (
"868 -20 CURVE",
"1386 -20 OFFCURVE",
"1670 248 OFFCURVE",
"1670 738 CURVE SMOOTH",
"1670 1230 OFFCURVE",
"1386 1500 OFFCURVE",
"868 1500 CURVE SMOOTH",
"346 1500 OFFCURVE",
"66 1234 OFFCURVE",
"66 738 CURVE SMOOTH",
"66 246 OFFCURVE",
"348 -20 OFFCURVE"
);
},
{
closed = 1;
nodes = (
"868 348 CURVE SMOOTH",
"614 348 OFFCURVE",
"546 414 OFFCURVE",
"546 738 CURVE SMOOTH",
"546 1058 OFFCURVE",
"620 1132 OFFCURVE",
"868 1132 CURVE SMOOTH",
"1114 1132 OFFCURVE",
"1190 1052 OFFCURVE",
"1190 738 CURVE SMOOTH",
"1190 412 OFFCURVE",
"1126 348 OFFCURVE"
);
},
{
closed = 1;
nodes = (
"10 0 LINE",
"332 0 LINE",
"1726 1480 LINE",
"1404 1480 LINE"
);
}
);
};
color = -1;
components = (
{
name = O;
},
{
name = slashcomb.case;
transform = "{1, 0, 0, 1, 46, 0}";
}
);
layerId = "1E90A949-97C4-49F5-AA9A-AF35B6FD63CF";
width = 1892;
}
);
leftKerningGroup = O;
rightKerningGroup = O;
unicode = 00D8;
userData = {
com.typemytype.robofont.layerData = {
};
};
},
{
glyphname = OE;
layers = (
{
anchors = (
{
name = bottom;
position = "{1240, 0}";
},
{
name = top;
position = "{1240, 1520}";
}
);
background = {
anchors = (
{
name = bottom;
position = "{1234, 0}";
},
{
name = top;
position = "{1234, 1520}";
}
);
paths = (
{
closed = 1;
nodes = (
"1016 -10 OFFCURVE",
"1182 0 OFFCURVE",
"1280 0 CURVE SMOOTH",
"2120 0 LINE",
"2120 66 LINE",
"1268 66 LINE",
"1268 1414 LINE",
"2110 1414 LINE",
"2110 1480 LINE",
"1260 1480 LINE SMOOTH",
"1148 1480 OFFCURVE",
"1008 1494 OFFCURVE",
"894 1494 CURVE SMOOTH",
"400 1494 OFFCURVE",
"132 1242 OFFCURVE",
"132 740 CURVE SMOOTH",
"132 238 OFFCURVE",
"400 -10 OFFCURVE",
"902 -10 CURVE SMOOTH"
);
},
{
closed = 1;
nodes = (
"444 56 OFFCURVE",
"204 272 OFFCURVE",
"204 740 CURVE SMOOTH",
"204 1208 OFFCURVE",
"444 1428 OFFCURVE",
"900 1428 CURVE SMOOTH",
"1018 1428 OFFCURVE",
"1102 1422 OFFCURVE",
"1200 1412 CURVE",
"1200 68 LINE",
"1134 60 OFFCURVE",
"1040 56 OFFCURVE",
"900 56 CURVE SMOOTH"
);
},
{
closed = 1;
nodes = (
"2010 728 LINE",
"2010 794 LINE",
"1260 794 LINE",
"1260 728 LINE"
);
}
);
};
color = -1;
layerId = "E28BEEB5-BD92-4E7A-B4EA-FC5E5BBBF580";
paths = (
{
closed = 1;
nodes = (
"1022 -10 OFFCURVE",
"1188 0 OFFCURVE",
"1286 0 CURVE SMOOTH",
"2126 0 LINE",
"2126 66 LINE",
"1274 66 LINE",
"1274 1414 LINE",
"2116 1414 LINE",
"2116 1480 LINE",
"1266 1480 LINE SMOOTH",
"1154 1480 OFFCURVE",
"1014 1494 OFFCURVE",
"900 1494 CURVE SMOOTH",
"406 1494 OFFCURVE",
"138 1242 OFFCURVE",
"138 740 CURVE SMOOTH",
"138 238 OFFCURVE",
"406 -10 OFFCURVE",
"908 -10 CURVE SMOOTH"
);
},
{
closed = 1;
nodes = (
"450 56 OFFCURVE",
"210 272 OFFCURVE",
"210 740 CURVE SMOOTH",
"210 1208 OFFCURVE",
"450 1428 OFFCURVE",
"906 1428 CURVE SMOOTH",
"1024 1428 OFFCURVE",
"1108 1422 OFFCURVE",
"1206 1412 CURVE",
"1206 68 LINE",
"1140 60 OFFCURVE",
"1046 56 OFFCURVE",
"906 56 CURVE SMOOTH"
);
},
{
closed = 1;
nodes = (
"2016 728 LINE",
"2016 794 LINE",
"1266 794 LINE",
"1266 728 LINE"
);
}
);
width = 2234;
},
{
anchors = (
{
name = bottom;
position = "{1414, 0}";
},
{
name = top;
position = "{1414, 1520}";
}
);
background = {
paths = (
{
closed = 1;
nodes = (
"1250 -14 OFFCURVE",
"1380 0 OFFCURVE",
"1506 0 CURVE SMOOTH",
"2418 0 LINE",
"2418 360 LINE",
"1646 360 LINE",
"1646 1120 LINE",
"2408 1120 LINE",
"2408 1480 LINE",
"1506 1480 LINE SMOOTH",
"1378 1480 OFFCURVE",
"1244 1494 OFFCURVE",
"1130 1494 CURVE SMOOTH",
"434 1494 OFFCURVE",
"82 1262 OFFCURVE",
"82 740 CURVE SMOOTH",
"82 198 OFFCURVE",
"414 -14 OFFCURVE",
"1150 -14 CURVE SMOOTH"
);
},
{
closed = 1;
nodes = (
"704 358 OFFCURVE",
"560 472 OFFCURVE",
"560 736 CURVE SMOOTH",
"560 1008 OFFCURVE",
"704 1122 OFFCURVE",
"1020 1122 CURVE SMOOTH",
"1078 1122 OFFCURVE",
"1128 1122 OFFCURVE",
"1176 1118 CURVE",
"1176 362 LINE",
"1128 358 OFFCURVE",
"1066 358 OFFCURVE",
"1020 358 CURVE SMOOTH"
);
},
{
closed = 1;
nodes = (
"2302 580 LINE",
"2302 930 LINE",
"1404 930 LINE",
"1404 580 LINE"
);
}
);
};
color = -1;
layerId = "1E90A949-97C4-49F5-AA9A-AF35B6FD63CF";
paths = (
{
closed = 1;
nodes = (
"1252 -14 OFFCURVE",
"1382 0 OFFCURVE",
"1508 0 CURVE SMOOTH",
"2420 0 LINE",
"2420 350 LINE",
"1648 350 LINE",
"1648 1130 LINE",
"2410 1130 LINE",
"2410 1480 LINE",
"1508 1480 LINE SMOOTH",
"1380 1480 OFFCURVE",
"1246 1494 OFFCURVE",
"1132 1494 CURVE SMOOTH",
"436 1494 OFFCURVE",
"84 1262 OFFCURVE",
"84 740 CURVE SMOOTH",
"84 198 OFFCURVE",
"416 -14 OFFCURVE",
"1152 -14 CURVE SMOOTH"
);
},
{
closed = 1;
nodes = (
"710 358 OFFCURVE",
"566 472 OFFCURVE",
"566 736 CURVE SMOOTH",
"566 1008 OFFCURVE",
"710 1122 OFFCURVE",
"1022 1122 CURVE SMOOTH",
"1080 1122 OFFCURVE",
"1130 1122 OFFCURVE",
"1178 1118 CURVE",
"1178 362 LINE",
"1130 358 OFFCURVE",
"1068 358 OFFCURVE",
"1022 358 CURVE SMOOTH"
);
},
{
closed = 1;
nodes = (
"2304 580 LINE",
"2304 930 LINE",
"1406 930 LINE",
"1406 580 LINE"
);
}
);
width = 2506;
}
);
leftKerningGroup = O;
rightKerningGroup = E;
unicode = 0152;
},
{
glyphname = P;
layers = (
{
background = {
paths = (
{
closed = 1;
nodes = (
"278 0 LINE",
"278 532 LINE",
"378 522 OFFCURVE",
"434 518 OFFCURVE",
"530 518 CURVE SMOOTH",
"972 518 OFFCURVE",
"1162 696 OFFCURVE",
"1162 1010 CURVE SMOOTH",
"1162 1346 OFFCURVE",
"948 1494 OFFCURVE",
"584 1494 CURVE SMOOTH",
"462 1494 OFFCURVE",
"356 1482 OFFCURVE",
"210 1454 CURVE",
"210 0 LINE"
);
},
{
closed = 1;
nodes = (
"426 584 OFFCURVE",
"364 590 OFFCURVE",
"278 602 CURVE",
"278 1400 LINE",
"378 1418 OFFCURVE",
"476 1428 OFFCURVE",
"584 1428 CURVE SMOOTH",
"912 1428 OFFCURVE",
"1090 1300 OFFCURVE",
"1090 1008 CURVE SMOOTH",
"1090 730 OFFCURVE",
"930 584 OFFCURVE",
"530 584 CURVE SMOOTH"
);
}
);
};
color = -1;
layerId = "E28BEEB5-BD92-4E7A-B4EA-FC5E5BBBF580";
paths = (
{
closed = 1;
nodes = (
"284 0 LINE",
"284 532 LINE",
"384 522 OFFCURVE",
"460 518 OFFCURVE",
"556 518 CURVE SMOOTH",
"1018 518 OFFCURVE",
"1208 696 OFFCURVE",
"1208 1010 CURVE SMOOTH",
"1208 1346 OFFCURVE",
"994 1494 OFFCURVE",
"610 1494 CURVE SMOOTH",
"468 1494 OFFCURVE",
"356 1482 OFFCURVE",
"216 1454 CURVE",
"216 0 LINE"
);
},
{
closed = 1;
nodes = (
"452 584 OFFCURVE",
"370 590 OFFCURVE",
"284 602 CURVE",
"284 1400 LINE",
"380 1418 OFFCURVE",
"482 1428 OFFCURVE",
"610 1428 CURVE SMOOTH",
"958 1428 OFFCURVE",
"1136 1300 OFFCURVE",
"1136 1008 CURVE SMOOTH",
"1136 730 OFFCURVE",
"976 584 OFFCURVE",
"556 584 CURVE SMOOTH"
);
}
);
width = 1314;
},
{
background = {
paths = (
{
closed = 1;
nodes = (
"604 0 LINE",
"604 390 LINE",
"642 390 OFFCURVE",
"690 388 OFFCURVE",
"732 388 CURVE SMOOTH",
"1200 388 OFFCURVE",
"1448 574 OFFCURVE",
"1448 944 CURVE SMOOTH",
"1448 1330 OFFCURVE",
"1198 1500 OFFCURVE",
"674 1500 CURVE SMOOTH",
"470 1500 OFFCURVE",
"292 1480 OFFCURVE",
"128 1450 CURVE",
"128 0 LINE"
);
},
{
closed = 1;
nodes = (
"684 714 OFFCURVE",
"650 716 OFFCURVE",
"604 720 CURVE",
"604 1166 LINE",
"642 1172 OFFCURVE",
"676 1174 OFFCURVE",
"720 1174 CURVE SMOOTH",
"908 1174 OFFCURVE",
"990 1106 OFFCURVE",
"990 944 CURVE SMOOTH",
"990 772 OFFCURVE",
"908 714 OFFCURVE",
"732 714 CURVE SMOOTH"
);
}
);
};
color = -1;
layerId = "1E90A949-97C4-49F5-AA9A-AF35B6FD63CF";
paths = (
{
closed = 1;
nodes = (
"606 0 LINE",
"606 390 LINE",
"644 390 OFFCURVE",
"688 388 OFFCURVE",
"730 388 CURVE SMOOTH",
"1202 388 OFFCURVE",
"1450 574 OFFCURVE",
"1450 944 CURVE SMOOTH",
"1450 1330 OFFCURVE",
"1196 1500 OFFCURVE",
"676 1500 CURVE SMOOTH",
"472 1500 OFFCURVE",
"294 1480 OFFCURVE",
"130 1450 CURVE",
"130 0 LINE"
);
},
{
closed = 1;
nodes = (
"686 714 OFFCURVE",
"652 716 OFFCURVE",
"606 722 CURVE",
"606 1166 LINE",
"644 1172 OFFCURVE",
"678 1174 OFFCURVE",
"722 1174 CURVE SMOOTH",
"910 1174 OFFCURVE",
"992 1106 OFFCURVE",
"992 944 CURVE SMOOTH",
"992 772 OFFCURVE",
"910 714 OFFCURVE",
"734 714 CURVE SMOOTH"
);
}
);
width = 1528;
}
);
leftKerningGroup = H;
rightKerningGroup = P;
unicode = 0050;
userData = {
com.typemytype.robofont.layerData = {
};
};
},
{
glyphname = Thorn;
layers = (
{
background = {
paths = (
{
closed = 1;
nodes = (
"278 -246 LINE",
"278 286 LINE",
"378 276 OFFCURVE",
"454 272 OFFCURVE",
"550 272 CURVE SMOOTH",
"1012 272 OFFCURVE",
"1202 450 OFFCURVE",
"1202 764 CURVE SMOOTH",
"1202 1100 OFFCURVE",
"988 1248 OFFCURVE",
"604 1248 CURVE SMOOTH",
"462 1248 OFFCURVE",
"350 1236 OFFCURVE",
"210 1208 CURVE",
"210 -246 LINE"
);
},
{
closed = 1;
nodes = (
"446 338 OFFCURVE",
"364 344 OFFCURVE",
"278 356 CURVE",
"278 1154 LINE",
"374 1172 OFFCURVE",
"476 1182 OFFCURVE",
"604 1182 CURVE SMOOTH",
"952 1182 OFFCURVE",
"1130 1054 OFFCURVE",
"1130 762 CURVE SMOOTH",
"1130 484 OFFCURVE",
"970 338 OFFCURVE",
"550 338 CURVE SMOOTH"
);
}
);
};
color = -1;
layerId = "E28BEEB5-BD92-4E7A-B4EA-FC5E5BBBF580";
paths = (
{
closed = 1;
nodes = (
"284 0 LINE",
"284 286 LINE",
"384 276 OFFCURVE",
"460 272 OFFCURVE",
"556 272 CURVE SMOOTH",
"1018 272 OFFCURVE",
"1208 450 OFFCURVE",
"1208 764 CURVE SMOOTH",
"1208 1100 OFFCURVE",
"994 1248 OFFCURVE",
"610 1248 CURVE SMOOTH",
"468 1248 OFFCURVE",
"372 1236 OFFCURVE",
"284 1220 CURVE",
"284 1482 LINE",
"216 1482 LINE",
"216 0 LINE"
);
},
{
closed = 1;
nodes = (
"452 338 OFFCURVE",
"370 344 OFFCURVE",
"284 356 CURVE",
"284 1154 LINE",
"380 1172 OFFCURVE",
"482 1182 OFFCURVE",
"610 1182 CURVE SMOOTH",
"958 1182 OFFCURVE",
"1136 1054 OFFCURVE",
"1136 762 CURVE SMOOTH",
"1136 484 OFFCURVE",
"976 338 OFFCURVE",
"556 338 CURVE SMOOTH"
);
}
);
width = 1324;
},
{
background = {
paths = (
{
closed = 1;
nodes = (
"604 0 LINE",
"604 1480 LINE",
"128 1480 LINE",
"128 0 LINE"
);
},
{
closed = 1;
nodes = (
"604 206 LINE",
"642 206 OFFCURVE",
"690 204 OFFCURVE",
"732 204 CURVE SMOOTH",
"1200 204 OFFCURVE",
"1448 390 OFFCURVE",
"1448 760 CURVE SMOOTH",
"1448 1146 OFFCURVE",
"1198 1316 OFFCURVE",
"674 1316 CURVE SMOOTH",
"470 1316 OFFCURVE",
"292 1296 OFFCURVE",
"128 1266 CURVE"
);
},
{
closed = 1;
nodes = (
"684 530 OFFCURVE",
"650 532 OFFCURVE",
"604 536 CURVE",
"604 982 LINE",
"642 988 OFFCURVE",
"676 990 OFFCURVE",
"720 990 CURVE SMOOTH",
"908 990 OFFCURVE",
"990 922 OFFCURVE",
"990 760 CURVE SMOOTH",
"990 588 OFFCURVE",
"908 530 OFFCURVE",
"732 530 CURVE SMOOTH"
);
}
);
};
color = -1;
layerId = "1E90A949-97C4-49F5-AA9A-AF35B6FD63CF";
paths = (
{
closed = 1;
nodes = (
"606 0 LINE",
"606 206 LINE",
"644 206 OFFCURVE",
"692 204 OFFCURVE",
"734 204 CURVE SMOOTH",
"1202 204 OFFCURVE",
"1450 390 OFFCURVE",
"1450 760 CURVE SMOOTH",
"1450 1146 OFFCURVE",
"1200 1316 OFFCURVE",
"686 1316 CURVE SMOOTH",
"662 1316 OFFCURVE",
"630 1314 OFFCURVE",
"606 1314 CURVE",
"606 1480 LINE",
"130 1480 LINE",
"130 0 LINE"
);
},
{
closed = 1;
nodes = (
"686 530 OFFCURVE",
"652 532 OFFCURVE",
"606 536 CURVE",
"606 982 LINE",
"644 988 OFFCURVE",
"678 990 OFFCURVE",
"722 990 CURVE SMOOTH",
"910 990 OFFCURVE",
"992 922 OFFCURVE",
"992 760 CURVE SMOOTH",
"992 588 OFFCURVE",
"910 530 OFFCURVE",
"734 530 CURVE SMOOTH"
);
}
);
width = 1538;
}
);
leftKerningGroup = H;
rightKerningGroup = Thorn;
unicode = 00DE;
userData = {
com.typemytype.robofont.layerData = {
};
};
},
{
glyphname = Q;
layers = (
{
background = {
paths = (
{
closed = 1;
nodes = (
"1390 -114 LINE",
"1150 -102 OFFCURVE",
"868 -60 OFFCURVE",
"692 10 CURVE",
"682 -8 LINE",
"1160 -56 OFFCURVE",
"1428 196 OFFCURVE",
"1428 740 CURVE SMOOTH",
"1428 1284 OFFCURVE",
"1156 1498 OFFCURVE",
"780 1498 CURVE SMOOTH",
"404 1498 OFFCURVE",
"132 1272 OFFCURVE",
"132 740 CURVE SMOOTH",
"132 146 OFFCURVE",
"418 -98 OFFCURVE",
"1390 -182 CURVE"
);
},
{
closed = 1;
nodes = (
"440 50 OFFCURVE",
"204 242 OFFCURVE",
"204 744 CURVE SMOOTH",
"204 1238 OFFCURVE",
"440 1430 OFFCURVE",
"780 1430 CURVE SMOOTH",
"1120 1430 OFFCURVE",
"1356 1238 OFFCURVE",
"1356 736 CURVE SMOOTH",
"1356 242 OFFCURVE",
"1120 50 OFFCURVE",
"780 50 CURVE SMOOTH"
);
}
);
};
color = -1;
layerId = "E28BEEB5-BD92-4E7A-B4EA-FC5E5BBBF580";
paths = (
{
closed = 1;
nodes = (
"1402 -114 LINE",
"1160 -98 OFFCURVE",
"874 -60 OFFCURVE",
"698 10 CURVE",
"688 -8 LINE",
"1166 -56 OFFCURVE",
"1434 196 OFFCURVE",
"1434 740 CURVE SMOOTH",
"1434 1284 OFFCURVE",
"1162 1498 OFFCURVE",
"786 1498 CURVE SMOOTH",
"410 1498 OFFCURVE",
"138 1272 OFFCURVE",
"138 740 CURVE SMOOTH",
"138 146 OFFCURVE",
"424 -98 OFFCURVE",
"1394 -180 CURVE"
);
},
{
closed = 1;
nodes = (
"446 50 OFFCURVE",
"210 242 OFFCURVE",
"210 744 CURVE SMOOTH",
"210 1238 OFFCURVE",
"446 1430 OFFCURVE",
"786 1430 CURVE SMOOTH",
"1126 1430 OFFCURVE",
"1362 1238 OFFCURVE",
"1362 736 CURVE SMOOTH",
"1362 242 OFFCURVE",
"1126 50 OFFCURVE",
"786 50 CURVE SMOOTH"
);
}
);
width = 1572;
},
{
background = {
paths = (
{
closed = 1;
nodes = (
"1798 -44 LINE",
"1488 -6 OFFCURVE",
"1208 50 OFFCURVE",
"946 140 CURVE",
"784 28 LINE",
"1490 -60 OFFCURVE",
"1806 274 OFFCURVE",
"1806 740 CURVE SMOOTH",
"1806 1206 OFFCURVE",
"1480 1500 OFFCURVE",
"944 1500 CURVE SMOOTH",
"408 1500 OFFCURVE",
"82 1210 OFFCURVE",
"82 720 CURVE SMOOTH",
"82 224 OFFCURVE",
"418 -204 OFFCURVE",
"1728 -394 CURVE"
);
},
{
closed = 1;
nodes = (
"690 348 OFFCURVE",
"562 476 OFFCURVE",
"562 748 CURVE SMOOTH",
"562 1000 OFFCURVE",
"700 1132 OFFCURVE",
"944 1132 CURVE SMOOTH",
"1188 1132 OFFCURVE",
"1326 994 OFFCURVE",
"1326 732 CURVE SMOOTH",
"1326 486 OFFCURVE",
"1194 348 OFFCURVE",
"944 348 CURVE SMOOTH"
);
}
);
};
color = -1;
layerId = "1E90A949-97C4-49F5-AA9A-AF35B6FD63CF";
paths = (
{
closed = 1;
nodes = (
"1800 -44 LINE",
"1490 -6 OFFCURVE",
"1210 50 OFFCURVE",
"948 140 CURVE",
"786 28 LINE",
"1492 -60 OFFCURVE",
"1808 274 OFFCURVE",
"1808 740 CURVE SMOOTH",
"1808 1206 OFFCURVE",
"1482 1500 OFFCURVE",
"946 1500 CURVE SMOOTH",
"410 1500 OFFCURVE",
"84 1210 OFFCURVE",
"84 720 CURVE SMOOTH",
"84 224 OFFCURVE",
"420 -204 OFFCURVE",
"1730 -394 CURVE"
);
},
{
closed = 1;
nodes = (
"696 348 OFFCURVE",
"568 476 OFFCURVE",
"568 748 CURVE SMOOTH",
"568 1000 OFFCURVE",
"706 1132 OFFCURVE",
"946 1132 CURVE SMOOTH",
"1186 1132 OFFCURVE",
"1324 994 OFFCURVE",
"1324 732 CURVE SMOOTH",
"1324 486 OFFCURVE",
"1192 348 OFFCURVE",
"946 348 CURVE SMOOTH"
);
}
);
width = 1892;
}
);
leftKerningGroup = O;
rightKerningGroup = O;
unicode = 0051;
userData = {
com.typemytype.robofont.layerData = {
};
};
},
{
glyphname = R;
layers = (
{
anchors = (
{
name = bottom;
position = "{724, 0}";
},
{
name = top;
position = "{678, 1520}";
}
);
background = {
anchors = (
{
name = bottom;
position = "{682, 0}";
},
{
name = top;
position = "{672, 1520}";
}
);
paths = (
{
closed = 1;
nodes = (
"278 0 LINE",
"278 664 LINE",
"378 656 OFFCURVE",
"456 650 OFFCURVE",
"570 650 CURVE SMOOTH",
"1004 650 OFFCURVE",
"1208 792 OFFCURVE",
"1208 1076 CURVE SMOOTH",
"1208 1374 OFFCURVE",
"1022 1494 OFFCURVE",
"616 1494 CURVE SMOOTH",
"440 1494 OFFCURVE",
"322 1476 OFFCURVE",
"210 1454 CURVE",
"210 0 LINE"
);
},
{
closed = 1;
nodes = (
"1308 0 LINE",
"710 708 LINE",
"622 708 LINE",
"1220 0 LINE"
);
},
{
closed = 1;
nodes = (
"442 716 OFFCURVE",
"386 720 OFFCURVE",
"278 730 CURVE",
"278 1398 LINE",
"378 1416 OFFCURVE",
"464 1428 OFFCURVE",
"614 1428 CURVE SMOOTH",
"984 1428 OFFCURVE",
"1140 1340 OFFCURVE",
"1140 1072 CURVE SMOOTH",
"1140 836 OFFCURVE",
"978 716 OFFCURVE",
"572 716 CURVE SMOOTH"
);
}
);
};
color = -1;
layerId = "E28BEEB5-BD92-4E7A-B4EA-FC5E5BBBF580";
paths = (
{
closed = 1;
nodes = (
"284 0 LINE",
"284 664 LINE",
"384 656 OFFCURVE",
"462 650 OFFCURVE",
"576 650 CURVE SMOOTH",
"1010 650 OFFCURVE",
"1214 792 OFFCURVE",
"1214 1076 CURVE SMOOTH",
"1214 1374 OFFCURVE",
"1028 1494 OFFCURVE",
"622 1494 CURVE SMOOTH",
"446 1494 OFFCURVE",
"328 1476 OFFCURVE",
"216 1454 CURVE",
"216 0 LINE"
);
},
{
closed = 1;
nodes = (
"1314 0 LINE",
"714 708 LINE",
"627 708 LINE",
"1225 0 LINE"
);
},
{
closed = 1;
nodes = (
"448 716 OFFCURVE",
"392 720 OFFCURVE",
"284 730 CURVE",
"284 1398 LINE",
"384 1416 OFFCURVE",
"470 1428 OFFCURVE",
"620 1428 CURVE SMOOTH",
"990 1428 OFFCURVE",
"1146 1340 OFFCURVE",
"1146 1072 CURVE SMOOTH",
"1146 836 OFFCURVE",
"984 716 OFFCURVE",
"578 716 CURVE SMOOTH"
);
}
);
width = 1410;
},
{
anchors = (
{
name = bottom;
position = "{818, 0}";
},
{
name = top;
position = "{796, 1520}";
}
);
background = {
paths = (
{
closed = 1;
nodes = (
"594 0 LINE",
"594 522 LINE",
"642 522 OFFCURVE",
"690 520 OFFCURVE",
"732 520 CURVE SMOOTH",
"1162 520 OFFCURVE",
"1430 680 OFFCURVE",
"1430 1008 CURVE SMOOTH",
"1430 1350 OFFCURVE",
"1178 1500 OFFCURVE",
"696 1500 CURVE SMOOTH",
"522 1500 OFFCURVE",
"286 1470 OFFCURVE",
"128 1432 CURVE",
"128 0 LINE"
);
},
{
closed = 1;
nodes = (
"1584 0 LINE",
"1076 680 LINE",
"562 680 LINE",
"1062 0 LINE"
);
},
{
closed = 1;
nodes = (
"704 840 OFFCURVE",
"650 844 OFFCURVE",
"594 848 CURVE",
"594 1162 LINE",
"642 1168 OFFCURVE",
"696 1176 OFFCURVE",
"740 1176 CURVE SMOOTH",
"908 1176 OFFCURVE",
"990 1124 OFFCURVE",
"990 1008 CURVE SMOOTH",
"990 884 OFFCURVE",
"908 840 OFFCURVE",
"752 840 CURVE SMOOTH"
);
}
);
};
color = -1;
layerId = "1E90A949-97C4-49F5-AA9A-AF35B6FD63CF";
paths = (
{
closed = 1;
nodes = (
"596 0 LINE",
"596 496 LINE",
"644 494 OFFCURVE",
"692 492 OFFCURVE",
"734 492 CURVE SMOOTH",
"1158 492 OFFCURVE",
"1432 664 OFFCURVE",
"1432 998 CURVE SMOOTH",
"1432 1346 OFFCURVE",
"1174 1500 OFFCURVE",
"698 1500 CURVE SMOOTH",
"524 1500 OFFCURVE",
"288 1470 OFFCURVE",
"130 1432 CURVE",
"130 0 LINE"
);
},
{
closed = 1;
nodes = (
"1582 0 LINE",
"1082 680 LINE",
"568 680 LINE",
"1060 0 LINE"
);
},
{
closed = 1;
nodes = (
"706 820 OFFCURVE",
"646 824 OFFCURVE",
"596 830 CURVE",
"596 1162 LINE",
"640 1170 OFFCURVE",
"698 1176 OFFCURVE",
"742 1176 CURVE SMOOTH",
"910 1176 OFFCURVE",
"992 1120 OFFCURVE",
"992 998 CURVE SMOOTH",
"992 868 OFFCURVE",
"910 820 OFFCURVE",
"754 820 CURVE SMOOTH"
);
}
);
width = 1578;
}
);
leftKerningGroup = H;
rightKerningGroup = R;
unicode = 0052;
userData = {
com.typemytype.robofont.layerData = {
};
};
},
{
glyphname = S;
layers = (
{
anchors = (
{
name = bottom;
position = "{584, 0}";
},
{
name = top;
position = "{584, 1520}";
}
);
background = {
guideLines = (
{
position = "{434, 1498}";
}
);
paths = (
{
closed = 1;
nodes = (
"852 -18 OFFCURVE",
"1046 124 OFFCURVE",
"1046 384 CURVE SMOOTH",
"1046 588 OFFCURVE",
"930 706 OFFCURVE",
"584 772 CURVE SMOOTH",
"270 832 OFFCURVE",
"168 914 OFFCURVE",
"168 1108 CURVE SMOOTH",
"168 1316 OFFCURVE",
"318 1432 OFFCURVE",
"614 1432 CURVE SMOOTH",
"738 1432 OFFCURVE",
"860 1414 OFFCURVE",
"984 1376 CURVE",
"984 1444 LINE",
"870 1480 OFFCURVE",
"744 1498 OFFCURVE",
"618 1498 CURVE SMOOTH",
"270 1498 OFFCURVE",
"96 1344 OFFCURVE",
"96 1104 CURVE SMOOTH",
"96 882 OFFCURVE",
"222 772 OFFCURVE",
"570 704 CURVE SMOOTH",
"872 644 OFFCURVE",
"974 566 OFFCURVE",
"974 382 CURVE SMOOTH",
"974 164 OFFCURVE",
"820 48 OFFCURVE",
"508 48 CURVE SMOOTH",
"392 48 OFFCURVE",
"258 66 OFFCURVE",
"114 114 CURVE",
"114 46 LINE",
"242 2 OFFCURVE",
"384 -18 OFFCURVE",
"506 -18 CURVE SMOOTH"
);
}
);
};
color = -1;
layerId = "E28BEEB5-BD92-4E7A-B4EA-FC5E5BBBF580";
paths = (
{
closed = 1;
nodes = (
"858 -18 OFFCURVE",
"1052 124 OFFCURVE",
"1052 384 CURVE SMOOTH",
"1052 592 OFFCURVE",
"924 710 OFFCURVE",
"606 772 CURVE SMOOTH",
"534 786 LINE SMOOTH",
"270 838 OFFCURVE",
"174 926 OFFCURVE",
"174 1108 CURVE SMOOTH",
"174 1316 OFFCURVE",
"324 1432 OFFCURVE",
"620 1432 CURVE SMOOTH",
"744 1432 OFFCURVE",
"866 1414 OFFCURVE",
"990 1376 CURVE",
"990 1444 LINE",
"876 1480 OFFCURVE",
"750 1498 OFFCURVE",
"624 1498 CURVE SMOOTH",
"276 1498 OFFCURVE",
"102 1344 OFFCURVE",
"102 1104 CURVE SMOOTH",
"102 894 OFFCURVE",
"232 770 OFFCURVE",
"520 714 CURVE SMOOTH",
"592 700 LINE SMOOTH",
"866 646 OFFCURVE",
"980 566 OFFCURVE",
"980 382 CURVE SMOOTH",
"980 164 OFFCURVE",
"826 48 OFFCURVE",
"514 48 CURVE SMOOTH",
"398 48 OFFCURVE",
"264 66 OFFCURVE",
"120 114 CURVE",
"120 46 LINE",
"248 2 OFFCURVE",
"390 -18 OFFCURVE",
"512 -18 CURVE SMOOTH"
);
}
);
width = 1154;
},
{
anchors = (
{
name = bottom;
position = "{704, 0}";
},
{
name = top;
position = "{704, 1520}";
}
);
background = {
paths = (
{
closed = 1;
nodes = (
"1048 -20 OFFCURVE",
"1314 166 OFFCURVE",
"1314 466 CURVE SMOOTH",
"1314 696 OFFCURVE",
"1182 846 OFFCURVE",
"808 918 CURVE SMOOTH",
"664 946 LINE SMOOTH",
"554 968 OFFCURVE",
"530 990 OFFCURVE",
"530 1036 CURVE SMOOTH",
"530 1094 OFFCURVE",
"588 1138 OFFCURVE",
"844 1138 CURVE SMOOTH",
"970 1138 OFFCURVE",
"1128 1118 OFFCURVE",
"1228 1090 CURVE",
"1228 1458 LINE",
"1122 1482 OFFCURVE",
"978 1500 OFFCURVE",
"820 1500 CURVE SMOOTH",
"310 1500 OFFCURVE",
"64 1328 OFFCURVE",
"64 1020 CURVE SMOOTH",
"64 782 OFFCURVE",
"196 638 OFFCURVE",
"538 572 CURVE SMOOTH",
"682 544 LINE SMOOTH",
"820 518 OFFCURVE",
"848 494 OFFCURVE",
"848 442 CURVE SMOOTH",
"848 382 OFFCURVE",
"806 342 OFFCURVE",
"600 342 CURVE SMOOTH",
"474 342 OFFCURVE",
"246 368 OFFCURVE",
"106 412 CURVE",
"106 44 LINE",
"248 6 OFFCURVE",
"414 -20 OFFCURVE",
"604 -20 CURVE SMOOTH"
);
}
);
};
color = -1;
layerId = "1E90A949-97C4-49F5-AA9A-AF35B6FD63CF";
paths = (
{
closed = 1;
nodes = (
"1048 -20 OFFCURVE",
"1314 166 OFFCURVE",
"1314 466 CURVE SMOOTH",
"1314 696 OFFCURVE",
"1182 846 OFFCURVE",
"808 918 CURVE SMOOTH",
"664 946 LINE SMOOTH",
"554 968 OFFCURVE",
"530 990 OFFCURVE",
"530 1036 CURVE SMOOTH",
"530 1094 OFFCURVE",
"588 1138 OFFCURVE",
"824 1138 CURVE SMOOTH",
"970 1138 OFFCURVE",
"1128 1116 OFFCURVE",
"1228 1086 CURVE",
"1228 1454 LINE",
"1122 1480 OFFCURVE",
"978 1500 OFFCURVE",
"810 1500 CURVE SMOOTH",
"310 1500 OFFCURVE",
"64 1328 OFFCURVE",
"64 1020 CURVE SMOOTH",
"64 782 OFFCURVE",
"196 638 OFFCURVE",
"538 572 CURVE SMOOTH",
"682 544 LINE SMOOTH",
"820 518 OFFCURVE",
"848 494 OFFCURVE",
"848 442 CURVE SMOOTH",
"848 382 OFFCURVE",
"806 342 OFFCURVE",
"620 342 CURVE SMOOTH",
"470 342 OFFCURVE",
"246 370 OFFCURVE",
"106 418 CURVE",
"106 50 LINE",
"248 8 OFFCURVE",
"414 -20 OFFCURVE",
"616 -20 CURVE SMOOTH"
);
}
);
width = 1378;
}
);
leftKerningGroup = S;
rightKerningGroup = S;
unicode = 0053;
userData = {
com.typemytype.robofont.layerData = {
};
};
},
{
glyphname = Germandbls;
layers = (
{
background = {
paths = (
{
closed = 1;
nodes = (
"1544 -18 OFFCURVE",
"1738 124 OFFCURVE",
"1738 384 CURVE SMOOTH",
"1738 588 OFFCURVE",
"1622 706 OFFCURVE",
"1276 772 CURVE SMOOTH",
"962 832 OFFCURVE",
"860 914 OFFCURVE",
"860 1108 CURVE SMOOTH",
"860 1316 OFFCURVE",
"1010 1432 OFFCURVE",
"1306 1432 CURVE SMOOTH",
"1430 1432 OFFCURVE",
"1552 1414 OFFCURVE",
"1676 1376 CURVE",
"1676 1444 LINE",
"1562 1480 OFFCURVE",
"1436 1498 OFFCURVE",
"1310 1498 CURVE SMOOTH",
"962 1498 OFFCURVE",
"788 1344 OFFCURVE",
"788 1104 CURVE SMOOTH",
"788 882 OFFCURVE",
"914 774 OFFCURVE",
"1262 704 CURVE SMOOTH",
"1564 644 OFFCURVE",
"1666 566 OFFCURVE",
"1666 382 CURVE SMOOTH",
"1666 164 OFFCURVE",
"1512 48 OFFCURVE",
"1200 48 CURVE SMOOTH",
"1084 48 OFFCURVE",
"950 66 OFFCURVE",
"806 114 CURVE",
"806 46 LINE",
"934 2 OFFCURVE",
"1076 -18 OFFCURVE",
"1198 -18 CURVE SMOOTH"
);
},
{
closed = 1;
nodes = (
"278 0 LINE",
"278 924 LINE SMOOTH",
"278 1282 OFFCURVE",
"436 1432 OFFCURVE",
"776 1432 CURVE SMOOTH",
"872 1432 OFFCURVE",
"952 1420 OFFCURVE",
"1020 1396 CURVE",
"1096 1432 LINE",
"1014 1478 OFFCURVE",
"908 1498 OFFCURVE",
"776 1498 CURVE SMOOTH",
"394 1498 OFFCURVE",
"210 1326 OFFCURVE",
"210 914 CURVE SMOOTH",
"210 0 LINE"
);
}
);
};
color = -1;
layerId = "E28BEEB5-BD92-4E7A-B4EA-FC5E5BBBF580";
paths = (
{
closed = 1;
nodes = (
"1136 1454 OFFCURVE",
"985 1498 OFFCURVE",
"794 1498 CURVE SMOOTH",
"414 1498 OFFCURVE",
"216 1325 OFFCURVE",
"216 914 CURVE SMOOTH",
"216 0 LINE",
"284 0 LINE",
"284 924 LINE SMOOTH",
"284 1257 OFFCURVE",
"424 1432 OFFCURVE",
"794 1432 CURVE SMOOTH",
"952 1432 OFFCURVE",
"1084 1403 OFFCURVE",
"1196 1331 CURVE",
"1199 1365 LINE",
"711 748 LINE",
"711 708 LINE",
"800 721 OFFCURVE",
"868 724 OFFCURVE",
"952 724 CURVE SMOOTH",
"1178 724 OFFCURVE",
"1316 616 OFFCURVE",
"1316 412 CURVE SMOOTH",
"1316 177 OFFCURVE",
"1166 48 OFFCURVE",
"864 48 CURVE SMOOTH",
"760 48 OFFCURVE",
"655 66 OFFCURVE",
"510 114 CURVE",
"510 46 LINE",
"638 2 OFFCURVE",
"752 -18 OFFCURVE",
"862 -18 CURVE SMOOTH",
"1199 -18 OFFCURVE",
"1388 135 OFFCURVE",
"1388 414 CURVE SMOOTH",
"1388 672 OFFCURVE",
"1206 790 OFFCURVE",
"972 790 CURVE SMOOTH",
"898 790 OFFCURVE",
"855 789 OFFCURVE",
"809 780 CURVE",
"807 768 LINE",
"1256 1336 LINE",
"1256 1373 LINE"
);
}
);
width = 1490;
},
{
background = {
paths = (
{
closed = 1;
nodes = (
"1826 -20 OFFCURVE",
"2080 166 OFFCURVE",
"2080 466 CURVE SMOOTH",
"2080 716 OFFCURVE",
"1934 842 OFFCURVE",
"1594 916 CURVE SMOOTH",
"1382 962 OFFCURVE",
"1354 986 OFFCURVE",
"1354 1040 CURVE SMOOTH",
"1354 1094 OFFCURVE",
"1408 1138 OFFCURVE",
"1632 1138 CURVE SMOOTH",
"1752 1138 OFFCURVE",
"1902 1118 OFFCURVE",
"1998 1090 CURVE",
"1998 1458 LINE",
"1898 1482 OFFCURVE",
"1760 1500 OFFCURVE",
"1610 1500 CURVE SMOOTH",
"1124 1500 OFFCURVE",
"890 1328 OFFCURVE",
"890 1020 CURVE SMOOTH",
"890 782 OFFCURVE",
"1032 630 OFFCURVE",
"1346 572 CURVE SMOOTH",
"1576 530 OFFCURVE",
"1616 498 OFFCURVE",
"1616 432 CURVE SMOOTH",
"1616 374 OFFCURVE",
"1576 342 OFFCURVE",
"1400 342 CURVE SMOOTH",
"1280 342 OFFCURVE",
"1064 368 OFFCURVE",
"930 412 CURVE",
"930 44 LINE",
"1066 6 OFFCURVE",
"1224 -20 OFFCURVE",
"1404 -20 CURVE SMOOTH"
);
},
{
closed = 1;
nodes = (
"604 0 LINE",
"604 902 LINE SMOOTH",
"604 1048 OFFCURVE",
"678 1136 OFFCURVE",
"826 1136 CURVE SMOOTH",
"898 1136 OFFCURVE",
"954 1114 OFFCURVE",
"1010 1080 CURVE",
"1272 1384 LINE",
"1144 1460 OFFCURVE",
"998 1500 OFFCURVE",
"826 1500 CURVE SMOOTH",
"346 1500 OFFCURVE",
"128 1246 OFFCURVE",
"128 846 CURVE SMOOTH",
"128 0 LINE"
);
}
);
};
color = -1;
guideLines = (
{
position = "{1548, 1374}";
}
);
layerId = "1E90A949-97C4-49F5-AA9A-AF35B6FD63CF";
paths = (
{
closed = 1;
nodes = (
"1497 1453 OFFCURVE",
"1301 1500 OFFCURVE",
"1028 1500 CURVE SMOOTH",
"410 1500 OFFCURVE",
"130 1246 OFFCURVE",
"130 846 CURVE SMOOTH",
"130 0 LINE",
"606 0 LINE",
"606 902 LINE SMOOTH",
"606 1049 OFFCURVE",
"747 1166 OFFCURVE",
"1028 1166 CURVE SMOOTH",
"1171 1166 OFFCURVE",
"1253 1157 OFFCURVE",
"1348 1130 CURVE",
"1382 1308 LINE",
"899 836 LINE",
"899 582 LINE",
"994 597 OFFCURVE",
"1064 602 OFFCURVE",
"1146 602 CURVE SMOOTH",
"1315 602 OFFCURVE",
"1381 549 OFFCURVE",
"1381 472 CURVE SMOOTH",
"1381 393 OFFCURVE",
"1315 342 OFFCURVE",
"1192 342 CURVE SMOOTH",
"1072 342 OFFCURVE",
"899 368 OFFCURVE",
"782 412 CURVE",
"782 44 LINE",
"901 6 OFFCURVE",
"1039 -20 OFFCURVE",
"1196 -20 CURVE SMOOTH",
"1634 -20 OFFCURVE",
"1839 182 OFFCURVE",
"1839 442 CURVE SMOOTH",
"1839 694 OFFCURVE",
"1641 856 OFFCURVE",
"1351 856 CURVE SMOOTH",
"1315 856 OFFCURVE",
"1277 853 OFFCURVE",
"1238 848 CURVE",
"1258 732 LINE",
"1690 1120 LINE",
"1690 1374 LINE"
);
}
);
width = 1903;
},
{
associatedMasterId = "E28BEEB5-BD92-4E7A-B4EA-FC5E5BBBF580";
background = {
paths = (
{
closed = 1;
nodes = (
"1544 -18 OFFCURVE",
"1738 124 OFFCURVE",
"1738 384 CURVE SMOOTH",
"1738 588 OFFCURVE",
"1622 706 OFFCURVE",
"1276 772 CURVE SMOOTH",
"962 832 OFFCURVE",
"860 914 OFFCURVE",
"860 1108 CURVE SMOOTH",
"860 1316 OFFCURVE",
"1010 1432 OFFCURVE",
"1306 1432 CURVE SMOOTH",
"1430 1432 OFFCURVE",
"1552 1414 OFFCURVE",
"1676 1376 CURVE",
"1676 1444 LINE",
"1562 1480 OFFCURVE",
"1436 1498 OFFCURVE",
"1310 1498 CURVE SMOOTH",
"962 1498 OFFCURVE",
"788 1344 OFFCURVE",
"788 1104 CURVE SMOOTH",
"788 882 OFFCURVE",
"914 774 OFFCURVE",
"1262 704 CURVE SMOOTH",
"1564 644 OFFCURVE",
"1666 566 OFFCURVE",
"1666 382 CURVE SMOOTH",
"1666 164 OFFCURVE",
"1512 48 OFFCURVE",
"1200 48 CURVE SMOOTH",
"1084 48 OFFCURVE",
"950 66 OFFCURVE",
"806 114 CURVE",
"806 46 LINE",
"934 2 OFFCURVE",
"1076 -18 OFFCURVE",
"1198 -18 CURVE SMOOTH"
);
},
{
closed = 1;
nodes = (
"278 0 LINE",
"278 924 LINE SMOOTH",
"278 1282 OFFCURVE",
"436 1432 OFFCURVE",
"776 1432 CURVE SMOOTH",
"872 1432 OFFCURVE",
"952 1420 OFFCURVE",
"1020 1396 CURVE",
"1096 1432 LINE",
"1014 1478 OFFCURVE",
"908 1498 OFFCURVE",
"776 1498 CURVE SMOOTH",
"394 1498 OFFCURVE",
"210 1326 OFFCURVE",
"210 914 CURVE SMOOTH",
"210 0 LINE"
);
}
);
};
color = -1;
layerId = "08269E89-DB82-4981-B71D-016A3D20B286";
name = "Nov 1 18, 12:27";
paths = (
{
closed = 1;
nodes = (
"1550 -18 OFFCURVE",
"1744 124 OFFCURVE",
"1744 384 CURVE SMOOTH",
"1744 592 OFFCURVE",
"1616 710 OFFCURVE",
"1298 772 CURVE SMOOTH",
"1226 786 LINE SMOOTH",
"962 838 OFFCURVE",
"866 926 OFFCURVE",
"866 1108 CURVE SMOOTH",
"866 1316 OFFCURVE",
"1016 1432 OFFCURVE",
"1312 1432 CURVE SMOOTH",
"1436 1432 OFFCURVE",
"1558 1414 OFFCURVE",
"1682 1376 CURVE",
"1682 1444 LINE",
"1568 1480 OFFCURVE",
"1442 1498 OFFCURVE",
"1316 1498 CURVE SMOOTH",
"968 1498 OFFCURVE",
"794 1344 OFFCURVE",
"794 1104 CURVE SMOOTH",
"794 894 OFFCURVE",
"924 770 OFFCURVE",
"1212 714 CURVE SMOOTH",
"1284 700 LINE SMOOTH",
"1558 646 OFFCURVE",
"1672 566 OFFCURVE",
"1672 382 CURVE SMOOTH",
"1672 164 OFFCURVE",
"1518 48 OFFCURVE",
"1206 48 CURVE SMOOTH",
"1090 48 OFFCURVE",
"956 66 OFFCURVE",
"812 114 CURVE",
"812 46 LINE",
"940 2 OFFCURVE",
"1082 -18 OFFCURVE",
"1204 -18 CURVE SMOOTH"
);
},
{
closed = 1;
nodes = (
"284 0 LINE",
"284 924 LINE SMOOTH",
"284 1282 OFFCURVE",
"442 1432 OFFCURVE",
"782 1432 CURVE SMOOTH",
"878 1432 OFFCURVE",
"958 1420 OFFCURVE",
"1026 1396 CURVE",
"1102 1432 LINE",
"1020 1478 OFFCURVE",
"914 1498 OFFCURVE",
"782 1498 CURVE SMOOTH",
"400 1498 OFFCURVE",
"216 1326 OFFCURVE",
"216 914 CURVE SMOOTH",
"216 0 LINE"
);
}
);
width = 1846;
},
{
associatedMasterId = "1E90A949-97C4-49F5-AA9A-AF35B6FD63CF";
background = {
paths = (
{
closed = 1;
nodes = (
"1826 -20 OFFCURVE",
"2080 166 OFFCURVE",
"2080 466 CURVE SMOOTH",
"2080 716 OFFCURVE",
"1934 842 OFFCURVE",
"1594 916 CURVE SMOOTH",
"1382 962 OFFCURVE",
"1354 986 OFFCURVE",
"1354 1040 CURVE SMOOTH",
"1354 1094 OFFCURVE",
"1408 1138 OFFCURVE",
"1632 1138 CURVE SMOOTH",
"1752 1138 OFFCURVE",
"1902 1118 OFFCURVE",
"1998 1090 CURVE",
"1998 1458 LINE",
"1898 1482 OFFCURVE",
"1760 1500 OFFCURVE",
"1610 1500 CURVE SMOOTH",
"1124 1500 OFFCURVE",
"890 1328 OFFCURVE",
"890 1020 CURVE SMOOTH",
"890 782 OFFCURVE",
"1032 630 OFFCURVE",
"1346 572 CURVE SMOOTH",
"1576 530 OFFCURVE",
"1616 498 OFFCURVE",
"1616 432 CURVE SMOOTH",
"1616 374 OFFCURVE",
"1576 342 OFFCURVE",
"1400 342 CURVE SMOOTH",
"1280 342 OFFCURVE",
"1064 368 OFFCURVE",
"930 412 CURVE",
"930 44 LINE",
"1066 6 OFFCURVE",
"1224 -20 OFFCURVE",
"1404 -20 CURVE SMOOTH"
);
},
{
closed = 1;
nodes = (
"604 0 LINE",
"604 902 LINE SMOOTH",
"604 1048 OFFCURVE",
"678 1136 OFFCURVE",
"826 1136 CURVE SMOOTH",
"898 1136 OFFCURVE",
"954 1114 OFFCURVE",
"1010 1080 CURVE",
"1272 1384 LINE",
"1144 1460 OFFCURVE",
"998 1500 OFFCURVE",
"826 1500 CURVE SMOOTH",
"346 1500 OFFCURVE",
"128 1246 OFFCURVE",
"128 846 CURVE SMOOTH",
"128 0 LINE"
);
}
);
};
color = -1;
layerId = "223B465B-0EA6-4EA9-A787-F68ED0C6D795";
name = "Nov 1 18, 12:55";
paths = (
{
closed = 1;
nodes = (
"1828 -20 OFFCURVE",
"2082 166 OFFCURVE",
"2082 466 CURVE SMOOTH",
"2082 696 OFFCURVE",
"1956 844 OFFCURVE",
"1600 918 CURVE SMOOTH",
"1464 946 LINE SMOOTH",
"1372 964 OFFCURVE",
"1350 990 OFFCURVE",
"1350 1036 CURVE SMOOTH",
"1350 1094 OFFCURVE",
"1404 1138 OFFCURVE",
"1634 1138 CURVE SMOOTH",
"1754 1138 OFFCURVE",
"1904 1118 OFFCURVE",
"2000 1090 CURVE",
"2000 1458 LINE",
"1900 1482 OFFCURVE",
"1762 1500 OFFCURVE",
"1612 1500 CURVE SMOOTH",
"1126 1500 OFFCURVE",
"892 1328 OFFCURVE",
"892 1020 CURVE SMOOTH",
"892 782 OFFCURVE",
"1018 640 OFFCURVE",
"1344 572 CURVE SMOOTH",
"1480 544 LINE SMOOTH",
"1598 520 OFFCURVE",
"1624 494 OFFCURVE",
"1624 442 CURVE SMOOTH",
"1624 382 OFFCURVE",
"1584 342 OFFCURVE",
"1402 342 CURVE SMOOTH",
"1282 342 OFFCURVE",
"1066 368 OFFCURVE",
"932 412 CURVE",
"932 44 LINE",
"1068 6 OFFCURVE",
"1226 -20 OFFCURVE",
"1406 -20 CURVE SMOOTH"
);
},
{
closed = 1;
nodes = (
"606 0 LINE",
"606 902 LINE SMOOTH",
"606 1048 OFFCURVE",
"680 1136 OFFCURVE",
"828 1136 CURVE SMOOTH",
"900 1136 OFFCURVE",
"956 1114 OFFCURVE",
"1012 1080 CURVE",
"1274 1384 LINE",
"1146 1460 OFFCURVE",
"1000 1500 OFFCURVE",
"828 1500 CURVE SMOOTH",
"348 1500 OFFCURVE",
"130 1246 OFFCURVE",
"130 846 CURVE SMOOTH",
"130 0 LINE"
);
}
);
width = 2146;
},
{
associatedMasterId = "1E90A949-97C4-49F5-AA9A-AF35B6FD63CF";
background = {
paths = (
{
closed = 1;
nodes = (
"1826 -20 OFFCURVE",
"2080 166 OFFCURVE",
"2080 466 CURVE SMOOTH",
"2080 716 OFFCURVE",
"1934 842 OFFCURVE",
"1594 916 CURVE SMOOTH",
"1382 962 OFFCURVE",
"1354 986 OFFCURVE",
"1354 1040 CURVE SMOOTH",
"1354 1094 OFFCURVE",
"1408 1138 OFFCURVE",
"1632 1138 CURVE SMOOTH",
"1752 1138 OFFCURVE",
"1902 1118 OFFCURVE",
"1998 1090 CURVE",
"1998 1458 LINE",
"1898 1482 OFFCURVE",
"1760 1500 OFFCURVE",
"1610 1500 CURVE SMOOTH",
"1124 1500 OFFCURVE",
"890 1328 OFFCURVE",
"890 1020 CURVE SMOOTH",
"890 782 OFFCURVE",
"1032 630 OFFCURVE",
"1346 572 CURVE SMOOTH",
"1576 530 OFFCURVE",
"1616 498 OFFCURVE",
"1616 432 CURVE SMOOTH",
"1616 374 OFFCURVE",
"1576 342 OFFCURVE",
"1400 342 CURVE SMOOTH",
"1280 342 OFFCURVE",
"1064 368 OFFCURVE",
"930 412 CURVE",
"930 44 LINE",
"1066 6 OFFCURVE",
"1224 -20 OFFCURVE",
"1404 -20 CURVE SMOOTH"
);
},
{
closed = 1;
nodes = (
"604 0 LINE",
"604 902 LINE SMOOTH",
"604 1048 OFFCURVE",
"678 1136 OFFCURVE",
"826 1136 CURVE SMOOTH",
"898 1136 OFFCURVE",
"954 1114 OFFCURVE",
"1010 1080 CURVE",
"1272 1384 LINE",
"1144 1460 OFFCURVE",
"998 1500 OFFCURVE",
"826 1500 CURVE SMOOTH",
"346 1500 OFFCURVE",
"128 1246 OFFCURVE",
"128 846 CURVE SMOOTH",
"128 0 LINE"
);
}
);
};
color = -1;
layerId = "B78E4822-08A8-435C-B3C2-D5CBBF169848";
name = "Nov 1 18, 15:04";
paths = (
{
closed = 1;
nodes = (
"1828 -20 OFFCURVE",
"2082 166 OFFCURVE",
"2082 466 CURVE SMOOTH",
"2082 696 OFFCURVE",
"1956 844 OFFCURVE",
"1600 918 CURVE SMOOTH",
"1464 946 LINE SMOOTH",
"1372 964 OFFCURVE",
"1350 990 OFFCURVE",
"1350 1036 CURVE SMOOTH",
"1350 1094 OFFCURVE",
"1404 1138 OFFCURVE",
"1634 1138 CURVE SMOOTH",
"1754 1138 OFFCURVE",
"1904 1118 OFFCURVE",
"2000 1090 CURVE",
"2000 1458 LINE",
"1900 1482 OFFCURVE",
"1762 1500 OFFCURVE",
"1612 1500 CURVE SMOOTH",
"1126 1500 OFFCURVE",
"892 1328 OFFCURVE",
"892 1020 CURVE SMOOTH",
"892 782 OFFCURVE",
"1018 640 OFFCURVE",
"1344 572 CURVE SMOOTH",
"1480 544 LINE SMOOTH",
"1598 520 OFFCURVE",
"1624 494 OFFCURVE",
"1624 442 CURVE SMOOTH",
"1624 382 OFFCURVE",
"1584 342 OFFCURVE",
"1402 342 CURVE SMOOTH",
"1282 342 OFFCURVE",
"1066 368 OFFCURVE",
"932 412 CURVE",
"932 44 LINE",
"1068 6 OFFCURVE",
"1226 -20 OFFCURVE",
"1406 -20 CURVE SMOOTH"
);
},
{
closed = 1;
nodes = (
"606 0 LINE",
"606 902 LINE SMOOTH",
"606 1048 OFFCURVE",
"680 1136 OFFCURVE",
"828 1136 CURVE SMOOTH",
"900 1136 OFFCURVE",
"956 1114 OFFCURVE",
"1012 1080 CURVE",
"1274 1384 LINE",
"1146 1460 OFFCURVE",
"1000 1500 OFFCURVE",
"828 1500 CURVE SMOOTH",
"348 1500 OFFCURVE",
"130 1246 OFFCURVE",
"130 846 CURVE SMOOTH",
"130 0 LINE"
);
}
);
width = 2146;
},
{
associatedMasterId = "1E90A949-97C4-49F5-AA9A-AF35B6FD63CF";
background = {
paths = (
{
closed = 1;
nodes = (
"1826 -20 OFFCURVE",
"2080 166 OFFCURVE",
"2080 466 CURVE SMOOTH",
"2080 716 OFFCURVE",
"1934 842 OFFCURVE",
"1594 916 CURVE SMOOTH",
"1382 962 OFFCURVE",
"1354 986 OFFCURVE",
"1354 1040 CURVE SMOOTH",
"1354 1094 OFFCURVE",
"1408 1138 OFFCURVE",
"1632 1138 CURVE SMOOTH",
"1752 1138 OFFCURVE",
"1902 1118 OFFCURVE",
"1998 1090 CURVE",
"1998 1458 LINE",
"1898 1482 OFFCURVE",
"1760 1500 OFFCURVE",
"1610 1500 CURVE SMOOTH",
"1124 1500 OFFCURVE",
"890 1328 OFFCURVE",
"890 1020 CURVE SMOOTH",
"890 782 OFFCURVE",
"1032 630 OFFCURVE",
"1346 572 CURVE SMOOTH",
"1576 530 OFFCURVE",
"1616 498 OFFCURVE",
"1616 432 CURVE SMOOTH",
"1616 374 OFFCURVE",
"1576 342 OFFCURVE",
"1400 342 CURVE SMOOTH",
"1280 342 OFFCURVE",
"1064 368 OFFCURVE",
"930 412 CURVE",
"930 44 LINE",
"1066 6 OFFCURVE",
"1224 -20 OFFCURVE",
"1404 -20 CURVE SMOOTH"
);
},
{
closed = 1;
nodes = (
"604 0 LINE",
"604 902 LINE SMOOTH",
"604 1048 OFFCURVE",
"678 1136 OFFCURVE",
"826 1136 CURVE SMOOTH",
"898 1136 OFFCURVE",
"954 1114 OFFCURVE",
"1010 1080 CURVE",
"1272 1384 LINE",
"1144 1460 OFFCURVE",
"998 1500 OFFCURVE",
"826 1500 CURVE SMOOTH",
"346 1500 OFFCURVE",
"128 1246 OFFCURVE",
"128 846 CURVE SMOOTH",
"128 0 LINE"
);
}
);
};
color = -1;
guideLines = (
{
position = "{1548, 1374}";
}
);
layerId = "B41B8C3E-36CC-4B55-8AF3-3EEB1A29ABD5";
name = "Nov 1 18, 16:07";
paths = (
{
closed = 1;
nodes = (
"606 0 LINE",
"606 902 LINE SMOOTH",
"606 1048 OFFCURVE",
"747 1136 OFFCURVE",
"1028 1136 CURVE SMOOTH",
"1225 1136 OFFCURVE",
"1375 1125 OFFCURVE",
"1528 1109 CURVE",
"1780 1374 LINE",
"1563 1456 OFFCURVE",
"1320 1500 OFFCURVE",
"1028 1500 CURVE SMOOTH",
"410 1500 OFFCURVE",
"130 1246 OFFCURVE",
"130 846 CURVE SMOOTH",
"130 0 LINE"
);
},
{
closed = 1;
nodes = (
"1214 754 LINE",
"1780 1120 LINE",
"1780 1374 LINE",
"1297 1213 LINE",
"919 817 LINE",
"919 563 LINE"
);
},
{
closed = 1;
nodes = (
"1919 705 OFFCURVE",
"1688 869 OFFCURVE",
"1353 862 CURVE SMOOTH",
"1221 859 OFFCURVE",
"1101 833 OFFCURVE",
"1020 812 CURVE",
"919 563 LINE",
"1028 586 OFFCURVE",
"1133 594 OFFCURVE",
"1242 594 CURVE SMOOTH",
"1398 594 OFFCURVE",
"1461 540 OFFCURVE",
"1461 473 CURVE SMOOTH",
"1461 408 OFFCURVE",
"1420 342 OFFCURVE",
"1272 342 CURVE SMOOTH",
"1152 342 OFFCURVE",
"936 368 OFFCURVE",
"802 412 CURVE",
"802 44 LINE",
"938 6 OFFCURVE",
"1096 -20 OFFCURVE",
"1276 -20 CURVE SMOOTH",
"1677 -20 OFFCURVE",
"1919 135 OFFCURVE",
"1919 442 CURVE SMOOTH"
);
}
);
width = 1983;
},
{
associatedMasterId = "1E90A949-97C4-49F5-AA9A-AF35B6FD63CF";
background = {
paths = (
{
closed = 1;
nodes = (
"1826 -20 OFFCURVE",
"2080 166 OFFCURVE",
"2080 466 CURVE SMOOTH",
"2080 716 OFFCURVE",
"1934 842 OFFCURVE",
"1594 916 CURVE SMOOTH",
"1382 962 OFFCURVE",
"1354 986 OFFCURVE",
"1354 1040 CURVE SMOOTH",
"1354 1094 OFFCURVE",
"1408 1138 OFFCURVE",
"1632 1138 CURVE SMOOTH",
"1752 1138 OFFCURVE",
"1902 1118 OFFCURVE",
"1998 1090 CURVE",
"1998 1458 LINE",
"1898 1482 OFFCURVE",
"1760 1500 OFFCURVE",
"1610 1500 CURVE SMOOTH",
"1124 1500 OFFCURVE",
"890 1328 OFFCURVE",
"890 1020 CURVE SMOOTH",
"890 782 OFFCURVE",
"1032 630 OFFCURVE",
"1346 572 CURVE SMOOTH",
"1576 530 OFFCURVE",
"1616 498 OFFCURVE",
"1616 432 CURVE SMOOTH",
"1616 374 OFFCURVE",
"1576 342 OFFCURVE",
"1400 342 CURVE SMOOTH",
"1280 342 OFFCURVE",
"1064 368 OFFCURVE",
"930 412 CURVE",
"930 44 LINE",
"1066 6 OFFCURVE",
"1224 -20 OFFCURVE",
"1404 -20 CURVE SMOOTH"
);
},
{
closed = 1;
nodes = (
"604 0 LINE",
"604 902 LINE SMOOTH",
"604 1048 OFFCURVE",
"678 1136 OFFCURVE",
"826 1136 CURVE SMOOTH",
"898 1136 OFFCURVE",
"954 1114 OFFCURVE",
"1010 1080 CURVE",
"1272 1384 LINE",
"1144 1460 OFFCURVE",
"998 1500 OFFCURVE",
"826 1500 CURVE SMOOTH",
"346 1500 OFFCURVE",
"128 1246 OFFCURVE",
"128 846 CURVE SMOOTH",
"128 0 LINE"
);
}
);
};
color = -1;
guideLines = (
{
position = "{1548, 1374}";
}
);
layerId = "D5F5D804-3C91-41B1-A53F-DD0622C0F9B5";
name = "Nov 1 18, 16:12";
paths = (
{
closed = 1;
nodes = (
"606 0 LINE",
"606 902 LINE SMOOTH",
"606 1049 OFFCURVE",
"747 1166 OFFCURVE",
"1028 1166 CURVE SMOOTH",
"1225 1166 OFFCURVE",
"1325 1139 OFFCURVE",
"1468 1109 CURVE",
"1720 1374 LINE",
"1526 1447 OFFCURVE",
"1301 1500 OFFCURVE",
"1028 1500 CURVE SMOOTH",
"410 1500 OFFCURVE",
"130 1246 OFFCURVE",
"130 846 CURVE SMOOTH",
"130 0 LINE"
);
},
{
closed = 1;
nodes = (
"1252 688 LINE",
"1720 1120 LINE",
"1720 1374 LINE",
"1319 1213 LINE",
"919 817 LINE",
"919 563 LINE"
);
},
{
closed = 1;
nodes = (
"1919 705 OFFCURVE",
"1688 869 OFFCURVE",
"1353 862 CURVE SMOOTH",
"1221 859 OFFCURVE",
"1101 833 OFFCURVE",
"1020 812 CURVE",
"919 563 LINE",
"1029 595 OFFCURVE",
"1111 606 OFFCURVE",
"1206 606 CURVE SMOOTH",
"1388 606 OFFCURVE",
"1461 547 OFFCURVE",
"1461 473 CURVE SMOOTH",
"1461 408 OFFCURVE",
"1420 342 OFFCURVE",
"1272 342 CURVE SMOOTH",
"1152 342 OFFCURVE",
"936 368 OFFCURVE",
"802 412 CURVE",
"802 44 LINE",
"938 6 OFFCURVE",
"1096 -20 OFFCURVE",
"1276 -20 CURVE SMOOTH",
"1677 -20 OFFCURVE",
"1919 135 OFFCURVE",
"1919 442 CURVE SMOOTH"
);
}
);
width = 1983;
},
{
associatedMasterId = "E28BEEB5-BD92-4E7A-B4EA-FC5E5BBBF580";
background = {
paths = (
{
closed = 1;
nodes = (
"1544 -18 OFFCURVE",
"1738 124 OFFCURVE",
"1738 384 CURVE SMOOTH",
"1738 588 OFFCURVE",
"1622 706 OFFCURVE",
"1276 772 CURVE SMOOTH",
"962 832 OFFCURVE",
"860 914 OFFCURVE",
"860 1108 CURVE SMOOTH",
"860 1316 OFFCURVE",
"1010 1432 OFFCURVE",
"1306 1432 CURVE SMOOTH",
"1430 1432 OFFCURVE",
"1552 1414 OFFCURVE",
"1676 1376 CURVE",
"1676 1444 LINE",
"1562 1480 OFFCURVE",
"1436 1498 OFFCURVE",
"1310 1498 CURVE SMOOTH",
"962 1498 OFFCURVE",
"788 1344 OFFCURVE",
"788 1104 CURVE SMOOTH",
"788 882 OFFCURVE",
"914 774 OFFCURVE",
"1262 704 CURVE SMOOTH",
"1564 644 OFFCURVE",
"1666 566 OFFCURVE",
"1666 382 CURVE SMOOTH",
"1666 164 OFFCURVE",
"1512 48 OFFCURVE",
"1200 48 CURVE SMOOTH",
"1084 48 OFFCURVE",
"950 66 OFFCURVE",
"806 114 CURVE",
"806 46 LINE",
"934 2 OFFCURVE",
"1076 -18 OFFCURVE",
"1198 -18 CURVE SMOOTH"
);
},
{
closed = 1;
nodes = (
"278 0 LINE",
"278 924 LINE SMOOTH",
"278 1282 OFFCURVE",
"436 1432 OFFCURVE",
"776 1432 CURVE SMOOTH",
"872 1432 OFFCURVE",
"952 1420 OFFCURVE",
"1020 1396 CURVE",
"1096 1432 LINE",
"1014 1478 OFFCURVE",
"908 1498 OFFCURVE",
"776 1498 CURVE SMOOTH",
"394 1498 OFFCURVE",
"210 1326 OFFCURVE",
"210 914 CURVE SMOOTH",
"210 0 LINE"
);
}
);
};
color = -1;
layerId = "A47D584A-2DAF-41CA-BDE9-0247CB85CC39";
name = "Nov 2 18, 15:40";
paths = (
{
closed = 1;
nodes = (
"284 0 LINE",
"284 924 LINE SMOOTH",
"284 1282 OFFCURVE",
"446 1432 OFFCURVE",
"794 1432 CURVE SMOOTH",
"952 1432 OFFCURVE",
"1085 1403 OFFCURVE",
"1198 1330 CURVE",
"1256 1373 LINE",
"1136 1454 OFFCURVE",
"985 1498 OFFCURVE",
"794 1498 CURVE SMOOTH",
"404 1498 OFFCURVE",
"216 1326 OFFCURVE",
"216 914 CURVE SMOOTH",
"216 0 LINE"
);
},
{
closed = 1;
nodes = (
"779 723 LINE",
"1256 1336 LINE",
"1256 1373 LINE",
"1188 1352 LINE",
"711 739 LINE",
"711 699 LINE"
);
},
{
closed = 1;
nodes = (
"1388 672 OFFCURVE",
"1206 792 OFFCURVE",
"972 792 CURVE SMOOTH",
"872 792 OFFCURVE",
"827 787 OFFCURVE",
"757 766 CURVE",
"711 699 LINE",
"800 718 OFFCURVE",
"868 726 OFFCURVE",
"952 726 CURVE SMOOTH",
"1178 726 OFFCURVE",
"1316 616 OFFCURVE",
"1316 412 CURVE SMOOTH",
"1316 177 OFFCURVE",
"1166 48 OFFCURVE",
"864 48 CURVE SMOOTH",
"760 48 OFFCURVE",
"655 66 OFFCURVE",
"510 114 CURVE",
"510 46 LINE",
"638 2 OFFCURVE",
"752 -18 OFFCURVE",
"862 -18 CURVE SMOOTH",
"1199 -18 OFFCURVE",
"1388 135 OFFCURVE",
"1388 414 CURVE SMOOTH"
);
}
);
width = 1490;
},
{
associatedMasterId = "1E90A949-97C4-49F5-AA9A-AF35B6FD63CF";
background = {
paths = (
{
closed = 1;
nodes = (
"1826 -20 OFFCURVE",
"2080 166 OFFCURVE",
"2080 466 CURVE SMOOTH",
"2080 716 OFFCURVE",
"1934 842 OFFCURVE",
"1594 916 CURVE SMOOTH",
"1382 962 OFFCURVE",
"1354 986 OFFCURVE",
"1354 1040 CURVE SMOOTH",
"1354 1094 OFFCURVE",
"1408 1138 OFFCURVE",
"1632 1138 CURVE SMOOTH",
"1752 1138 OFFCURVE",
"1902 1118 OFFCURVE",
"1998 1090 CURVE",
"1998 1458 LINE",
"1898 1482 OFFCURVE",
"1760 1500 OFFCURVE",
"1610 1500 CURVE SMOOTH",
"1124 1500 OFFCURVE",
"890 1328 OFFCURVE",
"890 1020 CURVE SMOOTH",
"890 782 OFFCURVE",
"1032 630 OFFCURVE",
"1346 572 CURVE SMOOTH",
"1576 530 OFFCURVE",
"1616 498 OFFCURVE",
"1616 432 CURVE SMOOTH",
"1616 374 OFFCURVE",
"1576 342 OFFCURVE",
"1400 342 CURVE SMOOTH",
"1280 342 OFFCURVE",
"1064 368 OFFCURVE",
"930 412 CURVE",
"930 44 LINE",
"1066 6 OFFCURVE",
"1224 -20 OFFCURVE",
"1404 -20 CURVE SMOOTH"
);
},
{
closed = 1;
nodes = (
"604 0 LINE",
"604 902 LINE SMOOTH",
"604 1048 OFFCURVE",
"678 1136 OFFCURVE",
"826 1136 CURVE SMOOTH",
"898 1136 OFFCURVE",
"954 1114 OFFCURVE",
"1010 1080 CURVE",
"1272 1384 LINE",
"1144 1460 OFFCURVE",
"998 1500 OFFCURVE",
"826 1500 CURVE SMOOTH",
"346 1500 OFFCURVE",
"128 1246 OFFCURVE",
"128 846 CURVE SMOOTH",
"128 0 LINE"
);
}
);
};
color = -1;
guideLines = (
{
position = "{1548, 1374}";
}
);
layerId = "1B6A12C0-199C-4BC7-A6DF-D2EB108BBA28";
name = "Nov 2 18, 15:40";
paths = (
{
closed = 1;
nodes = (
"606 0 LINE",
"606 902 LINE SMOOTH",
"606 1049 OFFCURVE",
"747 1166 OFFCURVE",
"1028 1166 CURVE SMOOTH",
"1212 1166 OFFCURVE",
"1295 1150 OFFCURVE",
"1438 1109 CURVE",
"1690 1374 LINE",
"1497 1453 OFFCURVE",
"1301 1500 OFFCURVE",
"1028 1500 CURVE SMOOTH",
"410 1500 OFFCURVE",
"130 1246 OFFCURVE",
"130 846 CURVE SMOOTH",
"130 0 LINE"
);
},
{
closed = 1;
nodes = (
"1232 688 LINE",
"1690 1120 LINE",
"1690 1374 LINE",
"1289 1213 LINE",
"899 817 LINE",
"899 563 LINE"
);
},
{
closed = 1;
nodes = (
"1839 705 OFFCURVE",
"1632 870 OFFCURVE",
"1333 862 CURVE SMOOTH",
"1201 859 OFFCURVE",
"1081 833 OFFCURVE",
"1000 812 CURVE",
"899 563 LINE",
"1009 590 OFFCURVE",
"1091 602 OFFCURVE",
"1186 602 CURVE SMOOTH",
"1325 602 OFFCURVE",
"1381 548 OFFCURVE",
"1381 472 CURVE SMOOTH",
"1381 393 OFFCURVE",
"1315 342 OFFCURVE",
"1192 342 CURVE SMOOTH",
"1072 342 OFFCURVE",
"899 368 OFFCURVE",
"782 412 CURVE",
"782 44 LINE",
"901 6 OFFCURVE",
"1039 -20 OFFCURVE",
"1196 -20 CURVE SMOOTH",
"1634 -20 OFFCURVE",
"1839 182 OFFCURVE",
"1839 442 CURVE SMOOTH"
);
}
);
width = 1903;
},
{
associatedMasterId = "E28BEEB5-BD92-4E7A-B4EA-FC5E5BBBF580";
background = {
paths = (
{
closed = 1;
nodes = (
"1544 -18 OFFCURVE",
"1738 124 OFFCURVE",
"1738 384 CURVE SMOOTH",
"1738 588 OFFCURVE",
"1622 706 OFFCURVE",
"1276 772 CURVE SMOOTH",
"962 832 OFFCURVE",
"860 914 OFFCURVE",
"860 1108 CURVE SMOOTH",
"860 1316 OFFCURVE",
"1010 1432 OFFCURVE",
"1306 1432 CURVE SMOOTH",
"1430 1432 OFFCURVE",
"1552 1414 OFFCURVE",
"1676 1376 CURVE",
"1676 1444 LINE",
"1562 1480 OFFCURVE",
"1436 1498 OFFCURVE",
"1310 1498 CURVE SMOOTH",
"962 1498 OFFCURVE",
"788 1344 OFFCURVE",
"788 1104 CURVE SMOOTH",
"788 882 OFFCURVE",
"914 774 OFFCURVE",
"1262 704 CURVE SMOOTH",
"1564 644 OFFCURVE",
"1666 566 OFFCURVE",
"1666 382 CURVE SMOOTH",
"1666 164 OFFCURVE",
"1512 48 OFFCURVE",
"1200 48 CURVE SMOOTH",
"1084 48 OFFCURVE",
"950 66 OFFCURVE",
"806 114 CURVE",
"806 46 LINE",
"934 2 OFFCURVE",
"1076 -18 OFFCURVE",
"1198 -18 CURVE SMOOTH"
);
},
{
closed = 1;
nodes = (
"278 0 LINE",
"278 924 LINE SMOOTH",
"278 1282 OFFCURVE",
"436 1432 OFFCURVE",
"776 1432 CURVE SMOOTH",
"872 1432 OFFCURVE",
"952 1420 OFFCURVE",
"1020 1396 CURVE",
"1096 1432 LINE",
"1014 1478 OFFCURVE",
"908 1498 OFFCURVE",
"776 1498 CURVE SMOOTH",
"394 1498 OFFCURVE",
"210 1326 OFFCURVE",
"210 914 CURVE SMOOTH",
"210 0 LINE"
);
}
);
};
color = -1;
layerId = "8817420A-D10B-4213-BFC8-16A7815FD2B6";
name = "Nov 2 18, 15:58";
paths = (
{
closed = 1;
nodes = (
"898 792 OFFCURVE",
"855 789 OFFCURVE",
"809 780 CURVE",
"807 759 LINE",
"1256 1336 LINE",
"1256 1373 LINE",
"1136 1454 OFFCURVE",
"985 1498 OFFCURVE",
"794 1498 CURVE SMOOTH",
"414 1498 OFFCURVE",
"216 1325 OFFCURVE",
"216 914 CURVE SMOOTH",
"216 0 LINE",
"284 0 LINE",
"284 924 LINE SMOOTH",
"284 1257 OFFCURVE",
"424 1432 OFFCURVE",
"794 1432 CURVE SMOOTH",
"952 1432 OFFCURVE",
"1084 1403 OFFCURVE",
"1196 1331 CURVE",
"1199 1365 LINE",
"711 739 LINE",
"711 699 LINE",
"800 718 OFFCURVE",
"868 726 OFFCURVE",
"952 726 CURVE SMOOTH",
"1178 726 OFFCURVE",
"1316 616 OFFCURVE",
"1316 412 CURVE SMOOTH",
"1316 177 OFFCURVE",
"1166 48 OFFCURVE",
"864 48 CURVE SMOOTH",
"760 48 OFFCURVE",
"655 66 OFFCURVE",
"510 114 CURVE",
"510 46 LINE",
"638 2 OFFCURVE",
"752 -18 OFFCURVE",
"862 -18 CURVE SMOOTH",
"1199 -18 OFFCURVE",
"1388 135 OFFCURVE",
"1388 414 CURVE SMOOTH",
"1388 672 OFFCURVE",
"1206 792 OFFCURVE",
"972 792 CURVE SMOOTH"
);
}
);
width = 1490;
},
{
associatedMasterId = "1E90A949-97C4-49F5-AA9A-AF35B6FD63CF";
background = {
paths = (
{
closed = 1;
nodes = (
"1826 -20 OFFCURVE",
"2080 166 OFFCURVE",
"2080 466 CURVE SMOOTH",
"2080 716 OFFCURVE",
"1934 842 OFFCURVE",
"1594 916 CURVE SMOOTH",
"1382 962 OFFCURVE",
"1354 986 OFFCURVE",
"1354 1040 CURVE SMOOTH",
"1354 1094 OFFCURVE",
"1408 1138 OFFCURVE",
"1632 1138 CURVE SMOOTH",
"1752 1138 OFFCURVE",
"1902 1118 OFFCURVE",
"1998 1090 CURVE",
"1998 1458 LINE",
"1898 1482 OFFCURVE",
"1760 1500 OFFCURVE",
"1610 1500 CURVE SMOOTH",
"1124 1500 OFFCURVE",
"890 1328 OFFCURVE",
"890 1020 CURVE SMOOTH",
"890 782 OFFCURVE",
"1032 630 OFFCURVE",
"1346 572 CURVE SMOOTH",
"1576 530 OFFCURVE",
"1616 498 OFFCURVE",
"1616 432 CURVE SMOOTH",
"1616 374 OFFCURVE",
"1576 342 OFFCURVE",
"1400 342 CURVE SMOOTH",
"1280 342 OFFCURVE",
"1064 368 OFFCURVE",
"930 412 CURVE",
"930 44 LINE",
"1066 6 OFFCURVE",
"1224 -20 OFFCURVE",
"1404 -20 CURVE SMOOTH"
);
},
{
closed = 1;
nodes = (
"604 0 LINE",
"604 902 LINE SMOOTH",
"604 1048 OFFCURVE",
"678 1136 OFFCURVE",
"826 1136 CURVE SMOOTH",
"898 1136 OFFCURVE",
"954 1114 OFFCURVE",
"1010 1080 CURVE",
"1272 1384 LINE",
"1144 1460 OFFCURVE",
"998 1500 OFFCURVE",
"826 1500 CURVE SMOOTH",
"346 1500 OFFCURVE",
"128 1246 OFFCURVE",
"128 846 CURVE SMOOTH",
"128 0 LINE"
);
}
);
};
color = -1;
guideLines = (
{
position = "{1548, 1374}";
}
);
layerId = "632C8B29-99DA-4BC6-9DA2-96A2E3A09F9A";
name = "Nov 2 18, 15:58";
paths = (
{
closed = 1;
nodes = (
"1690 1120 LINE",
"1690 1374 LINE",
"1497 1453 OFFCURVE",
"1301 1500 OFFCURVE",
"1028 1500 CURVE SMOOTH",
"410 1500 OFFCURVE",
"130 1246 OFFCURVE",
"130 846 CURVE SMOOTH",
"130 0 LINE",
"606 0 LINE",
"606 902 LINE SMOOTH",
"606 1049 OFFCURVE",
"747 1166 OFFCURVE",
"1028 1166 CURVE SMOOTH",
"1171 1166 OFFCURVE",
"1253 1157 OFFCURVE",
"1348 1130 CURVE",
"1382 1308 LINE",
"899 817 LINE",
"899 563 LINE",
"1009 590 OFFCURVE",
"1091 602 OFFCURVE",
"1186 602 CURVE SMOOTH",
"1327 602 OFFCURVE",
"1381 549 OFFCURVE",
"1381 472 CURVE SMOOTH",
"1381 393 OFFCURVE",
"1315 342 OFFCURVE",
"1192 342 CURVE SMOOTH",
"1072 342 OFFCURVE",
"899 368 OFFCURVE",
"782 412 CURVE",
"782 44 LINE",
"901 6 OFFCURVE",
"1039 -20 OFFCURVE",
"1196 -20 CURVE SMOOTH",
"1634 -20 OFFCURVE",
"1839 182 OFFCURVE",
"1839 442 CURVE SMOOTH",
"1839 731 OFFCURVE",
"1588 903 OFFCURVE",
"1238 855 CURVE",
"1258 713 LINE"
);
}
);
width = 1903;
}
);
leftKerningGroup = H;
rightKerningGroup = S;
rightMetricsKey = S;
unicode = 1E9E;
},
{
glyphname = Schwa;
layers = (
{
anchors = (
{
name = bottom;
position = "{788, 0}";
},
{
name = top;
position = "{788, 1520}";
}
);
background = {
anchors = (
{
name = bottom;
position = "{782, 0}";
},
{
name = top;
position = "{782, 1520}";
}
);
paths = (
{
closed = 1;
nodes = (
"988 -18 OFFCURVE",
"1280 176 OFFCURVE",
"1280 738 CURVE SMOOTH",
"1280 1272 OFFCURVE",
"1002 1498 OFFCURVE",
"576 1498 CURVE SMOOTH",
"434 1498 OFFCURVE",
"322 1480 OFFCURVE",
"200 1444 CURVE",
"200 1376 LINE",
"320 1412 OFFCURVE",
"448 1432 OFFCURVE",
"578 1432 CURVE SMOOTH",
"970 1432 OFFCURVE",
"1208 1238 OFFCURVE",
"1208 742 CURVE SMOOTH",
"1208 218 OFFCURVE",
"958 48 OFFCURVE",
"592 48 CURVE SMOOTH",
"460 48 OFFCURVE",
"348 64 OFFCURVE",
"200 116 CURVE",
"200 48 LINE",
"324 2 OFFCURVE",
"448 -18 OFFCURVE",
"594 -18 CURVE SMOOTH"
);
}
);
};
color = -1;
layerId = "E28BEEB5-BD92-4E7A-B4EA-FC5E5BBBF580";
paths = (
{
closed = 1;
nodes = (
"1170 -18 OFFCURVE",
"1436 196 OFFCURVE",
"1436 738 CURVE SMOOTH",
"1436 1274 OFFCURVE",
"1126 1498 OFFCURVE",
"638 1498 CURVE SMOOTH",
"494 1498 OFFCURVE",
"352 1484 OFFCURVE",
"206 1444 CURVE",
"206 1376 LINE",
"350 1416 OFFCURVE",
"512 1432 OFFCURVE",
"640 1432 CURVE SMOOTH",
"1090 1432 OFFCURVE",
"1364 1238 OFFCURVE",
"1364 736 CURVE SMOOTH",
"1364 242 OFFCURVE",
"1128 50 OFFCURVE",
"796 50 CURVE SMOOTH",
"436 50 OFFCURVE",
"200 242 OFFCURVE",
"200 736 CURVE",
"164 714 LINE",
"1394 714 LINE",
"1394 780 LINE",
"128 780 LINE",
"128 720 LINE SMOOTH",
"128 196 OFFCURVE",
"400 -18 OFFCURVE",
"796 -18 CURVE SMOOTH"
);
}
);
width = 1574;
},
{
anchors = (
{
name = bottom;
position = "{810, 0}";
},
{
name = top;
position = "{810, 1480}";
}
);
background = {
paths = (
{
closed = 1;
nodes = (
"3466 -20 OFFCURVE",
"3794 274 OFFCURVE",
"3794 740 CURVE SMOOTH",
"3794 1206 OFFCURVE",
"3468 1500 OFFCURVE",
"2932 1500 CURVE SMOOTH",
"2396 1500 OFFCURVE",
"2070 1210 OFFCURVE",
"2070 740 CURVE SMOOTH",
"2070 270 OFFCURVE",
"2398 -20 OFFCURVE",
"2932 -20 CURVE SMOOTH"
);
},
{
closed = 1;
nodes = (
"2682 348 OFFCURVE",
"2550 480 OFFCURVE",
"2550 748 CURVE SMOOTH",
"2550 1000 OFFCURVE",
"2688 1132 OFFCURVE",
"2932 1132 CURVE SMOOTH",
"3176 1132 OFFCURVE",
"3314 994 OFFCURVE",
"3314 732 CURVE SMOOTH",
"3314 486 OFFCURVE",
"3182 348 OFFCURVE",
"2932 348 CURVE SMOOTH"
);
},
{
closed = 1;
nodes = (
"1268 -20 OFFCURVE",
"1592 242 OFFCURVE",
"1592 732 CURVE SMOOTH",
"1592 1202 OFFCURVE",
"1258 1500 OFFCURVE",
"556 1500 CURVE SMOOTH",
"446 1500 OFFCURVE",
"310 1490 OFFCURVE",
"194 1468 CURVE",
"194 1092 LINE",
"292 1110 OFFCURVE",
"406 1120 OFFCURVE",
"520 1120 CURVE SMOOTH",
"952 1120 OFFCURVE",
"1108 982 OFFCURVE",
"1108 724 CURVE SMOOTH",
"1108 496 OFFCURVE",
"958 356 OFFCURVE",
"608 356 CURVE SMOOTH",
"516 356 OFFCURVE",
"406 364 OFFCURVE",
"320 376 CURVE",
"578 154 LINE",
"578 720 LINE",
"136 720 LINE",
"136 20 LINE",
"282 -4 OFFCURVE",
"428 -20 OFFCURVE",
"580 -20 CURVE SMOOTH"
);
}
);
};
color = -1;
layerId = "1E90A949-97C4-49F5-AA9A-AF35B6FD63CF";
paths = (
{
closed = 1;
nodes = (
"1468 -20 OFFCURVE",
"1774 274 OFFCURVE",
"1774 720 CURVE SMOOTH",
"1774 1250 OFFCURVE",
"1424 1500 OFFCURVE",
"706 1500 CURVE SMOOTH",
"540 1500 OFFCURVE",
"358 1486 OFFCURVE",
"196 1458 CURVE",
"196 1090 LINE",
"342 1118 OFFCURVE",
"520 1134 OFFCURVE",
"672 1134 CURVE SMOOTH",
"1086 1134 OFFCURVE",
"1312 1026 OFFCURVE",
"1312 712 CURVE SMOOTH",
"1312 422 OFFCURVE",
"1190 324 OFFCURVE",
"944 324 CURVE SMOOTH",
"670 324 OFFCURVE",
"554 434 OFFCURVE",
"554 712 CURVE",
"406 550 LINE",
"1438 550 LINE",
"1438 872 LINE",
"74 872 LINE",
"74 740 LINE SMOOTH",
"74 270 OFFCURVE",
"400 -20 OFFCURVE",
"938 -20 CURVE SMOOTH"
);
}
);
width = 1858;
}
);
leftKerningGroup = O;
rightKerningGroup = O;
unicode = 018F;
userData = {
com.typemytype.robofont.layerData = {
};
};
},
{
glyphname = T;
layers = (
{
anchors = (
{
name = bottom;
position = "{622, 0}";
},
{
name = center;
position = "{622, 800}";
},
{
name = top;
position = "{622, 1520}";
}
);
background = {
anchors = (
{
name = bottom;
position = "{616, 0}";
},
{
name = center;
position = "{616, 800}";
},
{
name = top;
position = "{616, 1520}";
}
);
paths = (
{
closed = 1;
nodes = (
"112 0 LINE",
"112 728 LINE",
"1120 728 LINE",
"1120 0 LINE",
"1188 0 LINE",
"1188 1480 LINE",
"1120 1480 LINE",
"1120 794 LINE",
"112 794 LINE",
"112 1480 LINE",
"44 1480 LINE",
"44 0 LINE"
);
}
);
};
color = -1;
layerId = "E28BEEB5-BD92-4E7A-B4EA-FC5E5BBBF580";
paths = (
{
closed = 1;
nodes = (
"656 0 LINE",
"656 1414 LINE",
"1224 1414 LINE",
"1224 1480 LINE",
"20 1480 LINE",
"20 1414 LINE",
"588 1414 LINE",
"588 0 LINE"
);
}
);
width = 1244;
},
{
anchors = (
{
name = bottom;
position = "{766, 0}";
},
{
name = center;
position = "{766, 700}";
},
{
name = top;
position = "{766, 1520}";
}
);
background = {
anchors = (
{
name = bottom;
position = "{760, -220}";
},
{
name = topUC;
position = "{766, 1770}";
}
);
paths = (
{
closed = 1;
nodes = (
"470 0 LINE",
"470 554 LINE",
"1052 554 LINE",
"1052 0 LINE",
"1528 0 LINE",
"1528 1480 LINE",
"1052 1480 LINE",
"1052 956 LINE",
"470 956 LINE",
"470 1480 LINE",
"-6 1480 LINE",
"-6 0 LINE"
);
}
);
};
color = -1;
layerId = "1E90A949-97C4-49F5-AA9A-AF35B6FD63CF";
paths = (
{
closed = 1;
nodes = (
"1004 0 LINE",
"1004 1112 LINE",
"1510 1112 LINE",
"1510 1480 LINE",
"22 1480 LINE",
"22 1112 LINE",
"528 1112 LINE",
"528 0 LINE"
);
}
);
width = 1532;
}
);
leftKerningGroup = T;
rightKerningGroup = T;
unicode = 0054;
userData = {
com.typemytype.robofont.layerData = {
};
};
},
{
glyphname = Tbar;
layers = (
{
background = {
components = (
{
name = T;
},
{
name = strokeshortcomb.case;
transform = "{1, 0, 0, 1, 56, -140}";
}
);
};
color = -1;
components = (
{
name = T;
},
{
name = strokeshortcomb.case;
transform = "{1, 0, 0, 1, 122, -280}";
}
);
layerId = "E28BEEB5-BD92-4E7A-B4EA-FC5E5BBBF580";
width = 1244;
},
{
background = {
components = (
{
name = T;
transform = "{1, 0, 0, 1, 5, 0}";
}
);
paths = (
{
closed = 1;
nodes = (
"166 600 LINE",
"1312 600 LINE",
"1312 854 LINE",
"166 854 LINE"
);
}
);
};
color = -1;
components = (
{
name = T;
},
{
name = strokeshortcomb.case;
transform = "{1, 0, 0, 1, 26, -380}";
}
);
layerId = "1E90A949-97C4-49F5-AA9A-AF35B6FD63CF";
width = 1532;
}
);
leftKerningGroup = T;
rightKerningGroup = T;
unicode = 0166;
},
{
glyphname = U;
layers = (
{
anchors = (
{
name = bottom;
position = "{774, 0}";
},
{
name = ogonek;
position = "{926, 4}";
},
{
name = top;
position = "{774, 1520}";
},
{
name = topright;
position = "{1272, 1480}";
}
);
background = {
paths = (
{
closed = 1;
nodes = (
"1150 -18 OFFCURVE",
"1334 154 OFFCURVE",
"1334 566 CURVE SMOOTH",
"1334 1480 LINE",
"1266 1480 LINE",
"1266 556 LINE SMOOTH",
"1266 198 OFFCURVE",
"1108 48 OFFCURVE",
"768 48 CURVE SMOOTH",
"428 48 OFFCURVE",
"270 198 OFFCURVE",
"270 556 CURVE SMOOTH",
"270 1480 LINE",
"202 1480 LINE",
"202 566 LINE SMOOTH",
"202 154 OFFCURVE",
"386 -18 OFFCURVE",
"768 -18 CURVE SMOOTH"
);
}
);
};
color = -1;
layerId = "E28BEEB5-BD92-4E7A-B4EA-FC5E5BBBF580";
paths = (
{
closed = 1;
nodes = (
"1156 -18 OFFCURVE",
"1338 154 OFFCURVE",
"1338 566 CURVE SMOOTH",
"1338 1480 LINE",
"1272 1480 LINE",
"1272 556 LINE SMOOTH",
"1272 198 OFFCURVE",
"1114 48 OFFCURVE",
"774 48 CURVE SMOOTH",
"434 48 OFFCURVE",
"276 198 OFFCURVE",
"276 556 CURVE SMOOTH",
"276 1480 LINE",
"208 1480 LINE",
"208 566 LINE SMOOTH",
"208 154 OFFCURVE",
"392 -18 OFFCURVE",
"774 -18 CURVE SMOOTH"
);
}
);
width = 1546;
},
{
anchors = (
{
name = bottom;
position = "{882, 0}";
},
{
name = ogonek;
position = "{1140, 0}";
},
{
name = top;
position = "{882, 1520}";
},
{
name = topright;
position = "{1164, 1480}";
}
);
background = {
anchors = (
{
name = bottom;
position = "{876, -220}";
},
{
name = ogonek;
position = "{876, 108}";
},
{
name = topUC;
position = "{882, 1770}";
}
);
paths = (
{
closed = 1;
nodes = (
"590 0 LINE",
"590 554 LINE",
"1172 554 LINE",
"1172 0 LINE",
"1648 0 LINE",
"1648 1480 LINE",
"1172 1480 LINE",
"1172 956 LINE",
"590 956 LINE",
"590 1480 LINE",
"114 1480 LINE",
"114 0 LINE"
);
}
);
};
color = -1;
layerId = "1E90A949-97C4-49F5-AA9A-AF35B6FD63CF";
paths = (
{
closed = 1;
nodes = (
"1414 -20 OFFCURVE",
"1632 246 OFFCURVE",
"1632 694 CURVE SMOOTH",
"1632 1480 LINE",
"1164 1480 LINE",
"1164 656 LINE SMOOTH",
"1164 450 OFFCURVE",
"1070 356 OFFCURVE",
"882 356 CURVE SMOOTH",
"694 356 OFFCURVE",
"600 450 OFFCURVE",
"600 656 CURVE SMOOTH",
"600 1480 LINE",
"124 1480 LINE",
"124 694 LINE SMOOTH",
"124 246 OFFCURVE",
"340 -20 OFFCURVE",
"882 -20 CURVE SMOOTH"
);
}
);
width = 1756;
}
);
leftKerningGroup = U;
rightKerningGroup = U;
unicode = 0055;
userData = {
com.typemytype.robofont.layerData = {
};
};
},
{
glyphname = Uhorn;
layers = (
{
anchors = (
{
name = bottom;
position = "{774, 0}";
},
{
name = top;
position = "{774, 1520}";
}
);
background = {
paths = (
{
closed = 1;
nodes = (
"1586 1692 OFFCURVE",
"1578 1730 OFFCURVE",
"1560 1776 CURVE",
"1494 1776 LINE",
"1510 1730 OFFCURVE",
"1520 1690 OFFCURVE",
"1520 1634 CURVE SMOOTH",
"1520 1526 OFFCURVE",
"1442 1480 OFFCURVE",
"1300 1480 CURVE SMOOTH",
"1266 1480 LINE",
"1266 556 LINE SMOOTH",
"1266 198 OFFCURVE",
"1108 48 OFFCURVE",
"768 48 CURVE SMOOTH",
"428 48 OFFCURVE",
"270 198 OFFCURVE",
"270 556 CURVE SMOOTH",
"270 1480 LINE",
"202 1480 LINE",
"202 566 LINE SMOOTH",
"202 154 OFFCURVE",
"386 -18 OFFCURVE",
"768 -18 CURVE SMOOTH",
"1150 -18 OFFCURVE",
"1332 154 OFFCURVE",
"1332 566 CURVE SMOOTH",
"1332 1414 LINE",
"1496 1422 OFFCURVE",
"1586 1502 OFFCURVE",
"1586 1632 CURVE SMOOTH"
);
}
);
};
color = -1;
layerId = "E28BEEB5-BD92-4E7A-B4EA-FC5E5BBBF580";
paths = (
{
closed = 1;
nodes = (
"1156 -18 OFFCURVE",
"1338 154 OFFCURVE",
"1338 566 CURVE SMOOTH",
"1338 1416 LINE",
"1502 1422 OFFCURVE",
"1592 1502 OFFCURVE",
"1592 1632 CURVE SMOOTH",
"1592 1692 OFFCURVE",
"1584 1730 OFFCURVE",
"1566 1776 CURVE",
"1500 1776 LINE",
"1516 1730 OFFCURVE",
"1526 1690 OFFCURVE",
"1526 1634 CURVE SMOOTH",
"1526 1526 OFFCURVE",
"1448 1480 OFFCURVE",
"1306 1480 CURVE SMOOTH",
"1272 1480 LINE",
"1272 556 LINE SMOOTH",
"1272 198 OFFCURVE",
"1114 48 OFFCURVE",
"774 48 CURVE SMOOTH",
"434 48 OFFCURVE",
"276 198 OFFCURVE",
"276 556 CURVE SMOOTH",
"276 1480 LINE",
"208 1480 LINE",
"208 566 LINE SMOOTH",
"208 154 OFFCURVE",
"392 -18 OFFCURVE",
"774 -18 CURVE SMOOTH"
);
}
);
width = 1546;
},
{
anchors = (
{
name = bottom;
position = "{878, 0}";
},
{
name = top;
position = "{878, 1520}";
}
);
background = {
paths = (
{
closed = 1;
nodes = (
"1412 -20 OFFCURVE",
"1630 246 OFFCURVE",
"1630 694 CURVE SMOOTH",
"1630 1480 LINE",
"1162 1480 LINE",
"1162 656 LINE SMOOTH",
"1162 450 OFFCURVE",
"1068 356 OFFCURVE",
"880 356 CURVE SMOOTH",
"692 356 OFFCURVE",
"598 450 OFFCURVE",
"598 656 CURVE SMOOTH",
"598 1480 LINE",
"122 1480 LINE",
"122 694 LINE SMOOTH",
"122 246 OFFCURVE",
"338 -20 OFFCURVE",
"880 -20 CURVE SMOOTH"
);
},
{
closed = 1;
nodes = (
"1458 1282 LINE SMOOTH",
"1674 1282 OFFCURVE",
"1812 1394 OFFCURVE",
"1812 1624 CURVE SMOOTH",
"1812 1666 OFFCURVE",
"1810 1712 OFFCURVE",
"1794 1776 CURVE",
"1504 1776 LINE",
"1514 1710 OFFCURVE",
"1516 1672 OFFCURVE",
"1516 1636 CURVE SMOOTH",
"1516 1518 OFFCURVE",
"1446 1480 OFFCURVE",
"1298 1480 CURVE SMOOTH",
"1162 1480 LINE",
"1162 1282 LINE"
);
}
);
};
color = -1;
layerId = "1E90A949-97C4-49F5-AA9A-AF35B6FD63CF";
paths = (
{
closed = 1;
nodes = (
"1414 -20 OFFCURVE",
"1632 246 OFFCURVE",
"1632 694 CURVE SMOOTH",
"1632 1312 LINE",
"1746 1360 OFFCURVE",
"1814 1464 OFFCURVE",
"1814 1624 CURVE SMOOTH",
"1814 1666 OFFCURVE",
"1812 1712 OFFCURVE",
"1796 1776 CURVE",
"1506 1776 LINE",
"1516 1710 OFFCURVE",
"1518 1672 OFFCURVE",
"1518 1636 CURVE SMOOTH",
"1518 1518 OFFCURVE",
"1448 1480 OFFCURVE",
"1300 1480 CURVE SMOOTH",
"1164 1480 LINE",
"1164 656 LINE SMOOTH",
"1164 450 OFFCURVE",
"1070 356 OFFCURVE",
"882 356 CURVE SMOOTH",
"694 356 OFFCURVE",
"600 450 OFFCURVE",
"600 656 CURVE SMOOTH",
"600 1480 LINE",
"124 1480 LINE",
"124 694 LINE SMOOTH",
"124 246 OFFCURVE",
"340 -20 OFFCURVE",
"882 -20 CURVE SMOOTH"
);
}
);
width = 1756;
}
);
leftKerningGroup = U;
rightKerningGroup = U;
unicode = 01AF;
},
{
glyphname = Uogonek;
layers = (
{
background = {
paths = (
{
closed = 1;
nodes = (
"1150 -18 OFFCURVE",
"1332 154 OFFCURVE",
"1332 566 CURVE SMOOTH",
"1332 1480 LINE",
"1266 1480 LINE",
"1266 556 LINE SMOOTH",
"1266 198 OFFCURVE",
"1108 48 OFFCURVE",
"768 48 CURVE SMOOTH",
"428 48 OFFCURVE",
"270 198 OFFCURVE",
"270 556 CURVE SMOOTH",
"270 1480 LINE",
"202 1480 LINE",
"202 566 LINE SMOOTH",
"202 154 OFFCURVE",
"386 -18 OFFCURVE",
"768 -18 CURVE SMOOTH"
);
},
{
closed = 1;
nodes = (
"932 -396 OFFCURVE",
"996 -382 OFFCURVE",
"1058 -356 CURVE",
"1058 -302 LINE",
"980 -330 OFFCURVE",
"928 -344 OFFCURVE",
"866 -344 CURVE SMOOTH",
"762 -344 OFFCURVE",
"706 -300 OFFCURVE",
"706 -224 CURVE SMOOTH",
"706 -144 OFFCURVE",
"750 -64 OFFCURVE",
"980 4 CURVE",
"908 32 LINE",
"704 -34 OFFCURVE",
"650 -124 OFFCURVE",
"650 -226 CURVE SMOOTH",
"650 -332 OFFCURVE",
"728 -396 OFFCURVE",
"870 -396 CURVE SMOOTH"
);
}
);
};
color = -1;
layerId = "E28BEEB5-BD92-4E7A-B4EA-FC5E5BBBF580";
paths = (
{
closed = 1;
nodes = (
"938 -396 OFFCURVE",
"1002 -382 OFFCURVE",
"1064 -356 CURVE",
"1064 -302 LINE",
"986 -330 OFFCURVE",
"934 -344 OFFCURVE",
"872 -344 CURVE SMOOTH",
"768 -344 OFFCURVE",
"712 -300 OFFCURVE",
"712 -220 CURVE SMOOTH",
"712 -124 OFFCURVE",
"792 -44 OFFCURVE",
"984 4 CURVE SMOOTH",
"1224 64 OFFCURVE",
"1338 238 OFFCURVE",
"1338 566 CURVE SMOOTH",
"1338 1480 LINE",
"1272 1480 LINE",
"1272 556 LINE SMOOTH",
"1272 198 OFFCURVE",
"1114 48 OFFCURVE",
"774 48 CURVE SMOOTH",
"434 48 OFFCURVE",
"276 198 OFFCURVE",
"276 556 CURVE SMOOTH",
"276 1480 LINE",
"208 1480 LINE",
"208 566 LINE SMOOTH",
"208 154 OFFCURVE",
"392 -18 OFFCURVE",
"774 -18 CURVE SMOOTH",
"824 -18 LINE",
"818 -6 LINE",
"698 -58 OFFCURVE",
"656 -142 OFFCURVE",
"656 -218 CURVE SMOOTH",
"656 -332 OFFCURVE",
"730 -396 OFFCURVE",
"876 -396 CURVE SMOOTH"
);
}
);
width = 1546;
},
{
background = {
paths = (
{
closed = 1;
nodes = (
"1412 -20 OFFCURVE",
"1630 246 OFFCURVE",
"1630 694 CURVE SMOOTH",
"1630 1480 LINE",
"1162 1480 LINE",
"1162 656 LINE SMOOTH",
"1162 450 OFFCURVE",
"1068 356 OFFCURVE",
"880 356 CURVE SMOOTH",
"692 356 OFFCURVE",
"598 450 OFFCURVE",
"598 656 CURVE SMOOTH",
"598 1480 LINE",
"122 1480 LINE",
"122 694 LINE SMOOTH",
"122 246 OFFCURVE",
"338 -20 OFFCURVE",
"880 -20 CURVE SMOOTH"
);
},
{
closed = 1;
nodes = (
"1052 -460 OFFCURVE",
"1114 -448 OFFCURVE",
"1172 -430 CURVE",
"1172 -270 LINE",
"1116 -288 OFFCURVE",
"1072 -294 OFFCURVE",
"1040 -294 CURVE SMOOTH",
"936 -294 OFFCURVE",
"892 -256 OFFCURVE",
"892 -196 CURVE SMOOTH",
"892 -122 OFFCURVE",
"954 -54 OFFCURVE",
"1202 22 CURVE",
"1026 78 LINE",
"730 14 OFFCURVE",
"636 -104 OFFCURVE",
"636 -234 CURVE SMOOTH",
"636 -370 OFFCURVE",
"742 -460 OFFCURVE",
"968 -460 CURVE SMOOTH"
);
}
);
};
color = -1;
layerId = "1E90A949-97C4-49F5-AA9A-AF35B6FD63CF";
paths = (
{
closed = 1;
nodes = (
"1054 -460 OFFCURVE",
"1116 -448 OFFCURVE",
"1174 -430 CURVE",
"1174 -270 LINE",
"1118 -288 OFFCURVE",
"1074 -294 OFFCURVE",
"1042 -294 CURVE SMOOTH",
"938 -294 OFFCURVE",
"894 -256 OFFCURVE",
"894 -196 CURVE SMOOTH",
"894 -118 OFFCURVE",
"956 -54 OFFCURVE",
"1204 22 CURVE SMOOTH",
"1504 114 OFFCURVE",
"1632 350 OFFCURVE",
"1632 694 CURVE SMOOTH",
"1632 1480 LINE",
"1164 1480 LINE",
"1164 656 LINE SMOOTH",
"1164 450 OFFCURVE",
"1070 356 OFFCURVE",
"882 356 CURVE SMOOTH",
"694 356 OFFCURVE",
"600 450 OFFCURVE",
"600 656 CURVE SMOOTH",
"600 1480 LINE",
"124 1480 LINE",
"124 694 LINE SMOOTH",
"124 246 OFFCURVE",
"340 -20 OFFCURVE",
"882 -20 CURVE SMOOTH",
"938 -20 LINE",
"976 68 LINE",
"720 0 OFFCURVE",
"638 -112 OFFCURVE",
"638 -234 CURVE SMOOTH",
"638 -370 OFFCURVE",
"744 -460 OFFCURVE",
"970 -460 CURVE SMOOTH"
);
}
);
width = 1756;
}
);
leftKerningGroup = U;
rightKerningGroup = U;
unicode = 0172;
},
{
glyphname = V;
layers = (
{
background = {
anchors = (
{
name = bottom;
position = "{692, 0}";
},
{
name = top;
position = "{692, 1520}";
}
);
paths = (
{
closed = 1;
nodes = (
"1290 1480 LINE",
"680 40 LINE",
"704 40 LINE",
"94 1480 LINE",
"18 1480 LINE",
"648 0 LINE",
"734 0 LINE",
"1364 1480 LINE"
);
}
);
};
color = -1;
layerId = "E28BEEB5-BD92-4E7A-B4EA-FC5E5BBBF580";
paths = (
{
closed = 1;
nodes = (
"744 0 LINE",
"1370 1480 LINE",
"1298 1480 LINE",
"692 40 LINE",
"708 40 LINE",
"100 1480 LINE",
"24 1480 LINE",
"650 0 LINE"
);
}
);
width = 1394;
},
{
background = {
paths = (
{
closed = 1;
nodes = (
"1212 0 LINE",
"1732 1480 LINE",
"1268 1480 LINE",
"828 196 LINE",
"930 196 LINE",
"500 1480 LINE",
"4 1480 LINE",
"524 0 LINE"
);
}
);
};
color = -1;
layerId = "1E90A949-97C4-49F5-AA9A-AF35B6FD63CF";
paths = (
{
closed = 1;
nodes = (
"1214 0 LINE",
"1734 1480 LINE",
"1266 1480 LINE",
"826 196 LINE",
"938 196 LINE",
"508 1480 LINE",
"6 1480 LINE",
"526 0 LINE"
);
}
);
width = 1740;
}
);
leftKerningGroup = V;
rightKerningGroup = V;
unicode = 0056;
userData = {
com.typemytype.robofont.layerData = {
};
};
},
{
glyphname = W;
layers = (
{
anchors = (
{
name = bottom;
position = "{1136, 0}";
},
{
name = top;
position = "{1136, 1520}";
}
);
background = {
anchors = (
{
name = bottom;
position = "{1130, 0}";
},
{
name = top;
position = "{1130, 1520}";
}
);
paths = (
{
closed = 1;
nodes = (
"658 0 LINE",
"1138 1434 LINE",
"1118 1434 LINE",
"1600 0 LINE",
"1694 0 LINE",
"2180 1480 LINE",
"2108 1480 LINE",
"1640 40 LINE",
"1656 40 LINE",
"1176 1480 LINE",
"1082 1480 LINE",
"604 40 LINE",
"620 40 LINE",
"150 1480 LINE",
"76 1480 LINE",
"564 0 LINE"
);
}
);
};
color = -1;
layerId = "E28BEEB5-BD92-4E7A-B4EA-FC5E5BBBF580";
paths = (
{
closed = 1;
nodes = (
"664 0 LINE",
"1144 1434 LINE",
"1124 1434 LINE",
"1606 0 LINE",
"1700 0 LINE",
"2186 1480 LINE",
"2116 1480 LINE",
"1646 40 LINE",
"1662 40 LINE",
"1182 1480 LINE",
"1088 1480 LINE",
"610 40 LINE",
"626 40 LINE",
"156 1480 LINE",
"82 1480 LINE",
"570 0 LINE"
);
}
);
width = 2270;
},
{
anchors = (
{
name = bottom;
position = "{1374, 0}";
},
{
name = top;
position = "{1374, 1520}";
}
);
background = {
paths = (
{
closed = 1;
nodes = (
"1064 0 LINE",
"1444 1236 LINE",
"1314 1236 LINE",
"1680 0 LINE",
"2280 0 LINE",
"2722 1480 LINE",
"2272 1480 LINE",
"1916 236 LINE",
"2004 236 LINE",
"1642 1480 LINE",
"1126 1480 LINE",
"746 236 LINE",
"848 236 LINE",
"500 1480 LINE",
"22 1480 LINE",
"464 0 LINE"
);
}
);
};
color = -1;
layerId = "1E90A949-97C4-49F5-AA9A-AF35B6FD63CF";
paths = (
{
closed = 1;
nodes = (
"1066 0 LINE",
"1446 1236 LINE",
"1316 1236 LINE",
"1682 0 LINE",
"2282 0 LINE",
"2724 1480 LINE",
"2272 1480 LINE",
"1916 236 LINE",
"2008 236 LINE",
"1646 1480 LINE",
"1126 1480 LINE",
"746 236 LINE",
"852 236 LINE",
"504 1480 LINE",
"24 1480 LINE",
"466 0 LINE"
);
}
);
width = 2748;
}
);
leftKerningGroup = V;
rightKerningGroup = V;
unicode = 0057;
userData = {
com.typemytype.robofont.layerData = {
};
};
},
{
glyphname = X;
layers = (
{
background = {
anchors = (
{
name = bottom;
position = "{676, 0}";
},
{
name = top;
position = "{676, 1520}";
}
);
paths = (
{
closed = 1;
nodes = (
"1322 0 LINE",
"720 748 LINE",
"678 802 LINE",
"132 1480 LINE",
"42 1480 LINE",
"634 746 LINE",
"676 692 LINE",
"1232 0 LINE"
);
},
{
closed = 1;
nodes = (
"120 0 LINE",
"676 692 LINE",
"720 748 LINE",
"1312 1480 LINE",
"1226 1480 LINE",
"678 802 LINE",
"634 746 LINE",
"32 0 LINE"
);
}
);
};
color = -1;
layerId = "E28BEEB5-BD92-4E7A-B4EA-FC5E5BBBF580";
paths = (
{
closed = 1;
nodes = (
"1328 0 LINE",
"726 748 LINE",
"684 802 LINE",
"138 1480 LINE",
"48 1480 LINE",
"640 746 LINE",
"682 692 LINE",
"1238 0 LINE"
);
},
{
closed = 1;
nodes = (
"126 0 LINE",
"682 692 LINE",
"726 748 LINE",
"1318 1480 LINE",
"1232 1480 LINE",
"684 802 LINE",
"640 746 LINE",
"38 0 LINE"
);
}
);
width = 1368;
},
{
background = {
paths = (
{
closed = 1;
nodes = (
"1676 0 LINE",
"512 1480 LINE",
"-14 1480 LINE",
"1150 0 LINE"
);
},
{
closed = 1;
nodes = (
"438 0 LINE",
"1616 1480 LINE",
"1104 1480 LINE",
"-74 0 LINE"
);
}
);
};
color = -1;
layerId = "1E90A949-97C4-49F5-AA9A-AF35B6FD63CF";
paths = (
{
closed = 1;
nodes = (
"1662 0 LINE",
"1072 782 LINE",
"798 1086 LINE",
"506 1480 LINE",
"-22 1480 LINE",
"514 774 LINE",
"788 470 LINE",
"1134 0 LINE"
);
},
{
closed = 1;
nodes = (
"444 0 LINE",
"788 470 LINE",
"1072 782 LINE",
"1598 1480 LINE",
"1088 1480 LINE",
"798 1086 LINE",
"514 774 LINE",
"-68 0 LINE"
);
}
);
width = 1592;
}
);
leftKerningGroup = X;
rightKerningGroup = X;
unicode = 0058;
userData = {
com.typemytype.robofont.layerData = {
};
};
},
{
glyphname = Y;
layers = (
{
anchors = (
{
name = bottom;
position = "{622, 0}";
},
{
name = top;
position = "{622, 1520}";
},
{
name = topleft;
position = "{16, 1480}";
}
);
background = {
anchors = (
{
name = bottom;
position = "{616, 0}";
},
{
name = top;
position = "{616, 1520}";
},
{
name = topleft;
position = "{10, 1480}";
}
);
paths = (
{
closed = 1;
nodes = (
"650 0 LINE",
"650 706 LINE",
"630 652 LINE",
"1250 1480 LINE",
"1166 1480 LINE",
"598 716 LINE",
"638 716 LINE",
"70 1480 LINE",
"-18 1480 LINE",
"602 652 LINE",
"582 706 LINE",
"582 0 LINE"
);
}
);
};
color = -1;
layerId = "E28BEEB5-BD92-4E7A-B4EA-FC5E5BBBF580";
paths = (
{
closed = 1;
nodes = (
"656 0 LINE",
"656 706 LINE",
"636 652 LINE",
"1252 1480 LINE",
"1168 1480 LINE",
"604 716 LINE",
"644 716 LINE",
"72 1480 LINE",
"-16 1480 LINE",
"608 652 LINE",
"588 706 LINE",
"588 0 LINE"
);
}
);
width = 1244;
},
{
anchors = (
{
name = bottom;
position = "{764, 0}";
},
{
name = top;
position = "{764, 1520}";
},
{
name = topleft;
position = "{12, 1480}";
}
);
background = {
paths = (
{
closed = 1;
nodes = (
"1006 0 LINE",
"1006 776 LINE",
"910 466 LINE",
"1566 1480 LINE",
"1106 1480 LINE",
"714 872 LINE",
"838 872 LINE",
"436 1480 LINE",
"-58 1480 LINE",
"626 466 LINE",
"530 782 LINE",
"530 0 LINE"
);
}
);
};
color = -1;
layerId = "1E90A949-97C4-49F5-AA9A-AF35B6FD63CF";
paths = (
{
closed = 1;
nodes = (
"1008 0 LINE",
"1008 776 LINE",
"916 466 LINE",
"1572 1480 LINE",
"1104 1480 LINE",
"712 872 LINE",
"844 872 LINE",
"442 1480 LINE",
"-60 1480 LINE",
"624 466 LINE",
"532 782 LINE",
"532 0 LINE"
);
}
);
width = 1532;
}
);
leftKerningGroup = Y;
rightKerningGroup = Y;
unicode = 0059;
userData = {
com.typemytype.robofont.layerData = {
};
};
},
{
glyphname = Z;
layers = (
{
anchors = (
{
name = bottom;
position = "{628, 0}";
},
{
name = top;
position = "{628, 1520}";
}
);
background = {
anchors = (
{
name = bottom;
position = "{572, 0}";
},
{
name = top;
position = "{572, 1520}";
}
);
paths = (
{
closed = 1;
nodes = (
"1080 0 LINE",
"1080 64 LINE",
"134 64 LINE",
"146 40 LINE",
"1066 1440 LINE",
"1066 1480 LINE",
"78 1480 LINE",
"78 1416 LINE",
"996 1416 LINE",
"984 1440 LINE",
"64 40 LINE",
"64 0 LINE"
);
}
);
};
color = -1;
layerId = "E28BEEB5-BD92-4E7A-B4EA-FC5E5BBBF580";
paths = (
{
closed = 1;
nodes = (
"1186 0 LINE",
"1186 64 LINE",
"140 64 LINE",
"152 40 LINE",
"1172 1440 LINE",
"1172 1480 LINE",
"84 1480 LINE",
"84 1416 LINE",
"1102 1416 LINE",
"1090 1440 LINE",
"70 40 LINE",
"70 0 LINE"
);
}
);
width = 1256;
},
{
anchors = (
{
name = bottom;
position = "{742, 0}";
},
{
name = top;
position = "{742, 1520}";
}
);
background = {
paths = (
{
closed = 1;
nodes = (
"1396 0 LINE",
"1396 360 LINE",
"626 360 LINE",
"626 280 LINE",
"1386 1226 LINE",
"1386 1480 LINE",
"92 1480 LINE",
"92 1120 LINE",
"842 1120 LINE",
"842 1200 LINE",
"82 254 LINE",
"82 0 LINE"
);
}
);
};
color = -1;
layerId = "1E90A949-97C4-49F5-AA9A-AF35B6FD63CF";
paths = (
{
closed = 1;
nodes = (
"1398 0 LINE",
"1398 368 LINE",
"628 368 LINE",
"628 280 LINE",
"1388 1226 LINE",
"1388 1480 LINE",
"94 1480 LINE",
"94 1112 LINE",
"844 1112 LINE",
"844 1200 LINE",
"84 254 LINE",
"84 0 LINE"
);
}
);
width = 1482;
}
);
leftKerningGroup = Z;
rightKerningGroup = Z;
unicode = 005A;
userData = {
com.typemytype.robofont.layerData = {
};
};
},
{
color = 9;
glyphname = a;
layers = (
{
anchors = (
{
name = bottom;
position = "{574, 0}";
},
{
name = ogonek;
position = "{928, 0}";
},
{
name = top;
position = "{550, 1200}";
}
);
background = {
paths = (
{
closed = 1;
nodes = (
"622 -16 OFFCURVE",
"766 46 OFFCURVE",
"848 132 CURVE",
"856 132 LINE",
"862 0 LINE",
"922 0 LINE",
"922 738 LINE SMOOTH",
"922 1012 OFFCURVE",
"772 1096 OFFCURVE",
"518 1096 CURVE SMOOTH",
"408 1096 OFFCURVE",
"284 1078 OFFCURVE",
"190 1042 CURVE",
"190 974 LINE",
"308 1016 OFFCURVE",
"426 1030 OFFCURVE",
"520 1030 CURVE SMOOTH",
"732 1030 OFFCURVE",
"854 972 OFFCURVE",
"854 736 CURVE SMOOTH",
"854 218 LINE",
"750 106 OFFCURVE",
"614 50 OFFCURVE",
"472 50 CURVE SMOOTH",
"286 50 OFFCURVE",
"202 134 OFFCURVE",
"202 272 CURVE SMOOTH",
"202 406 OFFCURVE",
"290 478 OFFCURVE",
"498 504 CURVE SMOOTH",
"886 552 LINE",
"896 618 LINE",
"498 570 LINE SMOOTH",
"240 538 OFFCURVE",
"128 444 OFFCURVE",
"128 268 CURVE SMOOTH",
"128 90 OFFCURVE",
"254 -16 OFFCURVE",
"472 -16 CURVE SMOOTH"
);
}
);
};
color = -1;
guideLines = (
{
angle = 90;
position = "{232, 330}";
}
);
layerId = "E28BEEB5-BD92-4E7A-B4EA-FC5E5BBBF580";
paths = (
{
closed = 1;
nodes = (
"628 -16 OFFCURVE",
"772 46 OFFCURVE",
"854 134 CURVE",
"862 134 LINE",
"868 0 LINE",
"928 0 LINE",
"928 738 LINE SMOOTH",
"928 1012 OFFCURVE",
"778 1096 OFFCURVE",
"524 1096 CURVE SMOOTH",
"414 1096 OFFCURVE",
"290 1078 OFFCURVE",
"196 1042 CURVE",
"196 974 LINE",
"314 1016 OFFCURVE",
"432 1030 OFFCURVE",
"526 1030 CURVE SMOOTH",
"738 1030 OFFCURVE",
"860 972 OFFCURVE",
"860 736 CURVE SMOOTH",
"860 218 LINE",
"756 106 OFFCURVE",
"620 50 OFFCURVE",
"478 50 CURVE SMOOTH",
"292 50 OFFCURVE",
"208 134 OFFCURVE",
"208 272 CURVE SMOOTH",
"208 406 OFFCURVE",
"294 478 OFFCURVE",
"522 506 CURVE SMOOTH",
"898 552 LINE",
"902 618 LINE",
"524 572 LINE SMOOTH",
"246 538 OFFCURVE",
"134 444 OFFCURVE",
"134 268 CURVE SMOOTH",
"134 90 OFFCURVE",
"260 -16 OFFCURVE",
"478 -16 CURVE SMOOTH"
);
}
);
width = 1106;
},
{
anchors = (
{
name = bottom;
position = "{668, 0}";
},
{
name = ogonek;
position = "{1236, 0}";
},
{
name = top;
position = "{668, 1200}";
}
);
background = {
paths = (
{
closed = 1;
nodes = (
"612 -22 OFFCURVE",
"724 10 OFFCURVE",
"802 90 CURVE",
"822 90 LINE",
"852 0 LINE",
"1236 0 LINE",
"1236 574 LINE SMOOTH",
"1236 984 OFFCURVE",
"1052 1118 OFFCURVE",
"596 1118 CURVE SMOOTH",
"472 1118 OFFCURVE",
"308 1102 OFFCURVE",
"172 1066 CURVE",
"172 744 LINE",
"280 774 OFFCURVE",
"418 790 OFFCURVE",
"512 790 CURVE SMOOTH",
"720 790 OFFCURVE",
"782 742 OFFCURVE",
"782 614 CURVE SMOOTH",
"782 304 LINE",
"738 282 OFFCURVE",
"684 276 OFFCURVE",
"640 276 CURVE SMOOTH",
"556 276 OFFCURVE",
"516 308 OFFCURVE",
"516 354 CURVE SMOOTH",
"516 404 OFFCURVE",
"550 438 OFFCURVE",
"652 444 CURVE SMOOTH",
"902 458 LINE",
"858 682 LINE",
"612 668 LINE SMOOTH",
"226 646 OFFCURVE",
"58 526 OFFCURVE",
"58 312 CURVE SMOOTH",
"58 124 OFFCURVE",
"200 -22 OFFCURVE",
"488 -22 CURVE SMOOTH"
);
}
);
};
color = -1;
layerId = "1E90A949-97C4-49F5-AA9A-AF35B6FD63CF";
paths = (
{
closed = 1;
nodes = (
"612 -22 OFFCURVE",
"724 10 OFFCURVE",
"802 90 CURVE",
"822 90 LINE",
"852 0 LINE",
"1236 0 LINE",
"1236 574 LINE SMOOTH",
"1236 984 OFFCURVE",
"1052 1118 OFFCURVE",
"596 1118 CURVE SMOOTH",
"472 1118 OFFCURVE",
"308 1102 OFFCURVE",
"172 1066 CURVE",
"172 744 LINE",
"280 774 OFFCURVE",
"418 790 OFFCURVE",
"512 790 CURVE SMOOTH",
"720 790 OFFCURVE",
"782 742 OFFCURVE",
"782 614 CURVE SMOOTH",
"782 300 LINE",
"738 278 OFFCURVE",
"684 272 OFFCURVE",
"640 272 CURVE SMOOTH",
"556 272 OFFCURVE",
"516 304 OFFCURVE",
"516 350 CURVE SMOOTH",
"516 400 OFFCURVE",
"552 432 OFFCURVE",
"658 438 CURVE SMOOTH",
"902 450 LINE",
"858 682 LINE",
"612 670 LINE SMOOTH",
"226 652 OFFCURVE",
"58 526 OFFCURVE",
"58 312 CURVE SMOOTH",
"58 124 OFFCURVE",
"200 -22 OFFCURVE",
"488 -22 CURVE SMOOTH"
);
}
);
width = 1344;
}
);
leftKerningGroup = a;
rightKerningGroup = n;
unicode = 0061;
userData = {
com.typemytype.robofont.layerData = {
};
};
},
{
glyphname = aogonek;
layers = (
{
anchors = (
{
name = bottom;
position = "{574, 0}";
},
{
name = ogonek;
position = "{928, 0}";
},
{
name = top;
position = "{550, 1200}";
}
);
background = {
components = (
{
name = a;
},
{
name = ogonekcomb;
transform = "{1, 0, 0, 1, 161, 0}";
}
);
};
color = -1;
components = (
{
name = ogonekcomb;
transform = "{1, 0, 0, 1, 328, 0}";
}
);
layerId = "E28BEEB5-BD92-4E7A-B4EA-FC5E5BBBF580";
paths = (
{
closed = 1;
nodes = (
"628 -16 OFFCURVE",
"772 46 OFFCURVE",
"854 134 CURVE",
"862 134 LINE",
"868 0 LINE",
"928 0 LINE",
"928 738 LINE SMOOTH",
"928 1012 OFFCURVE",
"778 1096 OFFCURVE",
"524 1096 CURVE SMOOTH",
"414 1096 OFFCURVE",
"290 1078 OFFCURVE",
"196 1042 CURVE",
"196 974 LINE",
"314 1016 OFFCURVE",
"432 1030 OFFCURVE",
"526 1030 CURVE SMOOTH",
"738 1030 OFFCURVE",
"860 972 OFFCURVE",
"860 736 CURVE SMOOTH",
"860 218 LINE",
"756 106 OFFCURVE",
"620 50 OFFCURVE",
"478 50 CURVE SMOOTH",
"292 50 OFFCURVE",
"208 134 OFFCURVE",
"208 272 CURVE SMOOTH",
"208 406 OFFCURVE",
"294 478 OFFCURVE",
"522 506 CURVE SMOOTH",
"898 552 LINE",
"902 618 LINE",
"524 572 LINE SMOOTH",
"246 538 OFFCURVE",
"134 444 OFFCURVE",
"134 268 CURVE SMOOTH",
"134 90 OFFCURVE",
"260 -16 OFFCURVE",
"478 -16 CURVE SMOOTH"
);
}
);
width = 1106;
},
{
anchors = (
{
name = bottom;
position = "{668, 0}";
},
{
name = ogonek;
position = "{1236, 0}";
},
{
name = top;
position = "{668, 1200}";
}
);
background = {
components = (
{
name = a;
},
{
name = ogonek;
transform = "{1, 0, 0, 1, 296, 0}";
}
);
};
color = -1;
components = (
{
name = ogonekcomb;
transform = "{1, 0, 0, 1, 720, 0}";
}
);
layerId = "1E90A949-97C4-49F5-AA9A-AF35B6FD63CF";
paths = (
{
closed = 1;
nodes = (
"612 -22 OFFCURVE",
"724 10 OFFCURVE",
"802 90 CURVE",
"822 90 LINE",
"882 -30 LINE",
"1236 0 LINE",
"1236 574 LINE SMOOTH",
"1236 984 OFFCURVE",
"1052 1118 OFFCURVE",
"596 1118 CURVE SMOOTH",
"472 1118 OFFCURVE",
"308 1102 OFFCURVE",
"172 1066 CURVE",
"172 744 LINE",
"280 774 OFFCURVE",
"418 790 OFFCURVE",
"512 790 CURVE SMOOTH",
"720 790 OFFCURVE",
"782 742 OFFCURVE",
"782 614 CURVE SMOOTH",
"782 300 LINE",
"738 278 OFFCURVE",
"684 272 OFFCURVE",
"640 272 CURVE SMOOTH",
"556 272 OFFCURVE",
"516 304 OFFCURVE",
"516 350 CURVE SMOOTH",
"516 400 OFFCURVE",
"552 432 OFFCURVE",
"658 438 CURVE SMOOTH",
"902 450 LINE",
"858 682 LINE",
"612 670 LINE SMOOTH",
"226 652 OFFCURVE",
"58 526 OFFCURVE",
"58 312 CURVE SMOOTH",
"58 124 OFFCURVE",
"200 -22 OFFCURVE",
"488 -22 CURVE SMOOTH"
);
}
);
width = 1344;
},
{
associatedMasterId = "1E90A949-97C4-49F5-AA9A-AF35B6FD63CF";
background = {
components = (
{
name = a;
},
{
name = ogonek;
transform = "{1, 0, 0, 1, 296, 0}";
}
);
};
color = -1;
components = (
{
name = a;
},
{
name = ogonekcomb;
transform = "{1, 0, 0, 1, 720, 0}";
}
);
layerId = "954E7C9C-A716-4474-A943-4D7743912A1B";
name = "Nov 1 18, 17:25";
width = 1344;
}
);
leftKerningGroup = a;
rightKerningGroup = n;
unicode = 0105;
},
{
color = 9;
glyphname = ae;
layers = (
{
anchors = (
{
name = bottom;
position = "{894, 0}";
},
{
name = top;
position = "{894, 1200}";
}
);
background = {
anchors = (
{
name = bottom;
position = "{888, 0}";
},
{
name = top;
position = "{888, 1200}";
}
);
paths = (
{
closed = 1;
nodes = (
"1470 -18 OFFCURVE",
"1570 0 OFFCURVE",
"1676 36 CURVE",
"1676 104 LINE",
"1568 68 OFFCURVE",
"1468 48 OFFCURVE",
"1370 48 CURVE SMOOTH",
"1092 48 OFFCURVE",
"922 192 OFFCURVE",
"922 536 CURVE SMOOTH",
"922 548 LINE SMOOTH",
"922 882 OFFCURVE",
"1058 1030 OFFCURVE",
"1294 1030 CURVE SMOOTH",
"1530 1030 OFFCURVE",
"1658 880 OFFCURVE",
"1658 548 CURVE",
"1696 576 LINE",
"872 576 LINE",
"872 510 LINE",
"1730 510 LINE",
"1730 540 LINE SMOOTH",
"1730 910 OFFCURVE",
"1568 1096 OFFCURVE",
"1294 1096 CURVE SMOOTH",
"1020 1096 OFFCURVE",
"850 912 OFFCURVE",
"850 540 CURVE SMOOTH",
"850 156 OFFCURVE",
"1044 -18 OFFCURVE",
"1366 -18 CURVE SMOOTH"
);
}
);
};
color = -1;
layerId = "E28BEEB5-BD92-4E7A-B4EA-FC5E5BBBF580";
paths = (
{
closed = 1;
nodes = (
"1476 -18 OFFCURVE",
"1576 0 OFFCURVE",
"1682 36 CURVE",
"1682 104 LINE",
"1574 68 OFFCURVE",
"1474 48 OFFCURVE",
"1376 48 CURVE SMOOTH",
"1098 48 OFFCURVE",
"928 192 OFFCURVE",
"928 536 CURVE SMOOTH",
"928 548 LINE SMOOTH",
"928 882 OFFCURVE",
"1064 1030 OFFCURVE",
"1300 1030 CURVE SMOOTH",
"1536 1030 OFFCURVE",
"1664 880 OFFCURVE",
"1664 548 CURVE",
"1702 576 LINE",
"902 576 LINE",
"902 510 LINE",
"1734 510 LINE",
"1734 544 LINE SMOOTH",
"1734 910 OFFCURVE",
"1574 1096 OFFCURVE",
"1300 1096 CURVE SMOOTH",
"1026 1096 OFFCURVE",
"866 916 OFFCURVE",
"866 552 CURVE",
"860 544 LINE",
"860 156 OFFCURVE",
"1050 -18 OFFCURVE",
"1372 -18 CURVE SMOOTH"
);
},
{
closed = 1;
nodes = (
"630 -16 OFFCURVE",
"786 32 OFFCURVE",
"948 214 CURVE",
"908 274 LINE",
"782 106 OFFCURVE",
"620 50 OFFCURVE",
"480 50 CURVE SMOOTH",
"296 50 OFFCURVE",
"208 134 OFFCURVE",
"208 274 CURVE SMOOTH",
"208 408 OFFCURVE",
"294 510 OFFCURVE",
"550 510 CURVE SMOOTH",
"884 510 LINE",
"884 576 LINE",
"558 576 LINE SMOOTH",
"250 576 OFFCURVE",
"134 446 OFFCURVE",
"134 270 CURVE SMOOTH",
"134 90 OFFCURVE",
"266 -16 OFFCURVE",
"480 -16 CURVE SMOOTH"
);
},
{
closed = 1;
nodes = (
"922 514 LINE",
"922 738 LINE SMOOTH",
"922 1012 OFFCURVE",
"774 1096 OFFCURVE",
"524 1096 CURVE SMOOTH",
"414 1096 OFFCURVE",
"290 1078 OFFCURVE",
"196 1042 CURVE",
"196 974 LINE",
"314 1016 OFFCURVE",
"432 1030 OFFCURVE",
"526 1030 CURVE SMOOTH",
"738 1030 OFFCURVE",
"860 972 OFFCURVE",
"860 736 CURVE SMOOTH",
"860 544 LINE"
);
}
);
width = 1840;
},
{
anchors = (
{
name = bottom;
position = "{1022, 0}";
},
{
name = top;
position = "{1022, 1200}";
}
);
background = {
paths = (
{
closed = 1;
nodes = (
"3632 -22 OFFCURVE",
"3760 -16 OFFCURVE",
"3902 8 CURVE",
"3902 326 LINE",
"3802 312 OFFCURVE",
"3684 302 OFFCURVE",
"3592 302 CURVE SMOOTH",
"3286 302 OFFCURVE",
"3236 348 OFFCURVE",
"3236 476 CURVE SMOOTH",
"3236 642 LINE SMOOTH",
"3236 776 OFFCURVE",
"3286 836 OFFCURVE",
"3394 836 CURVE SMOOTH",
"3502 836 OFFCURVE",
"3552 774 OFFCURVE",
"3552 640 CURVE",
"3620 658 LINE",
"3126 658 LINE",
"3126 428 LINE",
"3978 428 LINE",
"3978 530 LINE SMOOTH",
"3978 892 OFFCURVE",
"3782 1118 OFFCURVE",
"3422 1118 CURVE SMOOTH",
"3070 1118 OFFCURVE",
"2842 892 OFFCURVE",
"2842 568 CURVE",
"2782 546 LINE",
"2782 156 OFFCURVE",
"3008 -22 OFFCURVE",
"3518 -22 CURVE SMOOTH"
);
},
{
closed = 1;
nodes = (
"2692 -22 OFFCURVE",
"2856 34 OFFCURVE",
"2982 150 CURVE",
"2846 342 LINE",
"2772 288 OFFCURVE",
"2718 272 OFFCURVE",
"2650 272 CURVE SMOOTH",
"2556 272 OFFCURVE",
"2516 302 OFFCURVE",
"2516 352 CURVE SMOOTH",
"2516 400 OFFCURVE",
"2550 434 OFFCURVE",
"2652 434 CURVE SMOOTH",
"2860 434 LINE",
"2860 658 LINE",
"2612 658 LINE SMOOTH",
"2226 658 OFFCURVE",
"2058 526 OFFCURVE",
"2058 312 CURVE SMOOTH",
"2058 124 OFFCURVE",
"2200 -22 OFFCURVE",
"2528 -22 CURVE SMOOTH"
);
},
{
closed = 1;
nodes = (
"3176 546 LINE",
"3176 574 LINE SMOOTH",
"3176 984 OFFCURVE",
"2992 1118 OFFCURVE",
"2576 1118 CURVE SMOOTH",
"2452 1118 OFFCURVE",
"2308 1102 OFFCURVE",
"2172 1066 CURVE",
"2172 744 LINE",
"2280 774 OFFCURVE",
"2418 790 OFFCURVE",
"2512 790 CURVE SMOOTH",
"2720 790 OFFCURVE",
"2782 742 OFFCURVE",
"2782 614 CURVE SMOOTH",
"2782 546 LINE"
);
},
{
closed = 1;
nodes = (
"612 -22 OFFCURVE",
"724 10 OFFCURVE",
"802 90 CURVE",
"822 90 LINE",
"852 0 LINE",
"1236 0 LINE",
"1236 574 LINE SMOOTH",
"1236 984 OFFCURVE",
"1052 1118 OFFCURVE",
"596 1118 CURVE SMOOTH",
"472 1118 OFFCURVE",
"308 1102 OFFCURVE",
"172 1066 CURVE",
"172 744 LINE",
"280 774 OFFCURVE",
"418 790 OFFCURVE",
"512 790 CURVE SMOOTH",
"720 790 OFFCURVE",
"782 742 OFFCURVE",
"782 614 CURVE SMOOTH",
"782 300 LINE",
"738 278 OFFCURVE",
"684 272 OFFCURVE",
"640 272 CURVE SMOOTH",
"556 272 OFFCURVE",
"516 304 OFFCURVE",
"516 350 CURVE SMOOTH",
"516 400 OFFCURVE",
"552 432 OFFCURVE",
"658 438 CURVE SMOOTH",
"902 450 LINE",
"858 682 LINE",
"612 670 LINE SMOOTH",
"226 652 OFFCURVE",
"58 526 OFFCURVE",
"58 312 CURVE SMOOTH",
"58 124 OFFCURVE",
"200 -22 OFFCURVE",
"488 -22 CURVE SMOOTH"
);
}
);
};
color = -1;
layerId = "1E90A949-97C4-49F5-AA9A-AF35B6FD63CF";
paths = (
{
closed = 1;
nodes = (
"1632 -22 OFFCURVE",
"1760 -16 OFFCURVE",
"1902 8 CURVE",
"1902 326 LINE",
"1802 312 OFFCURVE",
"1684 302 OFFCURVE",
"1592 302 CURVE SMOOTH",
"1286 302 OFFCURVE",
"1236 348 OFFCURVE",
"1236 476 CURVE SMOOTH",
"1236 652 LINE SMOOTH",
"1236 786 OFFCURVE",
"1286 846 OFFCURVE",
"1394 846 CURVE SMOOTH",
"1502 846 OFFCURVE",
"1552 784 OFFCURVE",
"1552 650 CURVE",
"1620 668 LINE",
"1126 668 LINE",
"1126 428 LINE",
"1978 428 LINE",
"1978 530 LINE SMOOTH",
"1978 892 OFFCURVE",
"1782 1118 OFFCURVE",
"1422 1118 CURVE SMOOTH",
"1070 1118 OFFCURVE",
"842 892 OFFCURVE",
"842 568 CURVE",
"782 546 LINE",
"782 156 OFFCURVE",
"1008 -22 OFFCURVE",
"1518 -22 CURVE SMOOTH"
);
},
{
closed = 1;
nodes = (
"692 -22 OFFCURVE",
"856 34 OFFCURVE",
"982 150 CURVE",
"846 342 LINE",
"772 288 OFFCURVE",
"718 272 OFFCURVE",
"642 272 CURVE SMOOTH",
"556 272 OFFCURVE",
"516 300 OFFCURVE",
"516 348 CURVE SMOOTH",
"516 398 OFFCURVE",
"550 432 OFFCURVE",
"656 432 CURVE SMOOTH",
"860 432 LINE",
"860 668 LINE",
"612 668 LINE SMOOTH",
"226 668 OFFCURVE",
"58 532 OFFCURVE",
"58 314 CURVE SMOOTH",
"58 124 OFFCURVE",
"200 -22 OFFCURVE",
"528 -22 CURVE SMOOTH"
);
},
{
closed = 1;
nodes = (
"1176 546 LINE",
"1176 574 LINE SMOOTH",
"1176 984 OFFCURVE",
"992 1118 OFFCURVE",
"576 1118 CURVE SMOOTH",
"452 1118 OFFCURVE",
"308 1102 OFFCURVE",
"172 1066 CURVE",
"172 744 LINE",
"280 774 OFFCURVE",
"418 790 OFFCURVE",
"512 790 CURVE SMOOTH",
"720 790 OFFCURVE",
"782 742 OFFCURVE",
"782 614 CURVE SMOOTH",
"782 546 LINE"
);
}
);
width = 2034;
}
);
leftKerningGroup = a;
rightKerningGroup = e;
unicode = 00E6;
},
{
glyphname = b;
layers = (
{
anchors = (
{
name = bottom;
position = "{616, 0}";
},
{
name = top;
position = "{230, 1616}";
}
);
background = {
anchors = (
{
name = bottom;
position = "{610, 0}";
},
{
name = top;
position = "{610, 1200}";
}
);
paths = (
{
closed = 1;
nodes = (
"902 -18 OFFCURVE",
"1094 172 OFFCURVE",
"1094 560 CURVE SMOOTH",
"1094 948 OFFCURVE",
"892 1096 OFFCURVE",
"630 1096 CURVE SMOOTH",
"476 1096 OFFCURVE",
"350 1040 OFFCURVE",
"264 952 CURVE",
"258 952 LINE",
"258 1616 LINE",
"190 1616 LINE",
"190 30 LINE",
"296 0 OFFCURVE",
"404 -18 OFFCURVE",
"522 -18 CURVE SMOOTH"
);
},
{
closed = 1;
nodes = (
"426 48 OFFCURVE",
"330 64 OFFCURVE",
"258 88 CURVE",
"258 864 LINE",
"354 982 OFFCURVE",
"488 1030 OFFCURVE",
"626 1030 CURVE SMOOTH",
"852 1030 OFFCURVE",
"1022 908 OFFCURVE",
"1022 552 CURVE SMOOTH",
"1022 206 OFFCURVE",
"858 48 OFFCURVE",
"528 48 CURVE SMOOTH"
);
}
);
};
color = -1;
layerId = "E28BEEB5-BD92-4E7A-B4EA-FC5E5BBBF580";
paths = (
{
closed = 1;
nodes = (
"908 -18 OFFCURVE",
"1100 172 OFFCURVE",
"1100 560 CURVE SMOOTH",
"1100 948 OFFCURVE",
"898 1096 OFFCURVE",
"636 1096 CURVE SMOOTH",
"482 1096 OFFCURVE",
"356 1040 OFFCURVE",
"270 952 CURVE",
"264 952 LINE",
"264 1616 LINE",
"196 1616 LINE",
"196 30 LINE",
"308 -2 OFFCURVE",
"418 -18 OFFCURVE",
"536 -18 CURVE SMOOTH"
);
},
{
closed = 1;
nodes = (
"432 48 OFFCURVE",
"336 64 OFFCURVE",
"264 86 CURVE",
"264 864 LINE",
"360 982 OFFCURVE",
"494 1030 OFFCURVE",
"632 1030 CURVE SMOOTH",
"858 1030 OFFCURVE",
"1028 908 OFFCURVE",
"1028 552 CURVE SMOOTH",
"1028 206 OFFCURVE",
"864 48 OFFCURVE",
"544 48 CURVE SMOOTH"
);
}
);
width = 1228;
},
{
anchors = (
{
name = bottom;
position = "{746, 0}";
},
{
name = top;
position = "{348, 1616}";
}
);
background = {
paths = (
{
closed = 1;
nodes = (
"1168 -22 OFFCURVE",
"1422 194 OFFCURVE",
"1422 580 CURVE SMOOTH",
"1422 940 OFFCURVE",
"1192 1118 OFFCURVE",
"924 1118 CURVE SMOOTH",
"788 1118 OFFCURVE",
"680 1080 OFFCURVE",
"598 1006 CURVE",
"578 1006 LINE",
"578 1616 LINE",
"114 1616 LINE",
"114 50 LINE",
"284 -2 OFFCURVE",
"488 -22 OFFCURVE",
"672 -22 CURVE SMOOTH"
);
},
{
closed = 1;
nodes = (
"662 322 OFFCURVE",
"614 328 OFFCURVE",
"578 336 CURVE",
"578 718 LINE",
"630 744 OFFCURVE",
"694 756 OFFCURVE",
"754 756 CURVE SMOOTH",
"884 756 OFFCURVE",
"964 698 OFFCURVE",
"964 550 CURVE SMOOTH",
"964 398 OFFCURVE",
"884 322 OFFCURVE",
"714 322 CURVE SMOOTH"
);
}
);
};
color = -1;
layerId = "1E90A949-97C4-49F5-AA9A-AF35B6FD63CF";
paths = (
{
closed = 1;
nodes = (
"1170 -22 OFFCURVE",
"1424 194 OFFCURVE",
"1424 580 CURVE SMOOTH",
"1424 940 OFFCURVE",
"1194 1118 OFFCURVE",
"926 1118 CURVE SMOOTH",
"790 1118 OFFCURVE",
"682 1080 OFFCURVE",
"600 1006 CURVE",
"580 1006 LINE",
"580 1616 LINE",
"116 1616 LINE",
"116 50 LINE",
"286 -2 OFFCURVE",
"490 -22 OFFCURVE",
"674 -22 CURVE SMOOTH"
);
},
{
closed = 1;
nodes = (
"664 318 OFFCURVE",
"616 324 OFFCURVE",
"580 332 CURVE",
"580 716 LINE",
"632 742 OFFCURVE",
"696 754 OFFCURVE",
"756 754 CURVE SMOOTH",
"886 754 OFFCURVE",
"966 696 OFFCURVE",
"966 548 CURVE SMOOTH",
"966 394 OFFCURVE",
"886 318 OFFCURVE",
"716 318 CURVE SMOOTH"
);
}
);
width = 1490;
}
);
leftKerningGroup = l;
rightKerningGroup = o;
unicode = 0062;
userData = {
com.typemytype.robofont.layerData = {
};
};
},
{
glyphname = c;
layers = (
{
anchors = (
{
name = bottom;
position = "{568, 0}";
},
{
name = top;
position = "{574, 1200}";
}
);
background = {
paths = (
{
closed = 1;
nodes = (
"876 -18 OFFCURVE",
"1070 154 OFFCURVE",
"1070 540 CURVE SMOOTH",
"1070 934 OFFCURVE",
"880 1096 OFFCURVE",
"596 1096 CURVE SMOOTH",
"316 1096 OFFCURVE",
"122 926 OFFCURVE",
"122 540 CURVE SMOOTH",
"122 146 OFFCURVE",
"312 -18 OFFCURVE",
"596 -18 CURVE SMOOTH"
);
},
{
closed = 1;
nodes = (
"352 48 OFFCURVE",
"194 184 OFFCURVE",
"194 542 CURVE SMOOTH",
"194 896 OFFCURVE",
"352 1030 OFFCURVE",
"596 1030 CURVE SMOOTH",
"840 1030 OFFCURVE",
"998 896 OFFCURVE",
"998 538 CURVE SMOOTH",
"998 184 OFFCURVE",
"840 48 OFFCURVE",
"596 48 CURVE SMOOTH"
);
}
);
};
color = -1;
layerId = "E28BEEB5-BD92-4E7A-B4EA-FC5E5BBBF580";
paths = (
{
closed = 1;
nodes = (
"704 -18 OFFCURVE",
"804 0 OFFCURVE",
"900 36 CURVE",
"900 104 LINE",
"788 64 OFFCURVE",
"696 48 OFFCURVE",
"614 48 CURVE SMOOTH",
"346 48 OFFCURVE",
"200 192 OFFCURVE",
"200 544 CURVE SMOOTH",
"200 888 OFFCURVE",
"354 1030 OFFCURVE",
"652 1030 CURVE SMOOTH",
"744 1030 OFFCURVE",
"822 1016 OFFCURVE",
"900 992 CURVE",
"900 1060 LINE",
"826 1084 OFFCURVE",
"736 1096 OFFCURVE",
"652 1096 CURVE SMOOTH",
"314 1096 OFFCURVE",
"128 922 OFFCURVE",
"128 540 CURVE SMOOTH",
"128 156 OFFCURVE",
"304 -18 OFFCURVE",
"608 -18 CURVE SMOOTH"
);
}
);
width = 950;
},
{
anchors = (
{
name = bottom;
position = "{676, 0}";
},
{
name = top;
position = "{648, 1200}";
}
);
background = {
paths = (
{
closed = 1;
nodes = (
"2324 -22 OFFCURVE",
"2442 -4 OFFCURVE",
"2524 20 CURVE",
"2524 368 LINE",
"2400 344 OFFCURVE",
"2328 334 OFFCURVE",
"2238 334 CURVE SMOOTH",
"2038 334 OFFCURVE",
"1936 410 OFFCURVE",
"1936 546 CURVE SMOOTH",
"1936 684 OFFCURVE",
"2028 762 OFFCURVE",
"2258 762 CURVE SMOOTH",
"2350 762 OFFCURVE",
"2426 754 OFFCURVE",
"2524 740 CURVE",
"2524 1088 LINE",
"2432 1108 OFFCURVE",
"2330 1118 OFFCURVE",
"2210 1118 CURVE SMOOTH",
"1722 1118 OFFCURVE",
"1464 906 OFFCURVE",
"1464 546 CURVE SMOOTH",
"1464 186 OFFCURVE",
"1716 -22 OFFCURVE",
"2190 -22 CURVE SMOOTH"
);
},
{
closed = 1;
nodes = (
"1132 -22 OFFCURVE",
"1396 194 OFFCURVE",
"1396 550 CURVE SMOOTH",
"1396 906 OFFCURVE",
"1154 1118 OFFCURVE",
"730 1118 CURVE SMOOTH",
"306 1118 OFFCURVE",
"64 906 OFFCURVE",
"64 550 CURVE SMOOTH",
"64 194 OFFCURVE",
"328 -22 OFFCURVE",
"730 -22 CURVE SMOOTH"
);
},
{
closed = 1;
nodes = (
"594 326 OFFCURVE",
"522 396 OFFCURVE",
"522 550 CURVE SMOOTH",
"522 704 OFFCURVE",
"594 770 OFFCURVE",
"730 770 CURVE SMOOTH",
"866 770 OFFCURVE",
"938 704 OFFCURVE",
"938 550 CURVE SMOOTH",
"938 396 OFFCURVE",
"866 326 OFFCURVE",
"730 326 CURVE SMOOTH"
);
}
);
};
color = -1;
layerId = "1E90A949-97C4-49F5-AA9A-AF35B6FD63CF";
paths = (
{
closed = 1;
nodes = (
"926 -22 OFFCURVE",
"1044 -4 OFFCURVE",
"1126 20 CURVE",
"1126 368 LINE",
"1002 344 OFFCURVE",
"930 334 OFFCURVE",
"840 334 CURVE SMOOTH",
"640 334 OFFCURVE",
"538 410 OFFCURVE",
"538 546 CURVE SMOOTH",
"538 684 OFFCURVE",
"630 762 OFFCURVE",
"860 762 CURVE SMOOTH",
"952 762 OFFCURVE",
"1028 754 OFFCURVE",
"1126 740 CURVE",
"1126 1088 LINE",
"1034 1108 OFFCURVE",
"932 1118 OFFCURVE",
"812 1118 CURVE SMOOTH",
"324 1118 OFFCURVE",
"66 906 OFFCURVE",
"66 546 CURVE SMOOTH",
"66 186 OFFCURVE",
"318 -22 OFFCURVE",
"792 -22 CURVE SMOOTH"
);
}
);
width = 1194;
}
);
leftKerningGroup = o;
rightKerningGroup = c;
unicode = 0063;
userData = {
com.typemytype.robofont.layerData = {
};
};
},
{
glyphname = d;
layers = (
{
anchors = (
{
name = bottom;
position = "{612, 0}";
},
{
name = caronalt;
position = "{1172, 1616}";
},
{
name = center;
position = "{612, 540}";
},
{
name = stroke;
position = "{1032, 1356}";
},
{
name = top;
position = "{612, 1200}";
},
{
name = topright;
position = "{1172, 1080}";
}
);
background = {
paths = (
{
closed = 1;
nodes = (
"740 -18 OFFCURVE",
"868 38 OFFCURVE",
"952 132 CURVE",
"960 132 LINE",
"966 0 LINE",
"1026 0 LINE",
"1026 1616 LINE",
"958 1616 LINE",
"958 1070 LINE",
"886 1084 OFFCURVE",
"794 1096 OFFCURVE",
"700 1096 CURVE SMOOTH",
"316 1096 OFFCURVE",
"122 906 OFFCURVE",
"122 518 CURVE SMOOTH",
"122 144 OFFCURVE",
"318 -18 OFFCURVE",
"594 -18 CURVE SMOOTH"
);
},
{
closed = 1;
nodes = (
"354 48 OFFCURVE",
"194 178 OFFCURVE",
"194 526 CURVE SMOOTH",
"194 872 OFFCURVE",
"358 1030 OFFCURVE",
"696 1030 CURVE SMOOTH",
"790 1030 OFFCURVE",
"886 1018 OFFCURVE",
"958 998 CURVE",
"958 226 LINE",
"862 96 OFFCURVE",
"730 48 OFFCURVE",
"598 48 CURVE SMOOTH"
);
}
);
};
color = -1;
layerId = "E28BEEB5-BD92-4E7A-B4EA-FC5E5BBBF580";
paths = (
{
closed = 1;
nodes = (
"746 -18 OFFCURVE",
"874 38 OFFCURVE",
"958 132 CURVE",
"966 132 LINE",
"972 0 LINE",
"1032 0 LINE",
"1032 1616 LINE",
"964 1616 LINE",
"964 1070 LINE",
"892 1084 OFFCURVE",
"800 1096 OFFCURVE",
"706 1096 CURVE SMOOTH",
"322 1096 OFFCURVE",
"128 906 OFFCURVE",
"128 518 CURVE SMOOTH",
"128 144 OFFCURVE",
"324 -18 OFFCURVE",
"600 -18 CURVE SMOOTH"
);
},
{
closed = 1;
nodes = (
"360 48 OFFCURVE",
"200 178 OFFCURVE",
"200 526 CURVE SMOOTH",
"200 872 OFFCURVE",
"364 1030 OFFCURVE",
"702 1030 CURVE SMOOTH",
"796 1030 OFFCURVE",
"892 1018 OFFCURVE",
"964 998 CURVE",
"964 226 LINE",
"868 96 OFFCURVE",
"736 48 OFFCURVE",
"604 48 CURVE SMOOTH"
);
}
);
width = 1228;
},
{
anchors = (
{
name = bottom;
position = "{760, 0}";
},
{
name = caronalt;
position = "{1474, 1616}";
},
{
name = center;
position = "{744, 550}";
},
{
name = stroke;
position = "{1374, 1356}";
},
{
name = top;
position = "{720, 1200}";
},
{
name = topright;
position = "{1444, 1100}";
}
);
background = {
paths = (
{
closed = 1;
nodes = (
"746 -18 OFFCURVE",
"860 32 OFFCURVE",
"942 106 CURVE",
"962 106 LINE",
"986 0 LINE",
"1372 0 LINE",
"1372 1616 LINE",
"908 1616 LINE",
"908 1114 LINE",
"858 1118 OFFCURVE",
"798 1122 OFFCURVE",
"738 1122 CURVE SMOOTH",
"324 1122 OFFCURVE",
"64 900 OFFCURVE",
"64 526 CURVE SMOOTH",
"64 142 OFFCURVE",
"310 -18 OFFCURVE",
"600 -18 CURVE SMOOTH"
);
},
{
closed = 1;
nodes = (
"604 344 OFFCURVE",
"522 402 OFFCURVE",
"522 554 CURVE SMOOTH",
"522 702 OFFCURVE",
"602 778 OFFCURVE",
"772 778 CURVE SMOOTH",
"824 778 OFFCURVE",
"872 772 OFFCURVE",
"908 766 CURVE",
"908 392 LINE",
"860 358 OFFCURVE",
"792 344 OFFCURVE",
"730 344 CURVE SMOOTH"
);
}
);
};
color = -1;
layerId = "1E90A949-97C4-49F5-AA9A-AF35B6FD63CF";
paths = (
{
closed = 1;
nodes = (
"748 -18 OFFCURVE",
"862 32 OFFCURVE",
"944 106 CURVE",
"964 106 LINE",
"988 0 LINE",
"1374 0 LINE",
"1374 1616 LINE",
"910 1616 LINE",
"910 1114 LINE",
"860 1118 OFFCURVE",
"800 1122 OFFCURVE",
"740 1122 CURVE SMOOTH",
"326 1122 OFFCURVE",
"66 900 OFFCURVE",
"66 526 CURVE SMOOTH",
"66 142 OFFCURVE",
"312 -18 OFFCURVE",
"602 -18 CURVE SMOOTH"
);
},
{
closed = 1;
nodes = (
"606 346 OFFCURVE",
"524 404 OFFCURVE",
"524 556 CURVE SMOOTH",
"524 704 OFFCURVE",
"604 780 OFFCURVE",
"774 780 CURVE SMOOTH",
"826 780 OFFCURVE",
"874 774 OFFCURVE",
"910 768 CURVE",
"910 394 LINE",
"862 360 OFFCURVE",
"794 346 OFFCURVE",
"732 346 CURVE SMOOTH"
);
}
);
width = 1490;
}
);
leftKerningGroup = o;
rightKerningGroup = l;
unicode = 0064;
userData = {
com.typemytype.robofont.layerData = {
};
};
},
{
glyphname = eth;
layers = (
{
background = {
paths = (
{
closed = 1;
nodes = (
"876 -18 OFFCURVE",
"1068 164 OFFCURVE",
"1068 570 CURVE SMOOTH",
"1068 982 OFFCURVE",
"820 1402 OFFCURVE",
"496 1616 CURVE",
"394 1616 LINE",
"718 1396 OFFCURVE",
"860 1158 OFFCURVE",
"940 920 CURVE",
"1012 824 LINE",
"922 1032 OFFCURVE",
"770 1096 OFFCURVE",
"596 1096 CURVE SMOOTH",
"316 1096 OFFCURVE",
"122 926 OFFCURVE",
"122 540 CURVE SMOOTH",
"122 146 OFFCURVE",
"312 -18 OFFCURVE",
"598 -18 CURVE SMOOTH"
);
},
{
closed = 1;
nodes = (
"352 48 OFFCURVE",
"194 184 OFFCURVE",
"194 542 CURVE SMOOTH",
"194 896 OFFCURVE",
"352 1030 OFFCURVE",
"596 1030 CURVE SMOOTH",
"840 1030 OFFCURVE",
"998 896 OFFCURVE",
"998 538 CURVE SMOOTH",
"998 194 OFFCURVE",
"840 48 OFFCURVE",
"598 48 CURVE SMOOTH"
);
},
{
closed = 1;
nodes = (
"1046 1362 LINE",
"1038 1420 LINE",
"230 1294 LINE",
"238 1236 LINE"
);
}
);
};
color = -1;
guideLines = (
{
angle = 90;
position = "{1090, 770}";
}
);
layerId = "E28BEEB5-BD92-4E7A-B4EA-FC5E5BBBF580";
paths = (
{
closed = 1;
nodes = (
"882 -18 OFFCURVE",
"1074 164 OFFCURVE",
"1074 570 CURVE SMOOTH",
"1074 982 OFFCURVE",
"826 1402 OFFCURVE",
"502 1616 CURVE",
"400 1616 LINE",
"706 1408 OFFCURVE",
"860 1178 OFFCURVE",
"948 920 CURVE",
"1018 820 LINE",
"928 1032 OFFCURVE",
"776 1096 OFFCURVE",
"602 1096 CURVE SMOOTH",
"322 1096 OFFCURVE",
"128 926 OFFCURVE",
"128 540 CURVE SMOOTH",
"128 146 OFFCURVE",
"318 -18 OFFCURVE",
"604 -18 CURVE SMOOTH"
);
},
{
closed = 1;
nodes = (
"358 48 OFFCURVE",
"200 184 OFFCURVE",
"200 542 CURVE SMOOTH",
"200 896 OFFCURVE",
"358 1030 OFFCURVE",
"602 1030 CURVE SMOOTH",
"846 1030 OFFCURVE",
"1004 896 OFFCURVE",
"1004 538 CURVE SMOOTH",
"1004 194 OFFCURVE",
"846 48 OFFCURVE",
"604 48 CURVE SMOOTH"
);
},
{
closed = 1;
nodes = (
"1052 1362 LINE",
"1044 1420 LINE",
"236 1294 LINE",
"244 1236 LINE"
);
}
);
width = 1204;
},
{
background = {
paths = (
{
closed = 1;
nodes = (
"2732 -22 OFFCURVE",
"2996 194 OFFCURVE",
"2996 550 CURVE SMOOTH",
"2996 906 OFFCURVE",
"2754 1118 OFFCURVE",
"2330 1118 CURVE SMOOTH",
"1906 1118 OFFCURVE",
"1664 906 OFFCURVE",
"1664 550 CURVE SMOOTH",
"1664 194 OFFCURVE",
"1928 -22 OFFCURVE",
"2330 -22 CURVE SMOOTH"
);
},
{
closed = 1;
nodes = (
"2194 326 OFFCURVE",
"2122 396 OFFCURVE",
"2122 550 CURVE SMOOTH",
"2122 704 OFFCURVE",
"2194 770 OFFCURVE",
"2330 770 CURVE SMOOTH",
"2466 770 OFFCURVE",
"2538 704 OFFCURVE",
"2538 550 CURVE SMOOTH",
"2538 396 OFFCURVE",
"2466 326 OFFCURVE",
"2330 326 CURVE SMOOTH"
);
},
{
closed = 1;
nodes = (
"1162 -26 OFFCURVE",
"1402 154 OFFCURVE",
"1402 620 CURVE SMOOTH",
"1402 996 OFFCURVE",
"1138 1400 OFFCURVE",
"802 1616 CURVE",
"240 1616 LINE",
"522 1426 OFFCURVE",
"776 1206 OFFCURVE",
"866 954 CURVE",
"980 1000 LINE",
"928 1068 OFFCURVE",
"790 1112 OFFCURVE",
"692 1112 CURVE SMOOTH",
"318 1112 OFFCURVE",
"64 940 OFFCURVE",
"64 542 CURVE SMOOTH",
"64 154 OFFCURVE",
"306 -26 OFFCURVE",
"734 -26 CURVE SMOOTH"
);
},
{
closed = 1;
nodes = (
"1042 1366 LINE",
"994 1566 LINE",
"148 1376 LINE",
"196 1176 LINE"
);
}
);
};
color = -1;
layerId = "1E90A949-97C4-49F5-AA9A-AF35B6FD63CF";
paths = (
{
closed = 1;
nodes = (
"1152 -22 OFFCURVE",
"1400 194 OFFCURVE",
"1404 622 CURVE SMOOTH",
"1408 980 OFFCURVE",
"1152 1382 OFFCURVE",
"810 1616 CURVE",
"232 1616 LINE",
"536 1438 OFFCURVE",
"796 1164 OFFCURVE",
"876 914 CURVE",
"1052 922 LINE",
"956 1056 OFFCURVE",
"832 1104 OFFCURVE",
"680 1104 CURVE SMOOTH",
"314 1104 OFFCURVE",
"66 906 OFFCURVE",
"66 550 CURVE SMOOTH",
"66 200 OFFCURVE",
"324 -22 OFFCURVE",
"732 -22 CURVE SMOOTH"
);
},
{
closed = 1;
nodes = (
"592 326 OFFCURVE",
"524 400 OFFCURVE",
"524 550 CURVE SMOOTH",
"524 700 OFFCURVE",
"592 774 OFFCURVE",
"732 774 CURVE SMOOTH",
"872 774 OFFCURVE",
"940 700 OFFCURVE",
"940 550 CURVE SMOOTH",
"940 400 OFFCURVE",
"872 326 OFFCURVE",
"732 326 CURVE SMOOTH"
);
},
{
closed = 1;
nodes = (
"1360 1322 LINE",
"1318 1568 LINE",
"152 1386 LINE",
"194 1140 LINE"
);
}
);
width = 1464;
}
);
leftKerningGroup = o;
rightKerningGroup = o;
unicode = 00F0;
userData = {
com.typemytype.robofont.layerData = {
};
};
},
{
glyphname = dcroat;
layers = (
{
background = {
components = (
{
name = d;
},
{
name = strokeshortcomb.d;
transform = "{1, 0, 0, 1, 213, 138}";
}
);
};
color = -1;
components = (
{
name = d;
},
{
name = strokeshortcomb.d;
transform = "{1, 0, 0, 1, 432, 276}";
}
);
layerId = "E28BEEB5-BD92-4E7A-B4EA-FC5E5BBBF580";
width = 1228;
},
{
background = {
components = (
{
name = d;
}
);
paths = (
{
closed = 1;
nodes = (
"560 1224 LINE",
"1508 1224 LINE",
"1508 1470 LINE",
"560 1470 LINE"
);
}
);
};
color = -1;
components = (
{
name = d;
},
{
name = strokeshortcomb.d;
transform = "{1, 0, 0, 1, 234, 256}";
}
);
layerId = "1E90A949-97C4-49F5-AA9A-AF35B6FD63CF";
width = 1490;
}
);
leftKerningGroup = o;
rightKerningGroup = l;
unicode = 0111;
},
{
color = 9;
glyphname = e;
layers = (
{
anchors = (
{
name = bottom;
position = "{582, 0}";
},
{
name = ogonek;
position = "{830, 0}";
},
{
name = top;
position = "{582, 1200}";
}
);
background = {
paths = (
{
closed = 1;
nodes = (
"752 -18 OFFCURVE",
"852 0 OFFCURVE",
"962 36 CURVE",
"962 104 LINE",
"850 68 OFFCURVE",
"750 48 OFFCURVE",
"652 48 CURVE SMOOTH",
"370 48 OFFCURVE",
"200 192 OFFCURVE",
"200 536 CURVE SMOOTH",
"200 548 LINE SMOOTH",
"200 882 OFFCURVE",
"336 1030 OFFCURVE",
"576 1030 CURVE SMOOTH",
"816 1030 OFFCURVE",
"944 880 OFFCURVE",
"944 548 CURVE",
"982 576 LINE",
"150 576 LINE",
"150 510 LINE",
"1014 510 LINE",
"1014 540 LINE SMOOTH",
"1014 910 OFFCURVE",
"854 1096 OFFCURVE",
"576 1096 CURVE SMOOTH",
"300 1096 OFFCURVE",
"128 912 OFFCURVE",
"128 540 CURVE SMOOTH",
"128 156 OFFCURVE",
"322 -18 OFFCURVE",
"648 -18 CURVE SMOOTH"
);
}
);
};
color = -1;
layerId = "E28BEEB5-BD92-4E7A-B4EA-FC5E5BBBF580";
paths = (
{
closed = 1;
nodes = (
"752 -18 OFFCURVE",
"852 0 OFFCURVE",
"962 36 CURVE",
"962 104 LINE",
"850 68 OFFCURVE",
"750 48 OFFCURVE",
"652 48 CURVE SMOOTH",
"370 48 OFFCURVE",
"200 192 OFFCURVE",
"200 536 CURVE SMOOTH",
"200 548 LINE SMOOTH",
"200 882 OFFCURVE",
"336 1030 OFFCURVE",
"576 1030 CURVE SMOOTH",
"816 1030 OFFCURVE",
"944 880 OFFCURVE",
"944 548 CURVE",
"982 576 LINE",
"150 576 LINE",
"150 510 LINE",
"1014 510 LINE",
"1014 540 LINE SMOOTH",
"1014 910 OFFCURVE",
"854 1096 OFFCURVE",
"576 1096 CURVE SMOOTH",
"300 1096 OFFCURVE",
"128 912 OFFCURVE",
"128 540 CURVE SMOOTH",
"128 156 OFFCURVE",
"322 -18 OFFCURVE",
"648 -18 CURVE SMOOTH"
);
}
);
width = 1120;
},
{
anchors = (
{
name = bottom;
position = "{682, 0}";
},
{
name = ogonek;
position = "{1184, 0}";
},
{
name = top;
position = "{682, 1200}";
}
);
background = {
paths = (
{
closed = 1;
nodes = (
"924 -22 OFFCURVE",
"1052 -16 OFFCURVE",
"1194 8 CURVE",
"1194 326 LINE",
"1094 312 OFFCURVE",
"976 302 OFFCURVE",
"884 302 CURVE SMOOTH",
"570 302 OFFCURVE",
"520 348 OFFCURVE",
"520 476 CURVE SMOOTH",
"520 642 LINE SMOOTH",
"520 776 OFFCURVE",
"570 836 OFFCURVE",
"682 836 CURVE SMOOTH",
"794 836 OFFCURVE",
"844 774 OFFCURVE",
"844 640 CURVE",
"912 658 LINE",
"270 658 LINE",
"270 428 LINE",
"1270 428 LINE",
"1270 530 LINE SMOOTH",
"1270 892 OFFCURVE",
"1074 1118 OFFCURVE",
"690 1118 CURVE SMOOTH",
"284 1118 OFFCURVE",
"66 892 OFFCURVE",
"66 546 CURVE SMOOTH",
"66 156 OFFCURVE",
"292 -22 OFFCURVE",
"810 -22 CURVE SMOOTH"
);
}
);
};
color = -1;
layerId = "1E90A949-97C4-49F5-AA9A-AF35B6FD63CF";
paths = (
{
closed = 1;
nodes = (
"924 -22 OFFCURVE",
"1052 -16 OFFCURVE",
"1194 8 CURVE",
"1194 326 LINE",
"1094 312 OFFCURVE",
"976 302 OFFCURVE",
"884 302 CURVE SMOOTH",
"570 302 OFFCURVE",
"520 348 OFFCURVE",
"520 476 CURVE SMOOTH",
"520 652 LINE SMOOTH",
"520 786 OFFCURVE",
"570 846 OFFCURVE",
"682 846 CURVE SMOOTH",
"794 846 OFFCURVE",
"844 784 OFFCURVE",
"844 650 CURVE",
"912 668 LINE",
"270 668 LINE",
"270 428 LINE",
"1270 428 LINE",
"1270 530 LINE SMOOTH",
"1270 892 OFFCURVE",
"1074 1118 OFFCURVE",
"690 1118 CURVE SMOOTH",
"284 1118 OFFCURVE",
"66 892 OFFCURVE",
"66 546 CURVE SMOOTH",
"66 156 OFFCURVE",
"292 -22 OFFCURVE",
"810 -22 CURVE SMOOTH"
);
}
);
width = 1326;
}
);
leftKerningGroup = o;
rightKerningGroup = e;
unicode = 0065;
userData = {
com.typemytype.robofont.layerData = {
};
};
},
{
glyphname = eogonek;
layers = (
{
background = {
paths = (
{
closed = 1;
nodes = (
"840 -400 OFFCURVE",
"906 -384 OFFCURVE",
"956 -358 CURVE",
"956 -302 LINE",
"896 -334 OFFCURVE",
"840 -348 OFFCURVE",
"784 -348 CURVE SMOOTH",
"698 -348 OFFCURVE",
"644 -302 OFFCURVE",
"644 -228 CURVE SMOOTH",
"644 -140 OFFCURVE",
"700 -74 OFFCURVE",
"838 0 CURVE",
"814 48 LINE",
"658 -34 OFFCURVE",
"588 -120 OFFCURVE",
"588 -230 CURVE SMOOTH",
"588 -334 OFFCURVE",
"664 -400 OFFCURVE",
"788 -400 CURVE SMOOTH"
);
},
{
closed = 1;
nodes = (
"746 -18 OFFCURVE",
"846 0 OFFCURVE",
"956 36 CURVE",
"956 104 LINE",
"844 68 OFFCURVE",
"744 48 OFFCURVE",
"646 48 CURVE SMOOTH",
"364 48 OFFCURVE",
"194 192 OFFCURVE",
"194 536 CURVE SMOOTH",
"194 548 LINE SMOOTH",
"194 882 OFFCURVE",
"330 1030 OFFCURVE",
"570 1030 CURVE SMOOTH",
"810 1030 OFFCURVE",
"938 880 OFFCURVE",
"938 548 CURVE",
"976 576 LINE",
"144 576 LINE",
"144 510 LINE",
"1008 510 LINE",
"1008 540 LINE SMOOTH",
"1008 910 OFFCURVE",
"848 1096 OFFCURVE",
"570 1096 CURVE SMOOTH",
"294 1096 OFFCURVE",
"122 912 OFFCURVE",
"122 540 CURVE SMOOTH",
"122 156 OFFCURVE",
"316 -18 OFFCURVE",
"642 -18 CURVE SMOOTH"
);
}
);
};
color = -1;
layerId = "E28BEEB5-BD92-4E7A-B4EA-FC5E5BBBF580";
paths = (
{
closed = 1;
nodes = (
"846 -400 OFFCURVE",
"912 -384 OFFCURVE",
"962 -358 CURVE",
"962 -302 LINE",
"902 -334 OFFCURVE",
"846 -348 OFFCURVE",
"790 -348 CURVE SMOOTH",
"704 -348 OFFCURVE",
"650 -302 OFFCURVE",
"650 -226 CURVE SMOOTH",
"650 -140 OFFCURVE",
"712 -38 OFFCURVE",
"962 36 CURVE",
"962 104 LINE",
"850 68 OFFCURVE",
"750 48 OFFCURVE",
"652 48 CURVE SMOOTH",
"370 48 OFFCURVE",
"200 192 OFFCURVE",
"200 536 CURVE SMOOTH",
"200 548 LINE SMOOTH",
"200 882 OFFCURVE",
"336 1030 OFFCURVE",
"576 1030 CURVE SMOOTH",
"816 1030 OFFCURVE",
"944 880 OFFCURVE",
"944 548 CURVE",
"982 576 LINE",
"150 576 LINE",
"150 510 LINE",
"1014 510 LINE",
"1014 540 LINE SMOOTH",
"1014 910 OFFCURVE",
"854 1096 OFFCURVE",
"576 1096 CURVE SMOOTH",
"300 1096 OFFCURVE",
"128 912 OFFCURVE",
"128 540 CURVE SMOOTH",
"128 156 OFFCURVE",
"322 -18 OFFCURVE",
"648 -18 CURVE SMOOTH",
"684 -18 OFFCURVE",
"722 -16 OFFCURVE",
"756 -10 CURVE",
"752 2 LINE",
"658 -48 OFFCURVE",
"594 -132 OFFCURVE",
"594 -230 CURVE SMOOTH",
"594 -334 OFFCURVE",
"670 -400 OFFCURVE",
"794 -400 CURVE SMOOTH"
);
}
);
width = 1120;
},
{
background = {
paths = (
{
closed = 1;
nodes = (
"922 -22 OFFCURVE",
"1050 -16 OFFCURVE",
"1192 8 CURVE",
"1192 326 LINE",
"1092 312 OFFCURVE",
"974 302 OFFCURVE",
"882 302 CURVE SMOOTH",
"568 302 OFFCURVE",
"518 348 OFFCURVE",
"518 476 CURVE SMOOTH",
"518 642 LINE SMOOTH",
"518 776 OFFCURVE",
"568 836 OFFCURVE",
"680 836 CURVE SMOOTH",
"792 836 OFFCURVE",
"842 774 OFFCURVE",
"842 640 CURVE",
"910 658 LINE",
"268 658 LINE",
"268 428 LINE",
"1268 428 LINE",
"1268 530 LINE SMOOTH",
"1268 892 OFFCURVE",
"1072 1118 OFFCURVE",
"688 1118 CURVE SMOOTH",
"282 1118 OFFCURVE",
"64 892 OFFCURVE",
"64 546 CURVE SMOOTH",
"64 156 OFFCURVE",
"290 -22 OFFCURVE",
"808 -22 CURVE SMOOTH"
);
},
{
closed = 1;
nodes = (
"1086 -460 OFFCURVE",
"1138 -448 OFFCURVE",
"1192 -430 CURVE",
"1192 -270 LINE",
"1148 -288 OFFCURVE",
"1106 -294 OFFCURVE",
"1074 -294 CURVE SMOOTH",
"988 -294 OFFCURVE",
"946 -256 OFFCURVE",
"946 -200 CURVE SMOOTH",
"946 -122 OFFCURVE",
"998 -60 OFFCURVE",
"1172 0 CURVE",
"1060 78 LINE",
"774 14 OFFCURVE",
"690 -104 OFFCURVE",
"690 -234 CURVE SMOOTH",
"690 -370 OFFCURVE",
"792 -460 OFFCURVE",
"1002 -460 CURVE SMOOTH"
);
}
);
};
color = -1;
layerId = "1E90A949-97C4-49F5-AA9A-AF35B6FD63CF";
paths = (
{
closed = 1;
nodes = (
"1088 -460 OFFCURVE",
"1140 -448 OFFCURVE",
"1194 -430 CURVE",
"1194 -270 LINE",
"1150 -288 OFFCURVE",
"1108 -294 OFFCURVE",
"1076 -294 CURVE SMOOTH",
"990 -294 OFFCURVE",
"948 -256 OFFCURVE",
"948 -200 CURVE SMOOTH",
"948 -122 OFFCURVE",
"1004 -50 OFFCURVE",
"1194 8 CURVE",
"1194 326 LINE",
"1094 312 OFFCURVE",
"976 302 OFFCURVE",
"884 302 CURVE SMOOTH",
"570 302 OFFCURVE",
"520 348 OFFCURVE",
"520 476 CURVE SMOOTH",
"520 642 LINE SMOOTH",
"520 776 OFFCURVE",
"570 836 OFFCURVE",
"682 836 CURVE SMOOTH",
"794 836 OFFCURVE",
"844 774 OFFCURVE",
"844 640 CURVE",
"912 658 LINE",
"270 658 LINE",
"270 428 LINE",
"1270 428 LINE",
"1270 530 LINE SMOOTH",
"1270 892 OFFCURVE",
"1074 1118 OFFCURVE",
"690 1118 CURVE SMOOTH",
"284 1118 OFFCURVE",
"66 892 OFFCURVE",
"66 546 CURVE SMOOTH",
"66 156 OFFCURVE",
"292 -22 OFFCURVE",
"810 -22 CURVE SMOOTH",
"874 -22 OFFCURVE",
"948 -20 OFFCURVE",
"1022 -14 CURVE",
"1004 62 LINE",
"764 -2 OFFCURVE",
"692 -114 OFFCURVE",
"692 -234 CURVE SMOOTH",
"692 -370 OFFCURVE",
"794 -460 OFFCURVE",
"1004 -460 CURVE SMOOTH"
);
}
);
width = 1326;
}
);
leftKerningGroup = o;
rightKerningGroup = e;
unicode = 0119;
},
{
glyphname = schwa;
layers = (
{
background = {
components = (
{
name = e;
transform = "{-1, 0, 0, -1, 565, 540}";
}
);
};
color = -1;
components = (
{
name = e;
transform = "{-1, 0, 0, -1, 1120, 1080}";
}
);
layerId = "E28BEEB5-BD92-4E7A-B4EA-FC5E5BBBF580";
width = 1120;
},
{
background = {
paths = (
{
closed = 1;
nodes = (
"1018 -18 OFFCURVE",
"1232 172 OFFCURVE",
"1232 544 CURVE SMOOTH",
"1232 912 OFFCURVE",
"1024 1098 OFFCURVE",
"610 1098 CURVE SMOOTH",
"430 1098 OFFCURVE",
"248 1074 OFFCURVE",
"106 1036 CURVE",
"116 718 LINE",
"294 748 OFFCURVE",
"436 748 OFFCURVE",
"568 748 CURVE SMOOTH",
"790 748 OFFCURVE",
"792 744 OFFCURVE",
"792 540 CURVE SMOOTH",
"792 354 OFFCURVE",
"782 308 OFFCURVE",
"628 308 CURVE SMOOTH",
"486 308 OFFCURVE",
"460 332 OFFCURVE",
"460 438 CURVE",
"420 426 LINE",
"1026 426 LINE",
"1026 678 LINE",
"76 678 LINE",
"66 616 OFFCURVE",
"62 586 OFFCURVE",
"62 518 CURVE SMOOTH",
"62 140 OFFCURVE",
"196 -18 OFFCURVE",
"600 -18 CURVE SMOOTH"
);
}
);
};
color = -1;
components = (
{
name = e;
transform = "{-1, 0, 0, -1, 1326, 1100}";
}
);
layerId = "1E90A949-97C4-49F5-AA9A-AF35B6FD63CF";
width = 1326;
}
);
leftKerningGroup = o;
rightKerningGroup = o;
unicode = 0259;
userData = {
com.typemytype.robofont.layerData = {
};
};
},
{
glyphname = f;
layers = (
{
background = {
paths = (
{
closed = 1;
nodes = (
"324 0 LINE",
"324 1274 LINE SMOOTH",
"324 1488 OFFCURVE",
"430 1570 OFFCURVE",
"642 1570 CURVE SMOOTH",
"692 1570 OFFCURVE",
"736 1566 OFFCURVE",
"810 1554 CURVE",
"810 1622 LINE",
"752 1632 OFFCURVE",
"696 1636 OFFCURVE",
"646 1636 CURVE SMOOTH",
"388 1636 OFFCURVE",
"256 1518 OFFCURVE",
"256 1268 CURVE SMOOTH",
"256 0 LINE"
);
},
{
closed = 1;
nodes = (
"766 1014 LINE",
"766 1080 LINE",
"16 1080 LINE",
"16 1014 LINE"
);
}
);
};
color = -1;
layerId = "E28BEEB5-BD92-4E7A-B4EA-FC5E5BBBF580";
paths = (
{
closed = 1;
nodes = (
"330 0 LINE",
"330 1242 LINE SMOOTH",
"330 1484 OFFCURVE",
"434 1570 OFFCURVE",
"652 1570 CURVE SMOOTH",
"702 1570 OFFCURVE",
"762 1564 OFFCURVE",
"816 1554 CURVE",
"816 1622 LINE",
"766 1630 OFFCURVE",
"708 1636 OFFCURVE",
"656 1636 CURVE SMOOTH",
"392 1636 OFFCURVE",
"262 1508 OFFCURVE",
"262 1234 CURVE SMOOTH",
"262 0 LINE"
);
},
{
closed = 1;
nodes = (
"772 1016 LINE",
"772 1080 LINE",
"22 1080 LINE",
"22 1016 LINE"
);
}
);
width = 772;
},
{
background = {
paths = (
{
closed = 1;
nodes = (
"692 0 LINE",
"692 1114 LINE SMOOTH",
"692 1230 OFFCURVE",
"758 1282 OFFCURVE",
"918 1282 CURVE SMOOTH",
"956 1282 OFFCURVE",
"984 1280 OFFCURVE",
"1024 1276 CURVE",
"1024 1624 LINE",
"958 1634 OFFCURVE",
"906 1636 OFFCURVE",
"834 1636 CURVE SMOOTH",
"440 1636 OFFCURVE",
"228 1446 OFFCURVE",
"228 1100 CURVE SMOOTH",
"228 0 LINE"
);
},
{
closed = 1;
nodes = (
"968 740 LINE",
"968 1100 LINE",
"48 1100 LINE",
"48 740 LINE"
);
}
);
};
color = -1;
layerId = "1E90A949-97C4-49F5-AA9A-AF35B6FD63CF";
paths = (
{
closed = 1;
nodes = (
"694 0 LINE",
"694 1114 LINE SMOOTH",
"694 1222 OFFCURVE",
"760 1282 OFFCURVE",
"916 1282 CURVE SMOOTH",
"954 1282 OFFCURVE",
"986 1280 OFFCURVE",
"1026 1276 CURVE",
"1026 1624 LINE",
"960 1632 OFFCURVE",
"914 1636 OFFCURVE",
"836 1636 CURVE SMOOTH",
"458 1636 OFFCURVE",
"230 1424 OFFCURVE",
"230 1100 CURVE SMOOTH",
"230 0 LINE"
);
},
{
closed = 1;
nodes = (
"970 740 LINE",
"970 1100 LINE",
"50 1100 LINE",
"50 740 LINE"
);
}
);
width = 980;
}
);
leftKerningGroup = t;
rightKerningGroup = f;
unicode = 0066;
userData = {
com.typemytype.robofont.layerData = {
};
};
},
{
glyphname = g;
layers = (
{
anchors = (
{
name = bottom;
position = "{630, -440}";
},
{
name = top;
position = "{630, 1200}";
}
);
background = {
paths = (
{
closed = 1;
nodes = (
"866 -460 OFFCURVE",
"1026 -326 OFFCURVE",
"1026 28 CURVE SMOOTH",
"1026 1048 LINE",
"914 1080 OFFCURVE",
"804 1096 OFFCURVE",
"686 1096 CURVE SMOOTH",
"314 1096 OFFCURVE",
"122 906 OFFCURVE",
"122 518 CURVE SMOOTH",
"122 130 OFFCURVE",
"324 -18 OFFCURVE",
"586 -18 CURVE SMOOTH",
"740 -18 OFFCURVE",
"866 38 OFFCURVE",
"952 126 CURVE",
"958 126 LINE",
"958 22 LINE SMOOTH",
"958 -286 OFFCURVE",
"828 -394 OFFCURVE",
"548 -394 CURVE SMOOTH",
"432 -394 OFFCURVE",
"316 -376 OFFCURVE",
"192 -334 CURVE",
"192 -402 LINE",
"306 -442 OFFCURVE",
"440 -460 OFFCURVE",
"548 -460 CURVE SMOOTH"
);
},
{
closed = 1;
nodes = (
"364 48 OFFCURVE",
"194 170 OFFCURVE",
"194 526 CURVE SMOOTH",
"194 872 OFFCURVE",
"358 1030 OFFCURVE",
"678 1030 CURVE SMOOTH",
"790 1030 OFFCURVE",
"886 1014 OFFCURVE",
"958 992 CURVE",
"958 214 LINE",
"862 96 OFFCURVE",
"724 48 OFFCURVE",
"590 48 CURVE SMOOTH"
);
}
);
};
color = -1;
layerId = "E28BEEB5-BD92-4E7A-B4EA-FC5E5BBBF580";
paths = (
{
closed = 1;
nodes = (
"866 -460 OFFCURVE",
"1032 -322 OFFCURVE",
"1032 28 CURVE SMOOTH",
"1032 1048 LINE",
"920 1080 OFFCURVE",
"810 1096 OFFCURVE",
"692 1096 CURVE SMOOTH",
"320 1096 OFFCURVE",
"128 906 OFFCURVE",
"128 518 CURVE SMOOTH",
"128 130 OFFCURVE",
"330 -18 OFFCURVE",
"592 -18 CURVE SMOOTH",
"746 -18 OFFCURVE",
"872 38 OFFCURVE",
"958 126 CURVE",
"964 126 LINE",
"964 22 LINE SMOOTH",
"964 -286 OFFCURVE",
"830 -394 OFFCURVE",
"542 -394 CURVE SMOOTH",
"434 -394 OFFCURVE",
"324 -376 OFFCURVE",
"198 -334 CURVE",
"198 -402 LINE",
"302 -440 OFFCURVE",
"440 -460 OFFCURVE",
"540 -460 CURVE SMOOTH"
);
},
{
closed = 1;
nodes = (
"370 48 OFFCURVE",
"200 170 OFFCURVE",
"200 526 CURVE SMOOTH",
"200 872 OFFCURVE",
"364 1030 OFFCURVE",
"684 1030 CURVE SMOOTH",
"796 1030 OFFCURVE",
"892 1016 OFFCURVE",
"964 996 CURVE",
"964 214 LINE",
"868 96 OFFCURVE",
"730 48 OFFCURVE",
"596 48 CURVE SMOOTH"
);
}
);
width = 1228;
},
{
anchors = (
{
name = bottom;
position = "{744, -440}";
},
{
name = top;
position = "{780, 1200}";
}
);
background = {
paths = (
{
closed = 1;
nodes = (
"1140 -460 OFFCURVE",
"1372 -266 OFFCURVE",
"1372 164 CURVE SMOOTH",
"1372 1046 LINE",
"1202 1098 OFFCURVE",
"998 1118 OFFCURVE",
"814 1118 CURVE SMOOTH",
"318 1118 OFFCURVE",
"64 896 OFFCURVE",
"64 528 CURVE SMOOTH",
"64 186 OFFCURVE",
"294 2 OFFCURVE",
"562 2 CURVE SMOOTH",
"698 2 OFFCURVE",
"806 40 OFFCURVE",
"888 114 CURVE",
"908 114 LINE",
"908 72 LINE SMOOTH",
"908 -54 OFFCURVE",
"798 -120 OFFCURVE",
"560 -120 CURVE SMOOTH",
"434 -120 OFFCURVE",
"310 -108 OFFCURVE",
"166 -76 CURVE",
"166 -416 LINE",
"288 -446 OFFCURVE",
"452 -460 OFFCURVE",
"602 -460 CURVE SMOOTH"
);
},
{
closed = 1;
nodes = (
"604 366 OFFCURVE",
"522 420 OFFCURVE",
"522 560 CURVE SMOOTH",
"522 702 OFFCURVE",
"610 778 OFFCURVE",
"774 778 CURVE SMOOTH",
"826 778 OFFCURVE",
"872 772 OFFCURVE",
"908 764 CURVE",
"908 404 LINE",
"856 378 OFFCURVE",
"792 366 OFFCURVE",
"732 366 CURVE SMOOTH"
);
}
);
};
color = -1;
layerId = "1E90A949-97C4-49F5-AA9A-AF35B6FD63CF";
paths = (
{
closed = 1;
nodes = (
"1142 -460 OFFCURVE",
"1374 -266 OFFCURVE",
"1374 164 CURVE SMOOTH",
"1374 1046 LINE",
"1222 1092 OFFCURVE",
"1000 1118 OFFCURVE",
"816 1118 CURVE SMOOTH",
"320 1118 OFFCURVE",
"66 890 OFFCURVE",
"66 526 CURVE SMOOTH",
"66 194 OFFCURVE",
"296 6 OFFCURVE",
"564 6 CURVE SMOOTH",
"700 6 OFFCURVE",
"808 44 OFFCURVE",
"890 118 CURVE",
"910 118 LINE",
"910 72 LINE SMOOTH",
"910 -52 OFFCURVE",
"830 -120 OFFCURVE",
"588 -120 CURVE SMOOTH",
"474 -120 OFFCURVE",
"312 -102 OFFCURVE",
"148 -62 CURVE",
"148 -410 LINE",
"312 -448 OFFCURVE",
"464 -460 OFFCURVE",
"624 -460 CURVE SMOOTH"
);
},
{
closed = 1;
nodes = (
"606 370 OFFCURVE",
"524 424 OFFCURVE",
"524 562 CURVE SMOOTH",
"524 702 OFFCURVE",
"612 778 OFFCURVE",
"776 778 CURVE SMOOTH",
"828 778 OFFCURVE",
"874 772 OFFCURVE",
"910 764 CURVE",
"910 408 LINE",
"858 382 OFFCURVE",
"794 370 OFFCURVE",
"734 370 CURVE SMOOTH"
);
}
);
width = 1490;
}
);
leftKerningGroup = o;
rightKerningGroup = u;
unicode = 0067;
userData = {
com.typemytype.robofont.layerData = {
};
};
},
{
glyphname = gcommaaccent;
layers = (
{
background = {
components = (
{
name = g;
},
{
name = commaturnedabovecomb;
transform = "{1, 0, 0, 1, 12, 0}";
}
);
};
color = -1;
components = (
{
name = g;
},
{
name = commaturnedabovecomb;
transform = "{1, 0, 0, 1, 30, 0}";
}
);
layerId = "E28BEEB5-BD92-4E7A-B4EA-FC5E5BBBF580";
width = 1228;
},
{
background = {
components = (
{
name = g;
}
);
paths = (
{
closed = 1;
nodes = (
"760 1540 LINE",
"552 1240 LINE",
"1024 1240 LINE",
"1100 1540 LINE"
);
}
);
};
color = -1;
components = (
{
name = g;
},
{
name = commaturnedabovecomb;
transform = "{1, 0, 0, 1, 180, 0}";
}
);
layerId = "1E90A949-97C4-49F5-AA9A-AF35B6FD63CF";
width = 1490;
}
);
leftKerningGroup = o;
rightKerningGroup = u;
unicode = 0123;
},
{
glyphname = h;
layers = (
{
anchors = (
{
name = bottom;
position = "{632, 0}";
},
{
name = center;
position = "{632, 540}";
},
{
name = stroke;
position = "{196, 1356}";
},
{
name = top;
position = "{632, 1616}";
}
);
background = {
paths = (
{
closed = 1;
nodes = (
"258 0 LINE",
"258 854 LINE",
"372 976 OFFCURVE",
"528 1028 OFFCURVE",
"672 1028 CURVE SMOOTH",
"864 1028 OFFCURVE",
"992 946 OFFCURVE",
"992 706 CURVE SMOOTH",
"992 0 LINE",
"1060 0 LINE",
"1060 708 LINE SMOOTH",
"1060 988 OFFCURVE",
"906 1096 OFFCURVE",
"674 1096 CURVE SMOOTH",
"518 1096 OFFCURVE",
"374 1046 OFFCURVE",
"264 950 CURVE",
"258 950 LINE",
"258 1616 LINE",
"190 1616 LINE",
"190 0 LINE"
);
}
);
};
color = -1;
layerId = "E28BEEB5-BD92-4E7A-B4EA-FC5E5BBBF580";
paths = (
{
closed = 1;
nodes = (
"264 0 LINE",
"264 854 LINE",
"378 976 OFFCURVE",
"534 1028 OFFCURVE",
"678 1028 CURVE SMOOTH",
"870 1028 OFFCURVE",
"998 946 OFFCURVE",
"998 706 CURVE SMOOTH",
"998 0 LINE",
"1066 0 LINE",
"1066 708 LINE SMOOTH",
"1066 988 OFFCURVE",
"912 1096 OFFCURVE",
"680 1096 CURVE SMOOTH",
"524 1096 OFFCURVE",
"380 1046 OFFCURVE",
"270 950 CURVE",
"264 950 LINE",
"264 1616 LINE",
"196 1616 LINE",
"196 0 LINE"
);
}
);
width = 1244;
},
{
anchors = (
{
name = bottom;
position = "{736, 0}";
},
{
name = center;
position = "{736, 550}";
},
{
name = stroke;
position = "{116, 1350}";
},
{
name = top;
position = "{736, 1616}";
}
);
background = {
paths = (
{
closed = 1;
nodes = (
"578 0 LINE",
"578 664 LINE",
"618 702 OFFCURVE",
"684 728 OFFCURVE",
"754 728 CURVE SMOOTH",
"842 728 OFFCURVE",
"888 692 OFFCURVE",
"888 576 CURVE SMOOTH",
"888 0 LINE",
"1352 0 LINE",
"1352 608 LINE SMOOTH",
"1352 968 OFFCURVE",
"1160 1118 OFFCURVE",
"914 1118 CURVE SMOOTH",
"796 1118 OFFCURVE",
"682 1080 OFFCURVE",
"598 1006 CURVE",
"578 1006 LINE",
"578 1616 LINE",
"114 1616 LINE",
"114 0 LINE"
);
}
);
};
color = -1;
layerId = "1E90A949-97C4-49F5-AA9A-AF35B6FD63CF";
paths = (
{
closed = 1;
nodes = (
"580 0 LINE",
"580 670 LINE",
"620 708 OFFCURVE",
"686 734 OFFCURVE",
"756 734 CURVE SMOOTH",
"844 734 OFFCURVE",
"890 698 OFFCURVE",
"890 582 CURVE SMOOTH",
"890 0 LINE",
"1354 0 LINE",
"1354 608 LINE SMOOTH",
"1354 968 OFFCURVE",
"1162 1118 OFFCURVE",
"916 1118 CURVE SMOOTH",
"798 1118 OFFCURVE",
"684 1080 OFFCURVE",
"600 1006 CURVE",
"580 1006 LINE",
"580 1616 LINE",
"116 1616 LINE",
"116 0 LINE"
);
}
);
width = 1462;
}
);
leftKerningGroup = l;
rightKerningGroup = n;
unicode = 0068;
userData = {
com.typemytype.robofont.layerData = {
};
};
},
{
glyphname = hbar;
layers = (
{
background = {
components = (
{
name = h;
},
{
name = strokeshortcomb.h;
transform = "{1, 0, 0, 1, -205, 138}";
}
);
};
color = -1;
components = (
{
name = h;
},
{
name = strokeshortcomb.h;
transform = "{1, 0, 0, 1, -404, 276}";
}
);
layerId = "E28BEEB5-BD92-4E7A-B4EA-FC5E5BBBF580";
width = 1244;
},
{
background = {
components = (
{
name = h;
}
);
paths = (
{
closed = 1;
nodes = (
"-60 1224 LINE",
"888 1224 LINE",
"888 1470 LINE",
"-60 1470 LINE"
);
}
);
};
color = -1;
components = (
{
name = h;
},
{
name = strokeshortcomb.h;
transform = "{1, 0, 0, 1, -252, 250}";
}
);
layerId = "1E90A949-97C4-49F5-AA9A-AF35B6FD63CF";
width = 1462;
}
);
leftKerningGroup = l;
rightKerningGroup = n;
unicode = 0127;
},
{
glyphname = idotless;
layers = (
{
anchors = (
{
name = bottom;
position = "{230, 0}";
},
{
name = ogonek;
position = "{264, 0}";
},
{
name = top;
position = "{230, 1200}";
}
);
background = {
anchors = (
{
name = bottom;
position = "{224, 0}";
},
{
name = ogonek;
position = "{258, 0}";
},
{
name = top;
position = "{224, 1200}";
}
);
paths = (
{
closed = 1;
nodes = (
"258 0 LINE",
"258 1080 LINE",
"190 1080 LINE",
"190 0 LINE"
);
}
);
};
color = -1;
layerId = "E28BEEB5-BD92-4E7A-B4EA-FC5E5BBBF580";
paths = (
{
closed = 1;
nodes = (
"264 0 LINE",
"264 1080 LINE",
"196 1080 LINE",
"196 0 LINE"
);
}
);
width = 460;
},
{
anchors = (
{
name = bottom;
position = "{348, 0}";
},
{
name = ogonek;
position = "{580, 0}";
},
{
name = top;
position = "{348, 1200}";
}
);
background = {
anchors = (
{
name = top;
position = "{344, 1348}";
}
);
paths = (
{
closed = 1;
nodes = (
"114 0 LINE",
"574 0 LINE",
"574 1080 LINE",
"114 1080 LINE"
);
}
);
};
color = -1;
layerId = "1E90A949-97C4-49F5-AA9A-AF35B6FD63CF";
paths = (
{
closed = 1;
nodes = (
"580 0 LINE",
"580 1100 LINE",
"116 1100 LINE",
"116 0 LINE"
);
}
);
width = 696;
}
);
leftKerningGroup = n;
rightKerningGroup = u;
unicode = 0131;
userData = {
com.typemytype.robofont.layerData = {
};
};
},
{
glyphname = ibreve;
layers = (
{
background = {
components = (
{
name = idotless;
},
{
name = brevecomb;
transform = "{1, 0, 0, 1, -188, 0}";
}
);
};
color = -1;
components = (
{
name = idotless;
},
{
name = brevecomb;
transform = "{1, 0, 0, 1, -370, 0}";
}
);
layerId = "E28BEEB5-BD92-4E7A-B4EA-FC5E5BBBF580";
width = 460;
},
{
background = {
components = (
{
name = idotless;
transform = "{1, 0, 0, 1, 1, 0}";
}
);
paths = (
{
closed = 1;
nodes = (
"346 1222 CURVE SMOOTH",
"632 1222 OFFCURVE",
"716 1390 OFFCURVE",
"716 1612 CURVE",
"500 1612 LINE",
"500 1498 OFFCURVE",
"480 1432 OFFCURVE",
"346 1432 CURVE SMOOTH",
"214 1432 OFFCURVE",
"194 1498 OFFCURVE",
"194 1612 CURVE",
"-26 1612 LINE",
"-26 1398 OFFCURVE",
"60 1222 OFFCURVE"
);
}
);
};
color = -1;
components = (
{
name = idotless;
},
{
name = brevecomb;
transform = "{1, 0, 0, 1, -252, 0}";
}
);
layerId = "1E90A949-97C4-49F5-AA9A-AF35B6FD63CF";
width = 696;
}
);
leftKerningGroup = imacron;
rightKerningGroup = imacron;
unicode = 012D;
},
{
glyphname = icircumflex;
layers = (
{
background = {
components = (
{
name = idotless;
},
{
name = circumflexcomb;
transform = "{1, 0, 0, 1, -188, 0}";
}
);
};
color = -1;
components = (
{
name = idotless;
},
{
name = circumflexcomb;
transform = "{1, 0, 0, 1, -370, 0}";
}
);
layerId = "E28BEEB5-BD92-4E7A-B4EA-FC5E5BBBF580";
width = 460;
},
{
background = {
components = (
{
name = idotless;
transform = "{1, 0, 0, 1, 1, 0}";
}
);
paths = (
{
closed = 1;
nodes = (
"-84 1194 LINE",
"344 1356 LINE",
"774 1194 LINE",
"774 1490 LINE",
"338 1654 LINE",
"-84 1490 LINE"
);
}
);
};
color = -1;
components = (
{
name = idotless;
},
{
name = circumflexcomb;
transform = "{1, 0, 0, 1, -252, 0}";
}
);
layerId = "1E90A949-97C4-49F5-AA9A-AF35B6FD63CF";
width = 696;
}
);
leftKerningGroup = imacron;
rightKerningGroup = imacron;
unicode = 00EE;
},
{
glyphname = idieresis;
layers = (
{
background = {
components = (
{
name = idotless;
},
{
name = dieresiscomb;
transform = "{1, 0, 0, 1, -188, 0}";
}
);
};
color = -1;
components = (
{
name = idotless;
},
{
name = dieresiscomb;
transform = "{1, 0, 0, 1, -370, 0}";
}
);
layerId = "E28BEEB5-BD92-4E7A-B4EA-FC5E5BBBF580";
width = 460;
},
{
background = {
components = (
{
name = idotless;
transform = "{1, 0, 0, 1, 1, 0}";
}
);
paths = (
{
closed = 1;
nodes = (
"98 1212 CURVE SMOOTH",
"258 1212 OFFCURVE",
"316 1276 OFFCURVE",
"316 1424 CURVE SMOOTH",
"316 1564 OFFCURVE",
"258 1634 OFFCURVE",
"98 1634 CURVE SMOOTH",
"-58 1634 OFFCURVE",
"-120 1572 OFFCURVE",
"-120 1424 CURVE SMOOTH",
"-120 1276 OFFCURVE",
"-58 1212 OFFCURVE"
);
},
{
closed = 1;
nodes = (
"596 1212 CURVE SMOOTH",
"756 1212 OFFCURVE",
"814 1276 OFFCURVE",
"814 1424 CURVE SMOOTH",
"814 1564 OFFCURVE",
"756 1634 OFFCURVE",
"596 1634 CURVE SMOOTH",
"440 1634 OFFCURVE",
"378 1572 OFFCURVE",
"378 1424 CURVE SMOOTH",
"378 1276 OFFCURVE",
"440 1212 OFFCURVE"
);
}
);
};
color = -1;
components = (
{
name = idotless;
},
{
name = dieresiscomb;
transform = "{1, 0, 0, 1, -252, 0}";
}
);
layerId = "1E90A949-97C4-49F5-AA9A-AF35B6FD63CF";
width = 696;
}
);
leftKerningGroup = imacron;
rightKerningGroup = imacron;
unicode = 00EF;
},
{
glyphname = iinvertedbreve;
layers = (
{
background = {
components = (
{
name = idotless;
},
{
name = breveinvertedcomb;
transform = "{1, 0, 0, 1, -188, 0}";
}
);
};
color = -1;
components = (
{
name = idotless;
},
{
name = breveinvertedcomb;
transform = "{1, 0, 0, 1, -370, 0}";
}
);
layerId = "E28BEEB5-BD92-4E7A-B4EA-FC5E5BBBF580";
width = 460;
},
{
background = {
components = (
{
name = idotless;
transform = "{1, 0, 0, 1, 1, 0}";
}
);
paths = (
{
closed = 1;
nodes = (
"-24 1242 CURVE",
"194 1242 LINE",
"194 1354 OFFCURVE",
"214 1420 OFFCURVE",
"346 1420 CURVE SMOOTH",
"480 1420 OFFCURVE",
"500 1354 OFFCURVE",
"500 1242 CURVE",
"718 1242 LINE",
"718 1462 OFFCURVE",
"634 1632 OFFCURVE",
"346 1632 CURVE SMOOTH",
"60 1632 OFFCURVE",
"-24 1454 OFFCURVE"
);
}
);
};
color = -1;
components = (
{
name = idotless;
},
{
name = breveinvertedcomb;
transform = "{1, 0, 0, 1, -252, 0}";
}
);
layerId = "1E90A949-97C4-49F5-AA9A-AF35B6FD63CF";
width = 696;
}
);
leftKerningGroup = imacron;
rightKerningGroup = imacron;
unicode = 020B;
},
{
glyphname = itilde;
layers = (
{
background = {
components = (
{
name = idotless;
},
{
name = tildecomb;
transform = "{1, 0, 0, 1, -188, 0}";
}
);
};
color = -1;
components = (
{
name = idotless;
},
{
name = tildecomb;
transform = "{1, 0, 0, 1, -370, 0}";
}
);
layerId = "E28BEEB5-BD92-4E7A-B4EA-FC5E5BBBF580";
width = 460;
},
{
background = {
components = (
{
name = idotless;
transform = "{1, 0, 0, 1, 1, 0}";
}
);
paths = (
{
closed = 1;
nodes = (
"-104 1246 LINE",
"-28 1306 OFFCURVE",
"26 1318 OFFCURVE",
"84 1318 CURVE SMOOTH",
"224 1318 OFFCURVE",
"364 1246 OFFCURVE",
"506 1246 CURVE SMOOTH",
"610 1246 OFFCURVE",
"744 1346 OFFCURVE",
"844 1546 CURVE",
"800 1622 LINE",
"716 1562 OFFCURVE",
"664 1550 OFFCURVE",
"614 1550 CURVE SMOOTH",
"472 1550 OFFCURVE",
"332 1622 OFFCURVE",
"192 1622 CURVE SMOOTH",
"80 1622 OFFCURVE",
"-54 1522 OFFCURVE",
"-146 1322 CURVE"
);
}
);
};
color = -1;
components = (
{
name = idotless;
},
{
name = tildecomb;
transform = "{1, 0, 0, 1, -252, 0}";
}
);
layerId = "1E90A949-97C4-49F5-AA9A-AF35B6FD63CF";
width = 696;
}
);
leftKerningGroup = imacron;
rightKerningGroup = imacron;
unicode = 0129;
},
{
glyphname = j;
layers = (
{
background = {
components = (
{
name = jdotless;
},
{
name = dotaccentcomb;
transform = "{1, 0, 0, 1, -188, 6}";
}
);
};
color = -1;
components = (
{
name = jdotless;
},
{
name = dotaccentcomb;
transform = "{1, 0, 0, 1, -370, 12}";
}
);
layerId = "E28BEEB5-BD92-4E7A-B4EA-FC5E5BBBF580";
width = 460;
},
{
background = {
paths = (
{
closed = 1;
nodes = (
"336 1188 CURVE SMOOTH",
"516 1188 OFFCURVE",
"580 1266 OFFCURVE",
"580 1424 CURVE SMOOTH",
"580 1582 OFFCURVE",
"516 1660 OFFCURVE",
"336 1660 CURVE SMOOTH",
"162 1660 OFFCURVE",
"94 1588 OFFCURVE",
"94 1424 CURVE SMOOTH",
"94 1258 OFFCURVE",
"162 1188 OFFCURVE"
);
},
{
closed = 1;
nodes = (
"386 -440 LINE",
"478 -264 OFFCURVE",
"538 -88 OFFCURVE",
"566 136 CURVE",
"566 1080 LINE",
"106 1080 LINE",
"114 676 OFFCURVE",
"116 518 OFFCURVE",
"116 380 CURVE SMOOTH",
"116 -14 OFFCURVE",
"100 -150 OFFCURVE",
"44 -398 CURVE"
);
}
);
};
color = -1;
components = (
{
name = jdotless;
},
{
name = dotaccentcomb;
transform = "{1, 0, 0, 1, -262, 0}";
}
);
layerId = "1E90A949-97C4-49F5-AA9A-AF35B6FD63CF";
width = 696;
}
);
leftKerningGroup = j;
rightKerningGroup = l;
unicode = 006A;
userData = {
com.typemytype.robofont.layerData = {
};
};
},
{
glyphname = jdotless;
layers = (
{
anchors = (
{
name = top;
position = "{230, 1212}";
}
);
background = {
anchors = (
{
name = top;
position = "{224, 1212}";
}
);
paths = (
{
closed = 1;
nodes = (
"186 -268 OFFCURVE",
"258 -78 OFFCURVE",
"258 170 CURVE SMOOTH",
"258 1080 LINE",
"190 1080 LINE",
"190 166 LINE SMOOTH",
"190 -64 OFFCURVE",
"124 -248 OFFCURVE",
"-22 -424 CURVE",
"26 -460 LINE"
);
}
);
};
color = -1;
layerId = "E28BEEB5-BD92-4E7A-B4EA-FC5E5BBBF580";
paths = (
{
closed = 1;
nodes = (
"192 -268 OFFCURVE",
"264 -78 OFFCURVE",
"264 170 CURVE SMOOTH",
"264 1080 LINE",
"196 1080 LINE",
"196 166 LINE SMOOTH",
"196 -64 OFFCURVE",
"130 -248 OFFCURVE",
"-16 -424 CURVE",
"32 -460 LINE"
);
}
);
width = 460;
},
{
anchors = (
{
name = top;
position = "{338, 1200}";
}
);
background = {
paths = (
{
closed = 1;
nodes = (
"496 -258 OFFCURVE",
"578 -54 OFFCURVE",
"578 196 CURVE SMOOTH",
"578 1100 LINE",
"114 1100 LINE",
"114 180 LINE SMOOTH",
"114 -26 OFFCURVE",
"78 -152 OFFCURVE",
"-50 -308 CURVE",
"256 -476 LINE"
);
}
);
};
color = -1;
layerId = "1E90A949-97C4-49F5-AA9A-AF35B6FD63CF";
paths = (
{
closed = 1;
nodes = (
"498 -258 OFFCURVE",
"580 -54 OFFCURVE",
"580 196 CURVE SMOOTH",
"580 1100 LINE",
"116 1100 LINE",
"116 180 LINE SMOOTH",
"116 -26 OFFCURVE",
"80 -152 OFFCURVE",
"-30 -284 CURVE",
"258 -476 LINE"
);
}
);
width = 696;
}
);
leftKerningGroup = j;
rightKerningGroup = u;
unicode = 0237;
userData = {
com.typemytype.robofont.layerData = {
};
};
},
{
glyphname = jcircumflex;
layers = (
{
background = {
components = (
{
name = jdotless;
},
{
name = circumflexcomb;
transform = "{1, 0, 0, 1, -188, 6}";
}
);
};
color = -1;
components = (
{
name = jdotless;
},
{
name = circumflexcomb;
transform = "{1, 0, 0, 1, -370, 12}";
}
);
layerId = "E28BEEB5-BD92-4E7A-B4EA-FC5E5BBBF580";
width = 460;
},
{
background = {
components = (
{
name = jdotless;
}
);
paths = (
{
closed = 1;
nodes = (
"-102 1194 LINE",
"328 1356 LINE",
"756 1194 LINE",
"756 1490 LINE",
"320 1654 LINE",
"-102 1490 LINE"
);
}
);
};
color = -1;
components = (
{
name = jdotless;
},
{
name = circumflexcomb;
transform = "{1, 0, 0, 1, -262, 0}";
}
);
layerId = "1E90A949-97C4-49F5-AA9A-AF35B6FD63CF";
width = 696;
}
);
leftKerningGroup = imacron;
rightKerningGroup = imacron;
unicode = 0135;
},
{
glyphname = k;
layers = (
{
anchors = (
{
name = bottom;
position = "{576, 0}";
},
{
name = top;
position = "{230, 1616}";
}
);
background = {
anchors = (
{
name = bottom;
position = "{570, 0}";
},
{
name = top;
position = "{570, 1200}";
}
);
paths = (
{
closed = 1;
nodes = (
"1082 0 LINE",
"560 562 LINE",
"560 542 LINE",
"1050 1080 LINE",
"964 1080 LINE",
"480 552 LINE",
"996 0 LINE"
);
},
{
closed = 1;
nodes = (
"526 520 LINE",
"526 584 LINE",
"242 584 LINE",
"242 520 LINE"
);
},
{
closed = 1;
nodes = (
"258 0 LINE",
"258 1616 LINE",
"190 1616 LINE",
"190 0 LINE"
);
}
);
};
color = -1;
layerId = "E28BEEB5-BD92-4E7A-B4EA-FC5E5BBBF580";
paths = (
{
closed = 1;
nodes = (
"1088 0 LINE",
"566 562 LINE",
"566 542 LINE",
"1056 1080 LINE",
"970 1080 LINE",
"486 552 LINE",
"1002 0 LINE"
);
},
{
closed = 1;
nodes = (
"532 520 LINE",
"532 584 LINE",
"248 584 LINE",
"248 520 LINE"
);
},
{
closed = 1;
nodes = (
"264 0 LINE",
"264 1616 LINE",
"196 1616 LINE",
"196 0 LINE"
);
}
);
width = 1082;
},
{
anchors = (
{
name = bottom;
position = "{748, 0}";
},
{
name = top;
position = "{348, 1616}";
}
);
background = {
paths = (
{
closed = 1;
nodes = (
"1428 0 LINE",
"1050 628 LINE",
"1050 518 LINE",
"1392 1100 LINE",
"910 1100 LINE",
"592 566 LINE",
"936 0 LINE"
);
},
{
closed = 1;
nodes = (
"720 416 LINE",
"720 716 LINE",
"546 716 LINE",
"546 416 LINE"
);
},
{
closed = 1;
nodes = (
"578 0 LINE",
"578 1616 LINE",
"114 1616 LINE",
"114 0 LINE"
);
}
);
};
color = -1;
layerId = "1E90A949-97C4-49F5-AA9A-AF35B6FD63CF";
paths = (
{
closed = 1;
nodes = (
"1494 0 LINE",
"1062 632 LINE",
"1062 522 LINE",
"1456 1100 LINE",
"962 1100 LINE",
"586 566 LINE",
"990 0 LINE"
);
},
{
closed = 1;
nodes = (
"742 380 LINE",
"742 752 LINE",
"548 752 LINE",
"548 380 LINE"
);
},
{
closed = 1;
nodes = (
"580 0 LINE",
"580 1616 LINE",
"116 1616 LINE",
"116 0 LINE"
);
}
);
width = 1456;
}
);
leftKerningGroup = l;
rightKerningGroup = k;
unicode = 006B;
userData = {
com.typemytype.robofont.layerData = {
};
};
},
{
glyphname = kgreenlandic;
layers = (
{
background = {
anchors = (
{
name = bottom;
position = "{550, 0}";
},
{
name = top;
position = "{550, 1080}";
}
);
paths = (
{
closed = 1;
nodes = (
"1082 0 LINE",
"560 562 LINE",
"560 542 LINE",
"1050 1080 LINE",
"964 1080 LINE",
"480 552 LINE",
"996 0 LINE"
);
},
{
closed = 1;
nodes = (
"258 0 LINE",
"258 1080 LINE",
"190 1080 LINE",
"190 0 LINE"
);
},
{
closed = 1;
nodes = (
"526 520 LINE",
"526 584 LINE",
"242 584 LINE",
"242 520 LINE"
);
}
);
};
color = -1;
layerId = "E28BEEB5-BD92-4E7A-B4EA-FC5E5BBBF580";
paths = (
{
closed = 1;
nodes = (
"1088 0 LINE",
"566 562 LINE",
"566 542 LINE",
"1056 1080 LINE",
"970 1080 LINE",
"486 552 LINE",
"1002 0 LINE"
);
},
{
closed = 1;
nodes = (
"264 0 LINE",
"264 1080 LINE",
"196 1080 LINE",
"196 0 LINE"
);
},
{
closed = 1;
nodes = (
"532 520 LINE",
"532 584 LINE",
"248 584 LINE",
"248 520 LINE"
);
}
);
width = 1082;
},
{
background = {
paths = (
{
closed = 1;
nodes = (
"116 0 LINE",
"576 0 LINE",
"576 422 LINE",
"654 422 LINE",
"918 0 LINE",
"1420 0 LINE",
"1038 542 LINE",
"980 554 LINE",
"980 562 LINE",
"1038 574 LINE",
"1384 1080 LINE",
"880 1080 LINE",
"658 692 LINE",
"576 692 LINE",
"576 1080 LINE",
"116 1080 LINE"
);
}
);
};
color = -1;
layerId = "1E90A949-97C4-49F5-AA9A-AF35B6FD63CF";
paths = (
{
closed = 1;
nodes = (
"1494 0 LINE",
"1062 632 LINE",
"1062 522 LINE",
"1456 1100 LINE",
"962 1100 LINE",
"586 566 LINE",
"990 0 LINE"
);
},
{
closed = 1;
nodes = (
"580 0 LINE",
"580 1100 LINE",
"116 1100 LINE",
"116 0 LINE"
);
},
{
closed = 1;
nodes = (
"742 380 LINE",
"742 752 LINE",
"548 752 LINE",
"548 380 LINE"
);
}
);
width = 1456;
}
);
rightKerningGroup = k;
unicode = 0138;
userData = {
com.typemytype.robofont.layerData = {
};
};
},
{
glyphname = l;
layers = (
{
anchors = (
{
name = bottom;
position = "{230, 0}";
},
{
name = caronalt;
position = "{404, 1616}";
},
{
name = periodcentered;
position = "{444, 794}";
},
{
name = slash;
position = "{230, 714}";
},
{
name = top;
position = "{230, 1616}";
}
);
background = {
anchors = (
{
name = bottom;
position = "{224, 0}";
},
{
name = caronalt;
position = "{398, 1616}";
},
{
name = periodcentered;
position = "{438, 794}";
},
{
name = slash;
position = "{224, 794}";
},
{
name = top;
position = "{224, 1616}";
}
);
paths = (
{
closed = 1;
nodes = (
"258 0 LINE",
"258 1616 LINE",
"190 1616 LINE",
"190 0 LINE"
);
}
);
};
color = -1;
layerId = "E28BEEB5-BD92-4E7A-B4EA-FC5E5BBBF580";
paths = (
{
closed = 1;
nodes = (
"264 0 LINE",
"264 1616 LINE",
"196 1616 LINE",
"196 0 LINE"
);
}
);
width = 460;
},
{
anchors = (
{
name = bottom;
position = "{346, 0}";
},
{
name = caronalt;
position = "{680, 1616}";
},
{
name = periodcentered;
position = "{900, 794}";
},
{
name = slash;
position = "{348, 714}";
},
{
name = top;
position = "{348, 1616}";
}
);
background = {
anchors = (
{
name = bottom;
position = "{344, -220}";
},
{
name = caronalt;
position = "{696, 1348}";
},
{
name = periodcentered;
position = "{700, 740}";
},
{
name = top;
position = "{344, 1820}";
}
);
paths = (
{
closed = 1;
nodes = (
"114 0 LINE",
"574 0 LINE",
"574 1616 LINE",
"114 1616 LINE"
);
}
);
};
color = -1;
layerId = "1E90A949-97C4-49F5-AA9A-AF35B6FD63CF";
paths = (
{
closed = 1;
nodes = (
"580 0 LINE",
"580 1616 LINE",
"116 1616 LINE",
"116 0 LINE"
);
}
);
width = 696;
}
);
leftKerningGroup = l;
rightKerningGroup = l;
unicode = 006C;
userData = {
com.typemytype.robofont.layerData = {
};
};
},
{
glyphname = ldot;
layers = (
{
background = {
components = (
{
name = l;
},
{
name = periodcentered.CAT;
transform = "{1, 0, 0, 1, 106, 117}";
}
);
};
color = -1;
layerId = "E28BEEB5-BD92-4E7A-B4EA-FC5E5BBBF580";
paths = (
{
closed = 1;
nodes = (
"264 0 LINE",
"264 1616 LINE",
"196 1616 LINE",
"196 0 LINE"
);
},
{
closed = 1;
nodes = (
"480 730 OFFCURVE",
"506 754 OFFCURVE",
"506 792 CURVE SMOOTH",
"506 830 OFFCURVE",
"480 856 OFFCURVE",
"444 856 CURVE SMOOTH",
"408 856 OFFCURVE",
"382 830 OFFCURVE",
"382 792 CURVE SMOOTH",
"382 754 OFFCURVE",
"408 730 OFFCURVE",
"444 730 CURVE SMOOTH"
);
}
);
width = 460;
},
{
background = {
components = (
{
name = l;
},
{
alignment = -1;
name = periodcentered.CAT;
transform = "{1, 0, 0, 1, 298, 27}";
}
);
};
color = -1;
layerId = "1E90A949-97C4-49F5-AA9A-AF35B6FD63CF";
paths = (
{
closed = 1;
nodes = (
"580 0 LINE",
"580 1616 LINE",
"116 1616 LINE",
"116 0 LINE"
);
},
{
closed = 1;
nodes = (
"1108 582 OFFCURVE",
"1192 656 OFFCURVE",
"1192 794 CURVE SMOOTH",
"1192 932 OFFCURVE",
"1108 1006 OFFCURVE",
"918 1006 CURVE SMOOTH",
"728 1006 OFFCURVE",
"644 932 OFFCURVE",
"644 794 CURVE SMOOTH",
"644 656 OFFCURVE",
"728 582 OFFCURVE",
"918 582 CURVE SMOOTH"
);
}
);
width = 1144;
}
);
leftKerningGroup = l;
unicode = 0140;
},
{
glyphname = lslash;
layers = (
{
background = {
components = (
{
name = l;
},
{
name = slashshortcomb;
transform = "{1, 0, 0, 1, -88, 10}";
}
);
};
color = -1;
components = (
{
name = l;
},
{
name = slashshortcomb;
transform = "{1, 0, 0, 1, -170, -60}";
}
);
layerId = "E28BEEB5-BD92-4E7A-B4EA-FC5E5BBBF580";
width = 460;
},
{
background = {
components = (
{
name = l;
transform = "{1, 0, 0, 1, 87, 0}";
}
);
paths = (
{
closed = 1;
nodes = (
"90 472 LINE",
"962 844 LINE",
"962 1172 LINE",
"90 800 LINE"
);
}
);
};
color = -1;
components = (
{
alignment = -1;
name = l;
transform = "{1, 0, 0, 1, 40, 0}";
},
{
name = slashshortcomb;
transform = "{1, 0, 0, 1, -12, -60}";
}
);
layerId = "1E90A949-97C4-49F5-AA9A-AF35B6FD63CF";
width = 776;
}
);
leftKerningGroup = l;
rightKerningGroup = l;
unicode = 0142;
},
{
glyphname = m;
layers = (
{
anchors = (
{
name = bottom;
position = "{920, 0}";
},
{
name = top;
position = "{920, 1200}";
}
);
background = {
anchors = (
{
name = bottom;
position = "{914, 0}";
},
{
name = top;
position = "{914, 1200}";
}
);
paths = (
{
closed = 1;
nodes = (
"238 0 LINE",
"238 856 LINE",
"356 984 OFFCURVE",
"520 1030 OFFCURVE",
"652 1030 CURVE SMOOTH",
"850 1030 OFFCURVE",
"972 942 OFFCURVE",
"972 702 CURVE SMOOTH",
"972 0 LINE",
"1040 0 LINE",
"1040 700 LINE SMOOTH",
"1040 986 OFFCURVE",
"886 1096 OFFCURVE",
"652 1096 CURVE SMOOTH",
"502 1096 OFFCURVE",
"356 1044 OFFCURVE",
"244 946 CURVE",
"236 946 LINE",
"230 1080 LINE",
"170 1080 LINE",
"170 0 LINE"
);
}
);
};
color = -1;
layerId = "E28BEEB5-BD92-4E7A-B4EA-FC5E5BBBF580";
paths = (
{
closed = 1;
nodes = (
"264 0 LINE",
"264 850 LINE",
"362 976 OFFCURVE",
"494 1030 OFFCURVE",
"616 1030 CURVE SMOOTH",
"778 1030 OFFCURVE",
"886 946 OFFCURVE",
"886 706 CURVE SMOOTH",
"886 0 LINE",
"954 0 LINE",
"954 708 LINE SMOOTH",
"954 988 OFFCURVE",
"820 1096 OFFCURVE",
"622 1096 CURVE SMOOTH",
"490 1096 OFFCURVE",
"364 1044 OFFCURVE",
"270 946 CURVE",
"262 946 LINE",
"256 1080 LINE",
"196 1080 LINE",
"196 0 LINE"
);
},
{
closed = 1;
nodes = (
"1636 0 LINE",
"1636 708 LINE SMOOTH",
"1636 988 OFFCURVE",
"1498 1096 OFFCURVE",
"1294 1096 CURVE SMOOTH",
"1166 1096 OFFCURVE",
"1012 1046 OFFCURVE",
"888 898 CURVE",
"912 814 LINE",
"1012 976 OFFCURVE",
"1170 1030 OFFCURVE",
"1292 1030 CURVE SMOOTH",
"1456 1030 OFFCURVE",
"1568 946 OFFCURVE",
"1568 706 CURVE SMOOTH",
"1568 0 LINE"
);
}
);
width = 1814;
},
{
anchors = (
{
name = bottom;
position = "{1076, 0}";
},
{
name = top;
position = "{1076, 1200}";
}
);
background = {
paths = (
{
closed = 1;
nodes = (
"578 0 LINE",
"578 664 LINE",
"610 702 OFFCURVE",
"664 728 OFFCURVE",
"732 728 CURVE SMOOTH",
"808 728 OFFCURVE",
"846 692 OFFCURVE",
"846 576 CURVE SMOOTH",
"846 0 LINE",
"1300 0 LINE",
"1300 608 LINE SMOOTH",
"1300 968 OFFCURVE",
"1122 1118 OFFCURVE",
"876 1118 CURVE SMOOTH",
"736 1118 OFFCURVE",
"620 1076 OFFCURVE",
"540 1004 CURVE",
"520 1004 LINE",
"492 1100 LINE",
"114 1100 LINE",
"114 0 LINE"
);
},
{
closed = 1;
nodes = (
"2016 0 LINE",
"2016 608 LINE SMOOTH",
"2016 968 OFFCURVE",
"1832 1118 OFFCURVE",
"1568 1118 CURVE SMOOTH",
"1434 1118 OFFCURVE",
"1298 1078 OFFCURVE",
"1178 968 CURVE",
"1276 664 LINE",
"1308 702 OFFCURVE",
"1352 728 OFFCURVE",
"1432 728 CURVE SMOOTH",
"1506 728 OFFCURVE",
"1554 692 OFFCURVE",
"1554 576 CURVE SMOOTH",
"1554 0 LINE"
);
}
);
};
color = -1;
layerId = "1E90A949-97C4-49F5-AA9A-AF35B6FD63CF";
paths = (
{
closed = 1;
nodes = (
"580 0 LINE",
"580 670 LINE",
"612 708 OFFCURVE",
"666 734 OFFCURVE",
"734 734 CURVE SMOOTH",
"810 734 OFFCURVE",
"848 698 OFFCURVE",
"848 582 CURVE SMOOTH",
"848 0 LINE",
"1302 0 LINE",
"1302 614 LINE SMOOTH",
"1302 968 OFFCURVE",
"1124 1118 OFFCURVE",
"878 1118 CURVE SMOOTH",
"738 1118 OFFCURVE",
"622 1076 OFFCURVE",
"542 1004 CURVE",
"522 1004 LINE",
"494 1100 LINE",
"116 1100 LINE",
"116 0 LINE"
);
},
{
closed = 1;
nodes = (
"2018 0 LINE",
"2018 608 LINE SMOOTH",
"2018 968 OFFCURVE",
"1834 1118 OFFCURVE",
"1570 1118 CURVE SMOOTH",
"1436 1118 OFFCURVE",
"1300 1078 OFFCURVE",
"1180 968 CURVE",
"1278 670 LINE",
"1310 708 OFFCURVE",
"1354 734 OFFCURVE",
"1434 734 CURVE SMOOTH",
"1508 734 OFFCURVE",
"1556 698 OFFCURVE",
"1556 582 CURVE SMOOTH",
"1556 0 LINE"
);
}
);
width = 2126;
}
);
leftKerningGroup = n;
rightKerningGroup = n;
unicode = 006D;
userData = {
com.typemytype.robofont.layerData = {
};
};
},
